<svg xmlns="http://www.w3.org/2000/svg" xmlns:xlink="http://www.w3.org/1999/xlink" width="86" height="86" viewBox="0 0 86 86">
  <defs>
    <filter id="Ellipse_11513" x="0" y="0" width="86" height="86" filterUnits="userSpaceOnUse">
      <feOffset dy="3" input="SourceAlpha"/>
      <feGaussianBlur stdDeviation="3" result="blur"/>
      <feFlood flood-opacity="0.161"/>
      <feComposite operator="in" in2="blur"/>
      <feComposite in="SourceGraphic"/>
    </filter>
  </defs>
  <g id="Group_1144071" data-name="Group 1144071" transform="translate(-187 -1247.59)">
    <g id="Group_1143815" data-name="Group 1143815" transform="translate(0 797.59)">
      <g id="Group_1143465" data-name="Group 1143465" transform="translate(0 -707)">
        <g transform="matrix(1, 0, 0, 1, 187, 1157)" filter="url(#Ellipse_11513)">
          <g id="Ellipse_11513-2" data-name="Ellipse 11513" transform="translate(9 6)" fill="#ede9fb" stroke="#1a0e43" stroke-width="3">
            <circle cx="34" cy="34" r="34" stroke="none"/>
            <circle cx="34" cy="34" r="32.5" fill="none"/>
          </g>
        </g>
      </g>
    </g>
    <g id="cloning_948780_1_" data-name="cloning_948780 (1)" transform="translate(204.572 1261.318)">
      <path id="Path_905917" data-name="Path 905917" d="M63.814,221.084a5.562,5.562,0,0,0-4.627-2.476,8.579,8.579,0,0,0-8.579,8.579v3.8H67.115v-5.676A4.359,4.359,0,0,0,63.814,221.084Z" transform="translate(-45.387 -193.715)" fill="#d3a06c"/>
      <path id="Path_905918" data-name="Path 905918" d="M135.531,221.084a5.562,5.562,0,0,0-4.627-2.476c-.1,0-.2.012-.3.016a12.362,12.362,0,0,1,4.93,9.889v2.476h3.3v-5.676A4.357,4.357,0,0,0,135.531,221.084Z" transform="translate(-117.126 -193.715)" fill="#b27946"/>
      <g id="Group_1143831" data-name="Group 1143831" transform="translate(1.094 34.797)">
        <path id="Path_905919" data-name="Path 905919" d="M53.084,319.56h0a2.476,2.476,0,0,1-2.476-2.476h0a2.476,2.476,0,0,1,2.476-2.476h.825v4.952Z" transform="translate(-46.481 -314.608)" fill="#f9e0a6"/>
        <path id="Path_905920" data-name="Path 905920" d="M25.465,402.608v1.651l5.293,1.059a4.952,4.952,0,0,1,3.79,3.5l.821,2.874H10.608l.821-2.874a4.951,4.951,0,0,1,3.79-3.5l5.293-1.059v-1.651Z" transform="translate(-10.608 -393.529)" fill="#f9e0a6"/>
      </g>
      <path id="Path_905921" data-name="Path 905921" d="M142.167,408.813a4.951,4.951,0,0,0-3.79-3.5l-5.293-1.059v-1.651h-2.476v1.651l5.293,1.059a4.952,4.952,0,0,1,3.79,3.5l.821,2.874h2.476Z" transform="translate(-117.133 -358.732)" fill="#eabd8c"/>
      <g id="Group_1143832" data-name="Group 1143832" transform="translate(7.697 32.321)">
        <path id="Path_905922" data-name="Path 905922" d="M179.433,319.56h0a2.476,2.476,0,0,0,2.476-2.476h0a2.476,2.476,0,0,0-2.476-2.476h-.825v4.952Z" transform="translate(-167.878 -312.132)" fill="#f9e0a6"/>
        <path id="Path_905923" data-name="Path 905923" d="M74.608,293.084v4.127a5.778,5.778,0,0,0,5.778,5.778h0a5.778,5.778,0,0,0,5.778-5.778v-4.127h0A9.9,9.9,0,0,1,80.22,291.1l-.66-.5-.725.726a5.977,5.977,0,0,1-4.227,1.751Z" transform="translate(-74.608 -290.608)" fill="#f9e0a6"/>
      </g>
      <path id="Path_905924" data-name="Path 905924" d="M127.56,313.24v4.268a5.773,5.773,0,0,1-4.952,5.711,5.734,5.734,0,0,0,6.6-5.711v-4.127A9.835,9.835,0,0,1,127.56,313.24Z" transform="translate(-109.958 -278.584)" fill="#eabd8c"/>
      <path id="Path_905925" data-name="Path 905925" d="M303.814,221.084a5.562,5.562,0,0,0-4.627-2.476,8.579,8.579,0,0,0-8.579,8.579v3.8h16.507v-5.676A4.359,4.359,0,0,0,303.814,221.084Z" transform="translate(-260.626 -193.715)" fill="#d3a06c"/>
      <path id="Path_905926" data-name="Path 905926" d="M375.747,221.084a5.562,5.562,0,0,0-4.627-2.476c-.1,0-.2.012-.3.016a12.359,12.359,0,0,1,4.931,9.889v2.476h3.3v-5.676A4.359,4.359,0,0,0,375.747,221.084Z" transform="translate(-332.559 -193.715)" fill="#b27946"/>
      <g id="Group_1143833" data-name="Group 1143833" transform="translate(25.855 34.797)">
        <path id="Path_905927" data-name="Path 905927" d="M293.084,319.56h0a2.476,2.476,0,0,1-2.476-2.476h0a2.476,2.476,0,0,1,2.476-2.476h.825v4.952Z" transform="translate(-286.481 -314.608)" fill="#f9e0a6"/>
        <path id="Path_905928" data-name="Path 905928" d="M265.464,402.608v1.651l5.293,1.059a4.952,4.952,0,0,1,3.79,3.5l.821,2.874H250.608l.821-2.874a4.951,4.951,0,0,1,3.79-3.5l5.293-1.059v-1.651Z" transform="translate(-250.608 -393.529)" fill="#f9e0a6"/>
      </g>
      <path id="Path_905929" data-name="Path 905929" d="M382.167,408.813a4.951,4.951,0,0,0-3.79-3.5l-5.293-1.059v-1.651h-2.476v1.651l5.293,1.059a4.952,4.952,0,0,1,3.79,3.5l.821,2.874h2.476Z" transform="translate(-332.372 -358.732)" fill="#eabd8c"/>
      <g id="Group_1143834" data-name="Group 1143834" transform="translate(32.458 32.321)">
        <path id="Path_905930" data-name="Path 905930" d="M419.433,319.56h0a2.476,2.476,0,0,0,2.476-2.476h0a2.476,2.476,0,0,0-2.476-2.476h-.825v4.952Z" transform="translate(-407.878 -312.132)" fill="#f9e0a6"/>
        <path id="Path_905931" data-name="Path 905931" d="M314.608,293.084v4.127a5.778,5.778,0,0,0,5.778,5.778h0a5.777,5.777,0,0,0,5.777-5.778v-4.127h0a9.9,9.9,0,0,1-5.943-1.981l-.66-.5-.726.726a5.977,5.977,0,0,1-4.227,1.751Z" transform="translate(-314.608 -290.608)" fill="#f9e0a6"/>
      </g>
      <path id="Path_905932" data-name="Path 905932" d="M367.56,313.24v4.268a5.773,5.773,0,0,1-4.952,5.711,5.734,5.734,0,0,0,6.6-5.711v-4.127A9.835,9.835,0,0,1,367.56,313.24Z" transform="translate(-325.198 -278.584)" fill="#eabd8c"/>
      <g id="Group_1143837" data-name="Group 1143837" transform="translate(1.094 3.433)">
        <g id="Group_1143835" data-name="Group 1143835" transform="translate(0 8.676)">
          <path id="SVGCleanerId_0" d="M18.949,97.721,17.02,94.7c-1.894,3.089-3.78,5.324-6.412,5.324v3.333C14.609,103.36,17.066,100.614,18.949,97.721Z" transform="translate(-10.608 -94.704)" fill="#807dea"/>
        </g>
        <path id="Path_905933" data-name="Path 905933" d="M410.616,16.1l1.927,3.175c2.011-3.336,3.58-5.333,6.326-5.333V10.608C414.865,10.608,412.5,13.2,410.616,16.1Z" transform="translate(-369.347 -10.608)" fill="#807dea"/>
        <g id="Group_1143836" data-name="Group 1143836" transform="translate(0 8.676)">
          <path id="SVGCleanerId_0_1_" d="M18.949,97.721,17.02,94.7c-1.894,3.089-3.78,5.324-6.412,5.324v3.333C14.609,103.36,17.066,100.614,18.949,97.721Z" transform="translate(-10.608 -94.704)" fill="#807dea"/>
        </g>
      </g>
      <g id="Group_1143839" data-name="Group 1143839" transform="translate(1.094 3.433)">
        <path id="Path_905934" data-name="Path 905934" d="M410.616,16.1l1.927,3.175c2.011-3.336,3.58-5.333,6.326-5.333V10.608C414.865,10.608,412.5,13.2,410.616,16.1Z" transform="translate(-369.347 -10.608)" fill="#fea82f"/>
        <g id="Group_1143838" data-name="Group 1143838" transform="translate(0 8.676)">
          <path id="SVGCleanerId_0_2_" d="M18.949,97.721,17.02,94.7c-1.894,3.089-3.78,5.324-6.412,5.324v3.333C14.609,103.36,17.066,100.614,18.949,97.721Z" transform="translate(-10.608 -94.704)" fill="#fea82f"/>
        </g>
        <path id="Path_905935" data-name="Path 905935" d="M35.369,22.455,37.3,19.274c2.012-3.339,3.58-5.333,6.328-5.333,2.974,0,4.565,2.337,6.834,6.185,2.159,3.663,4.606,7.814,9.672,7.814V24.607c-2.974,0-4.565-2.337-6.834-6.185-2.159-3.663-4.606-7.814-9.672-7.814-4,0-6.371,2.592-8.254,5.486l-1.866,3.2c-1.9,3.09-3.756,5.312-6.388,5.312-2.975,0-4.567-2.337-6.836-6.185-2.159-3.663-4.607-7.814-9.672-7.814v3.334c2.974,0,4.566,2.337,6.835,6.185,2.159,3.663,4.607,7.814,9.673,7.814C31.117,27.941,33.485,25.35,35.369,22.455Z" transform="translate(-10.608 -10.608)" fill="#fea82f"/>
      </g>
      <path id="Path_905936" data-name="Path 905936" d="M223.2,44.133l1.309,2.162c-.489.673-.98,1.441-1.5,2.3h0l-1.878,3.1a20.775,20.775,0,0,1-1.607,2.195c-.178-.257-.352-.513-.517-.766l-.033-.051-1.289-2.211c.636-.878,1.274-1.926,1.978-3.12a31.416,31.416,0,0,1,2.976-4.44C222.836,43.581,223.025,43.859,223.2,44.133Z" transform="translate(-195.229 -36.497)" fill="#ff8031"/>
      <path id="Path_905937" data-name="Path 905937" d="M98.877,13.942c2.974,0,4.566,2.337,6.835,6.185,2.159,3.663,4.607,7.814,9.673,7.814,4,0,6.369-2.595,8.253-5.491l-1.927-3.175c-2.011,3.336-3.58,5.333-6.326,5.333s-4.317-2-6.328-5.333h0l-1.878-3.1c-1.891-2.926-4.264-5.565-8.3-5.565-4,0-6.37,2.591-8.253,5.485L92.588,19.3C94.483,16.214,96.244,13.942,98.877,13.942Z" transform="translate(-81.274 -7.175)" fill="#fea82f"/>
      <g id="Group_1143840" data-name="Group 1143840" transform="translate(5.952 6.807)">
        <path id="Path_905938" data-name="Path 905938" d="M378.984,99.1l.033.051c.164.253.338.509.517.766a20.768,20.768,0,0,0,1.557-2.122c-.5-.767-.966-1.554-1.418-2.321-.173-.294-.342-.576-.508-.852-.509.845-.991,1.6-1.47,2.267Z" transform="translate(-344.681 -89.33)" fill="#ff8031"/>
        <path id="Path_905939" data-name="Path 905939" d="M412.049,47.752c.173.294.342.576.508.853.52-.863,1.01-1.631,1.5-2.3l-1.309-2.162c-.178-.274-.366-.551-.56-.828a20.74,20.74,0,0,0-1.557,2.12C411.13,46.2,411.6,46.985,412.049,47.752Z" transform="translate(-374.219 -43.312)" fill="#ff8031"/>
        <path id="Path_905940" data-name="Path 905940" d="M92.733,44.14c-.178-.274-.366-.551-.56-.828a20.957,20.957,0,0,0-1.557,2.12c.5.767.966,1.553,1.417,2.32.173.295.343.577.508.853.52-.863,1.011-1.632,1.5-2.3Z" transform="translate(-87.219 -43.312)" fill="#ff8031"/>
        <path id="Path_905941" data-name="Path 905941" d="M59.666,95.475c-.173-.294-.342-.575-.508-.851-.509.845-.99,1.6-1.47,2.266L58.977,99.1l.033.051c.164.253.338.509.517.766A20.554,20.554,0,0,0,61.084,97.8C60.585,97.029,60.118,96.242,59.666,95.475Z" transform="translate(-57.688 -89.33)" fill="#ff8031"/>
      </g>
      <path id="Path_905942" data-name="Path 905942" d="M50.589,236.395a5.755,5.755,0,0,0-4.421-4.077l-4.63-.927v-.217a6.618,6.618,0,0,0,3.1-4.122,3.3,3.3,0,0,0,2.677-3.238v-5.676a5.176,5.176,0,0,0-3.62-4.942,6.372,6.372,0,0,0-5.133-2.588,9.415,9.415,0,0,0-9.405,9.405v3.8a3.3,3.3,0,0,0,2.677,3.239,6.618,6.618,0,0,0,3.1,4.122v.217l-4.629.926a5.754,5.754,0,0,0-4.421,4.077l-.028.1-.027-.1a5.755,5.755,0,0,0-4.421-4.077l-4.63-.927v-.217a6.618,6.618,0,0,0,3.1-4.122,3.3,3.3,0,0,0,2.677-3.238v-5.676a5.176,5.176,0,0,0-3.62-4.942,6.372,6.372,0,0,0-5.133-2.588A9.415,9.415,0,0,0,4.4,220.013v3.8a3.3,3.3,0,0,0,2.677,3.239,6.618,6.618,0,0,0,3.1,4.122v.217l-4.629.926a5.754,5.754,0,0,0-4.421,4.077L0,240.321H51.711Zm-30.511-11.16v-2.842a1.636,1.636,0,0,1,0,2.842ZM13.8,212.259a4.723,4.723,0,0,1,3.939,2.109l.177.266.31.078a3.527,3.527,0,0,1,2.676,3.427v2.833a3.267,3.267,0,0,0-1.651-.459,9.136,9.136,0,0,1-5.447-1.816l-1.233-.925L11.34,219a5.117,5.117,0,0,1-3.643,1.51,3.267,3.267,0,0,0-1.651.459v-.959A7.763,7.763,0,0,1,13.8,212.259ZM6.047,223.814a1.645,1.645,0,0,1,.825-1.421v2.842A1.643,1.643,0,0,1,6.047,223.814Zm2.476,1.651v-3.357a6.748,6.748,0,0,0,3.985-1.937l.22-.22.087.066a10.8,10.8,0,0,0,5.612,2.112v3.335a4.952,4.952,0,1,1-9.9,0Zm12.2,13.206-.669-2.677-1.6.4.57,2.276H7.928l.569-2.276-1.6-.4-.669,2.677H2.189l.521-1.822a4.109,4.109,0,0,1,3.158-2.913l5.957-1.191v-.894a6.384,6.384,0,0,0,3.3,0v.894l5.957,1.191a4.109,4.109,0,0,1,3.158,2.913l.521,1.822Zm24.117-13.435v-2.842a1.636,1.636,0,0,1,0,2.842Zm-6.277-12.976a4.723,4.723,0,0,1,3.939,2.109l.177.266.31.078a3.527,3.527,0,0,1,2.676,3.427v2.833a3.267,3.267,0,0,0-1.651-.459,9.136,9.136,0,0,1-5.447-1.816l-1.233-.925L36.1,219a5.117,5.117,0,0,1-3.643,1.51,3.267,3.267,0,0,0-1.651.459v-.959A7.763,7.763,0,0,1,38.562,212.259Zm-7.754,11.555a1.645,1.645,0,0,1,.825-1.421v2.842A1.643,1.643,0,0,1,30.807,223.814Zm2.476,1.651v-3.357a6.748,6.748,0,0,0,3.985-1.937l.22-.22.087.066a10.8,10.8,0,0,0,5.612,2.112v3.335a4.952,4.952,0,1,1-9.9,0Zm12.2,13.206-.669-2.677-1.6.4.569,2.276H32.689l.569-2.276-1.6-.4-.669,2.676H26.951l.521-1.822a4.109,4.109,0,0,1,3.158-2.913l5.956-1.191v-.894a6.384,6.384,0,0,0,3.3,0v.894l5.957,1.191A4.109,4.109,0,0,1,49,236.848l.521,1.822Z" transform="translate(0 -186.541)"/>
      <path id="Path_905943" data-name="Path 905943" d="M11.691,16.737c1.881,2.606,4.362,4.855,8.25,4.855,4,0,6.5-2.417,8.258-4.855,1.881,2.606,4.362,4.855,8.25,4.855,3.993,0,6.5-2.417,8.255-4.856,1.882,2.606,4.362,4.856,8.25,4.856h.825V16.607h-.825c-2.165,0-3.48-1.451-5.357-4.5,1.87-3.041,3.208-4.511,5.357-4.511h.825V2.608h-.825c-3.993,0-6.5,2.417-8.255,4.856-1.882-2.606-4.362-4.856-8.25-4.856-3.993,0-6.5,2.414-8.254,4.85-1.823-2.546-4.276-4.85-8.254-4.85-4,0-6.5,2.417-8.258,4.855C9.8,4.856,7.322,2.608,3.433,2.608H2.608V7.592h.825c2.167,0,3.481,1.453,5.361,4.508-1.834,2.989-3.17,4.506-5.361,4.506H2.608v4.984h.825C7.431,21.591,9.937,19.174,11.691,16.737ZM52.13,4.3V6c-2.416.329-3.957,2.119-5.486,4.514-.3-.515-.621-1.042-.954-1.571C47.23,6.657,49.106,4.615,52.13,4.3ZM36.45,4.259c4.593,0,6.813,3.765,8.96,7.408s3.835,6.143,6.72,6.537V19.9c-4.042-.423-6.121-3.949-8.135-7.366-2.347-3.982-4.141-6.591-7.545-6.591-2.909,0-4.621,1.912-6.319,4.573l-.957-1.575C30.785,6.558,32.928,4.259,36.45,4.259Zm.824,10.73v1.538a4.23,4.23,0,0,1-1.651,0V7.673a4.251,4.251,0,0,1,1.651,0v5.666h1.651V8.443A13.542,13.542,0,0,1,41.806,12.1a13.519,13.519,0,0,1-2.882,3.639v-.746ZM31.093,12.1a13.5,13.5,0,0,1,2.879-3.633v7.267A13.519,13.519,0,0,1,31.093,12.1ZM19.941,4.259c3.741,0,5.867,2.493,7.6,5.169L29.37,12.44h0l.324.615.039-.009c1.784,2.9,3.593,5.212,6.718,5.212,2.9,0,4.616-1.909,6.312-4.567.3.516.621,1.044.956,1.574-1.676,2.483-3.755,4.676-7.269,4.676-4.595,0-6.815-3.765-8.962-7.408-2.347-3.982-4.142-6.591-7.546-6.591-2.959,0-4.725,2.083-6.313,4.568-.305-.517-.623-1.047-.957-1.577C14.282,6.552,16.423,4.259,19.941,4.259Zm-2.477,6.6v4.894A13.546,13.546,0,0,1,14.58,12.1a13.359,13.359,0,0,1,2.885-3.636v.748h1.651V7.675a4.172,4.172,0,0,1,.826-.083,4.221,4.221,0,0,1,.825.08v8.852a4.156,4.156,0,0,1-.825.083,4.232,4.232,0,0,1-.826-.08V10.862Zm4.952-2.418A13.523,13.523,0,0,1,25.3,12.1a13.352,13.352,0,0,1-2.885,3.637ZM4.259,6V4.3c4.043.423,6.122,3.949,8.136,7.366,2.347,3.982,4.142,6.591,7.547,6.591,2.958,0,4.724-2.083,6.312-4.568.305.517.623,1.047.957,1.577-1.61,2.38-3.751,4.674-7.27,4.674-4.595,0-6.815-3.765-8.962-7.408S7.143,6.39,4.259,6Zm0,12.206c2.474-.349,4.052-2.268,5.486-4.512.305.518.623,1.047.959,1.579-1.481,2.186-3.41,4.3-6.445,4.629V18.2Z" transform="translate(-2.339)"/>
    </g>
  </g>
</svg>
