<svg xmlns="http://www.w3.org/2000/svg" xmlns:xlink="http://www.w3.org/1999/xlink" width="108" height="108" viewBox="0 0 108 108">
  <defs>
    <filter id="Ellipse_11513" x="0" y="0" width="108" height="108" filterUnits="userSpaceOnUse">
      <feOffset dy="3" input="SourceAlpha"/>
      <feGaussianBlur stdDeviation="3" result="blur"/>
      <feFlood flood-opacity="0.161"/>
      <feComposite operator="in" in2="blur"/>
      <feComposite in="SourceGraphic"/>
    </filter>
  </defs>
  <g id="Group_1145296" data-name="Group 1145296" transform="translate(-187.907 -5239.5)">
    <g id="Group_1144401" data-name="Group 1144401" transform="translate(196.907 5245.5)">
      <g transform="matrix(1, 0, 0, 1, -9, -6)" filter="url(#Ellipse_11513)">
        <g id="Ellipse_11513-2" data-name="Ellipse 11513" transform="translate(9 6)" fill="#ebf0f7" stroke="#586577" stroke-width="3">
          <circle cx="45" cy="45" r="45" stroke="none"/>
          <circle cx="45" cy="45" r="43.5" fill="none"/>
        </g>
      </g>
    </g>
    <g id="cloning_1925003" transform="translate(203.36 5250.5)">
      <path id="Path_907762" data-name="Path 907762" d="M15.323,14A13.316,13.316,0,0,0,2,27.323v10.9a4.843,4.843,0,0,0,4.845,4.845H8.056V68.5a3.634,3.634,0,0,0,7.267,0,3.634,3.634,0,0,0,7.267,0V43.069H23.8a4.85,4.85,0,0,0,4.191-2.41,20.426,20.426,0,0,1-.412-2.435,20.259,20.259,0,0,1,0-4.845,20.623,20.623,0,0,1,1.066-4.712V27.323A13.316,13.316,0,0,0,15.323,14Z" transform="translate(0.211 2.746)" fill="#fcd770"/>
      <path id="Path_907763" data-name="Path 907763" d="M53.323,14A13.316,13.316,0,0,0,40,27.323v1.344a20.623,20.623,0,0,1,1.066,4.712,20.26,20.26,0,0,1,0,4.845,20.425,20.425,0,0,1-.412,2.435,4.85,4.85,0,0,0,4.191,2.41h1.211V68.5a3.634,3.634,0,1,0,7.267,0,3.629,3.629,0,0,0,3.634,3.634h.061a3.761,3.761,0,0,0,3.573-3.815V43.069H61.8a4.843,4.843,0,0,0,4.845-4.845v-10.9A13.316,13.316,0,0,0,53.323,14Z" transform="translate(8.237 2.746)" fill="#fcd770"/>
      <circle id="Ellipse_11668" data-name="Ellipse 11668" cx="7.5" cy="7.5" r="7.5" transform="translate(8 2)" fill="#fcd770"/>
      <ellipse id="Ellipse_11669" data-name="Ellipse 11669" cx="7" cy="7.5" rx="7" ry="7.5" transform="translate(55 2)" fill="#fcd770"/>
      <path id="Path_907764" data-name="Path 907764" d="M24.44,8H42.753a20.989,20.989,0,0,1-2.858,4.845H27.3A20.99,20.99,0,0,1,24.44,8Z" transform="translate(4.95 1.478)" fill="#fc6e51"/>
      <path id="Path_907765" data-name="Path 907765" d="M40.421,23.162H26.08a21.214,21.214,0,0,1,6.6-6.31l.569-.351.569.351A21.214,21.214,0,0,1,40.421,23.162Z" transform="translate(5.297 3.274)" fill="#fc6e51"/>
      <path id="Path_907766" data-name="Path 907766" d="M44.631,30.845H23.12a20.623,20.623,0,0,1,1.066-4.712A.591.591,0,0,0,24.234,26H43.517a.59.59,0,0,0,.048.133A20.623,20.623,0,0,1,44.631,30.845Z" transform="translate(4.672 5.28)" fill="#fc6e51"/>
      <path id="Path_907767" data-name="Path 907767" d="M23.12,34H44.631a20.424,20.424,0,0,1-.412,2.435l-.7,2.41H24.234l-.7-2.41A20.426,20.426,0,0,1,23.12,34Z" transform="translate(4.672 6.97)" fill="#fc6e51"/>
      <path id="Path_907768" data-name="Path 907768" d="M26.08,42H40.421a21.214,21.214,0,0,1-6.6,6.31l-.569.351-.569-.351A21.214,21.214,0,0,1,26.08,42Z" transform="translate(5.297 8.659)" fill="#fc6e51"/>
      <path id="Path_907769" data-name="Path 907769" d="M42.753,56.845H24.44A20.99,20.99,0,0,1,27.3,52h12.6A20.99,20.99,0,0,1,42.753,56.845Z" transform="translate(4.95 10.771)" fill="#fc6e51"/>
      <g id="Group_1145295" data-name="Group 1145295" transform="translate(27.646 4.634)">
        <path id="Path_907770" data-name="Path 907770" d="M44.432,60.845H23.26A20.677,20.677,0,0,1,24.689,56H43A20.676,20.676,0,0,1,44.432,60.845Z" transform="translate(-22.945 6.982)" fill="#ff826e"/>
        <path id="Path_907771" data-name="Path 907771" d="M39.382,52.95H26.81a21.2,21.2,0,0,1,5.717-5.1L33.1,47.5l.569.351A21.2,21.2,0,0,1,39.382,52.95Z" transform="translate(-22.195 5.187)" fill="#ff826e"/>
        <path id="Path_907772" data-name="Path 907772" d="M24.05,38H43.308a20.643,20.643,0,0,1-1.49,3.294c-.3.533-.618,1.054-.957,1.55H26.5c-.339-.5-.654-1.017-.957-1.55A20.642,20.642,0,0,1,24.05,38Z" transform="translate(-22.778 3.181)" fill="#ff826e"/>
        <path id="Path_907773" data-name="Path 907773" d="M44.656,30a20.26,20.26,0,0,1,0,4.845H23.145a20.259,20.259,0,0,1,0-4.845Z" transform="translate(-23 1.491)" fill="#ff826e"/>
        <path id="Path_907774" data-name="Path 907774" d="M43.308,26.845H24.05A21.165,21.165,0,0,1,26.5,22H40.861A21.165,21.165,0,0,1,43.308,26.845Z" transform="translate(-22.778 -0.198)" fill="#ff826e"/>
        <path id="Path_907775" data-name="Path 907775" d="M26.81,12H39.382a21.194,21.194,0,0,1-5.717,5.1l-.569.351-.569-.351A21.194,21.194,0,0,1,26.81,12Z" transform="translate(-22.195 -2.31)" fill="#ff826e"/>
        <path id="Path_907776" data-name="Path 907776" d="M23.26,4H44.432A20.677,20.677,0,0,1,43,8.845H24.689A20.676,20.676,0,0,1,23.26,4Z" transform="translate(-22.945 -4)" fill="#ff826e"/>
      </g>
      <path id="Path_907777" data-name="Path 907777" d="M66.445,16.4a8.478,8.478,0,1,0-9.77,0A14.569,14.569,0,0,0,47.4,26.853a22.836,22.836,0,0,0-6.606-7.078A22.96,22.96,0,0,0,50.659,1H48.237a20.135,20.135,0,0,1-.153,2.422H29.01A20.135,20.135,0,0,1,28.858,1H26.435A22.956,22.956,0,0,0,36.3,19.774,22.84,22.84,0,0,0,29.7,26.853,14.574,14.574,0,0,0,20.419,16.4a8.478,8.478,0,1,0-9.77,0A14.547,14.547,0,0,0,1,30.069v10.9a6.063,6.063,0,0,0,6.056,6.056V71.249a4.825,4.825,0,0,0,8.478,3.171,4.825,4.825,0,0,0,8.478-3.171V47.026a6.071,6.071,0,0,0,3.629-1.215A22.971,22.971,0,0,0,36.3,57.321a22.956,22.956,0,0,0-9.869,18.774h2.422a20.135,20.135,0,0,1,.153-2.422H48.084a20.135,20.135,0,0,1,.153,2.422h2.422A22.956,22.956,0,0,0,40.79,57.321a22.973,22.973,0,0,0,8.662-11.51,6.071,6.071,0,0,0,3.629,1.215V71.249a4.824,4.824,0,0,0,8.482,3.166,4.911,4.911,0,0,0,3.709,1.679h0a4.963,4.963,0,0,0,4.765-5.026V47.026a6.063,6.063,0,0,0,6.056-6.056v-10.9A14.547,14.547,0,0,0,66.445,16.4ZM55.5,9.478a6.056,6.056,0,1,1,6.056,6.056A6.063,6.063,0,0,1,55.5,9.478ZM30.732,47.026H46.363a20.58,20.58,0,0,1-1.312,2.422H32.044a20.58,20.58,0,0,1-1.312-2.422ZM46.362,30.069H30.732a20.58,20.58,0,0,1,1.312-2.422H45.051a20.751,20.751,0,0,1,1.311,2.422ZM29.8,32.491H47.3a20.105,20.105,0,0,1,.6,2.422H29.2a20.34,20.34,0,0,1,.6-2.422Zm-.942,6.056c0-.406.016-.809.04-1.211H48.2c.024.4.04.805.04,1.211s-.016.809-.04,1.211H28.9c-.024-.4-.04-.805-.04-1.211ZM29.8,44.6a20.105,20.105,0,0,1-.6-2.422H47.9a20.571,20.571,0,0,1-.6,2.422Zm5.175-29.069h7.144a20.115,20.115,0,0,1-3.572,2.816A20.115,20.115,0,0,1,34.975,15.534Zm-2.109-2.422a20.478,20.478,0,0,1-1.53-2.422H45.759a20.8,20.8,0,0,1-1.53,2.422ZM47.636,5.845a20.667,20.667,0,0,1-.763,2.422H30.223a20.442,20.442,0,0,1-.763-2.422ZM38.547,21.2a20.186,20.186,0,0,1,4.709,4.027H33.838A20.186,20.186,0,0,1,38.547,21.2ZM9.478,9.478a6.056,6.056,0,1,1,6.056,6.056A6.063,6.063,0,0,1,9.478,9.478ZM24.013,44.6V25.224H21.59V71.249a2.422,2.422,0,0,1-4.845,0V42.181H14.323V71.249a2.422,2.422,0,0,1-4.845,0V25.224H7.056V44.6A3.638,3.638,0,0,1,3.422,40.97v-10.9a12.112,12.112,0,1,1,24.224,0v1.2a22.361,22.361,0,0,0-.736,11.843A3.628,3.628,0,0,1,24.013,44.6ZM42.119,61.56H34.975a20.115,20.115,0,0,1,3.572-2.816A20.116,20.116,0,0,1,42.119,61.56Zm2.109,2.422a20.478,20.478,0,0,1,1.53,2.422H31.337a20.8,20.8,0,0,1,1.53-2.422ZM29.458,71.249a20.668,20.668,0,0,1,.763-2.422h16.65a20.219,20.219,0,0,1,.763,2.422ZM38.547,55.9a20.186,20.186,0,0,1-4.709-4.027h9.418A20.186,20.186,0,0,1,38.547,55.9ZM73.672,40.97A3.638,3.638,0,0,1,70.038,44.6V27.646H67.616V71.068a2.536,2.536,0,0,1-2.422,2.6,2.425,2.425,0,0,1-2.422-2.422V42.181H60.349V71.249a2.422,2.422,0,0,1-4.845,0v-43.6H53.081V44.6a3.63,3.63,0,0,1-2.9-1.491,22.361,22.361,0,0,0-.736-11.843v-1.2a12.112,12.112,0,1,1,24.224,0Z" transform="translate(0)"/>
      <path id="Path_907778" data-name="Path 907778" d="M50,17h2.422v2.422H50Z" transform="translate(10.349 3.379)"/>
      <path id="Path_907779" data-name="Path 907779" d="M50,21h2.422v2.422H50Z" transform="translate(10.349 4.224)"/>
      <path id="Path_907780" data-name="Path 907780" d="M50,25h2.422v2.422H50Z" transform="translate(10.349 5.069)"/>
      <path id="Path_907781" data-name="Path 907781" d="M12,17h2.422v2.422H12Z" transform="translate(2.323 3.379)"/>
      <path id="Path_907782" data-name="Path 907782" d="M12,21h2.422v2.422H12Z" transform="translate(2.323 4.224)"/>
      <path id="Path_907783" data-name="Path 907783" d="M12,25h2.422v2.422H12Z" transform="translate(2.323 5.069)"/>
    </g>
  </g>
</svg>
