<svg xmlns="http://www.w3.org/2000/svg" xmlns:xlink="http://www.w3.org/1999/xlink" width="86" height="86" viewBox="0 0 86 86">
  <defs>
    <filter id="Ellipse_11513" x="0" y="0" width="86" height="86" filterUnits="userSpaceOnUse">
      <feOffset dy="3" input="SourceAlpha"/>
      <feGaussianBlur stdDeviation="3" result="blur"/>
      <feFlood flood-opacity="0.161"/>
      <feComposite operator="in" in2="blur"/>
      <feComposite in="SourceGraphic"/>
    </filter>
  </defs>
  <g id="Group_1145306" data-name="Group 1145306" transform="translate(-607.101 -4289)">
    <g id="Group_1144422" data-name="Group 1144422" transform="translate(-209.899 3041.41)">
      <g id="Group_1143817" data-name="Group 1143817" transform="translate(0 797.59)">
        <g id="Group_1143465" data-name="Group 1143465" transform="translate(630 -707)">
          <g transform="matrix(1, 0, 0, 1, 187, 1157)" filter="url(#Ellipse_11513)">
            <g id="Ellipse_11513-2" data-name="Ellipse 11513" transform="translate(9 6)" fill="#ede9fb" stroke="#301a7b" stroke-width="3">
              <circle cx="34" cy="34" r="34" stroke="none"/>
              <circle cx="34" cy="34" r="32.5" fill="none"/>
            </g>
          </g>
        </g>
      </g>
    </g>
    <g id="virus_13442181" transform="translate(621.352 4300.251)">
      <path id="Path_907833" data-name="Path 907833" d="M20.91,52.72a21.269,21.269,0,0,1-10.4-2.758C8,48.468,5,45.746,5,41.229c0-6.17,1.158-9.4,4.42-12.375,1.582-1.441,4.552-2.015,7.168-2.519l.1-.018c2.775-.53,5.639-1.078,7.761-2.767A14.232,14.232,0,0,0,27.734,19.2c.654-1.158,1.29-2.44,1.918-3.686.884-1.75,1.785-3.562,2.767-5.144C34.69,6.695,36.935,4.98,39.472,4.98c4.888,0,8.035,3.111,9.811,5.719a20.437,20.437,0,0,1,3.447,11.075c0,9.21-2.908,16.971-8.415,22.425-5.613,5.569-13.7,8.512-23.406,8.512Z" transform="translate(-0.116 -0.114)" fill="#d6e9fc" fill-rule="evenodd"/>
      <path id="Path_907834" data-name="Path 907834" d="M16.368,50.829a4.419,4.419,0,0,1-2.219-8.247,4.419,4.419,0,1,1,2.219,8.247Z" transform="translate(-0.922 -4.411)" fill="#ffd385" fill-rule="evenodd"/>
      <path id="Path_907835" data-name="Path 907835" d="M50.521,52.069a2.21,2.21,0,1,1,2.21-2.21A2.211,2.211,0,0,1,50.521,52.069ZM33.285,42.346a7.955,7.955,0,1,1,7.955-7.955A7.967,7.967,0,0,1,33.285,42.346ZM7.21,25.11A2.21,2.21,0,1,1,9.42,22.9,2.211,2.211,0,0,1,7.21,25.11Zm10.607-3.094a5.745,5.745,0,1,1,5.745-5.745A5.757,5.757,0,0,1,17.817,22.016ZM27.1,10.526a1.768,1.768,0,1,1,1.768-1.768A1.773,1.773,0,0,1,27.1,10.526Z" transform="translate(-0.116 -0.347)" fill="#84d8c8" fill-rule="evenodd"/>
      <path id="Path_907836" data-name="Path 907836" d="M24.468,51a1.326,1.326,0,1,1,1.326-1.326A1.324,1.324,0,0,1,24.468,51ZM10.326,36.855a1.326,1.326,0,1,1,1.326-1.326A1.324,1.324,0,0,1,10.326,36.855Zm38.892-9.723a1.326,1.326,0,1,1,1.326-1.326A1.324,1.324,0,0,1,49.218,27.132Zm-5.745-5.3a4.42,4.42,0,1,1,4.42-4.42A4.421,4.421,0,0,1,43.472,21.829Zm-11.049,0A1.326,1.326,0,1,1,33.749,20.5,1.324,1.324,0,0,1,32.423,21.829Z" transform="translate(-0.58 -1.044)" fill="#f47b67" fill-rule="evenodd"/>
      <path id="Path_907837" data-name="Path 907837" d="M33.91,40.3a1.326,1.326,0,1,1,1.326-1.326A1.324,1.324,0,0,1,33.91,40.3ZM37,35.436a2.21,2.21,0,1,1,2.21-2.21A2.211,2.211,0,0,1,37,35.436ZM19.326,18.642a1.326,1.326,0,1,1,1.326-1.326A1.324,1.324,0,0,1,19.326,18.642Z" transform="translate(-1.625 -1.392)" fill="#5bb2b0" fill-rule="evenodd"/>
      <path id="Path_907838" data-name="Path 907838" d="M23.782,22.756C21.811,24.33,19,24.851,16.3,25.364c-3.005.575-5.878,1.167-7.593,2.731C5.29,31.2,4,34.6,4,41.124c0,4.313,2.51,7.451,5.931,9.484A22.193,22.193,0,0,0,20.794,53.5c10.262,0,18.421-3.2,24.024-8.768S53.5,31.215,53.5,21.678a21.456,21.456,0,0,0-3.6-11.57C47.488,6.563,43.908,4,39.356,4c-3.253,0-5.737,2.457-7.8,5.807-1.706,2.758-3.164,6.108-4.7,8.857a14.026,14.026,0,0,1-3.067,4.084ZM50.4,46.427A3.094,3.094,0,1,0,53.5,49.521,3.1,3.1,0,0,0,50.4,46.427ZM24.878,24.135a15.886,15.886,0,0,0,3.509-4.605c1.529-2.731,2.97-6.055,4.667-8.795,1.706-2.758,3.615-4.968,6.3-4.968,3.942,0,6.992,2.272,9.087,5.339a19.616,19.616,0,0,1,3.288,10.571c0,9.016-2.855,16.538-8.158,21.806s-13.055,8.247-22.778,8.247A20.348,20.348,0,0,1,10.841,49.1c-2.89-1.724-5.074-4.331-5.074-7.973,0-5.851,1.07-8.936,4.128-11.721,1.52-1.379,4.084-1.794,6.744-2.307,2.97-.575,6.055-1.229,8.238-2.961ZM50.4,48.2a1.326,1.326,0,1,1-1.326,1.326A1.324,1.324,0,0,1,50.4,48.2ZM23.888,46.427a2.21,2.21,0,1,0,2.21,2.21A2.211,2.211,0,0,0,23.888,46.427Zm-6.93-9.5a5.27,5.27,0,0,0-3.377.106L13.1,36.2a.887.887,0,0,0-1.538.884l.477.831a5.318,5.318,0,0,0-1.856,4.95l-1.865.7a.887.887,0,1,0,.619,1.662l1.821-.681s.044.08.071.115a5.275,5.275,0,0,0,2.413,2.183l-.053,1.644a.884.884,0,1,0,1.768.053L15,47.294a5.061,5.061,0,0,0,1.847-.177l.522.91a.887.887,0,1,0,1.538-.884l-.451-.778a5.3,5.3,0,0,0,2.272-4.181l.451-.027a.885.885,0,1,0-.106-1.768l-.583.035a5.7,5.7,0,0,0-.468-1.07,5.223,5.223,0,0,0-1.485-1.644l.981-1.98a.883.883,0,1,0-1.582-.787Zm6.93,11.27a.442.442,0,1,1-.442.442A.438.438,0,0,1,23.888,48.2Zm5.666-.955a.884.884,0,1,1-.884.884A.887.887,0,0,1,29.554,47.241Zm-11.049-7a3.532,3.532,0,1,1-4.826-1.291A3.536,3.536,0,0,1,18.5,40.24ZM34.769,23.3l-.539,1.971a8.3,8.3,0,0,0-1.052-.062,8.771,8.771,0,0,0-3.412.681l-.619-1.847a.88.88,0,0,0-1.671.557l.716,2.148A8.871,8.871,0,0,0,25,30.685l-1.618-.946a.885.885,0,0,0-1.529-.893l-.893,1.52a.885.885,0,1,0,1.529.893l2,1.176a8.807,8.807,0,0,0-.15,1.618,8.9,8.9,0,0,0,.4,2.625L23,37.721a.882.882,0,1,0,.91,1.511l1.529-.919a8.87,8.87,0,0,0,2.9,3.129l-.9,1.565a.887.887,0,1,0-.884,1.538l1.529.884a.887.887,0,0,0,.884-1.538l.937-1.626a8.791,8.791,0,0,0,3.27.628v.884a.884.884,0,0,0,1.768,0V42.715a8.7,8.7,0,0,0,3.323-1.441l1.458,1.458a.881.881,0,0,0,1.246,1.246l1.246-1.246a.881.881,0,0,0-1.246-1.246l-1.37-1.37a8.9,8.9,0,0,0,2.2-4.146l1.361.274a.884.884,0,0,0,.354-1.732l-1.5-.3v-.159a8.831,8.831,0,0,0-.583-3.173l3.792-1.927a.882.882,0,0,0,1.573-.8l-.8-1.573a.882.882,0,0,0-1.573.8l-3.792,1.927a8.851,8.851,0,0,0-4.676-3.642l.521-1.883a.885.885,0,0,0,.468-1.706l-1.706-.468a.885.885,0,1,0-.468,1.706Zm-11.323,18.7a.884.884,0,1,1-.884.884A.887.887,0,0,1,23.446,42.008Zm-6.187-.884a.884.884,0,1,1-.884.884A.887.887,0,0,1,17.259,41.124Zm-3-.884a.884.884,0,1,1-.884.884.887.887,0,0,1,.884-.884ZM33.169,26.981A7.071,7.071,0,1,1,26.1,34.053,7.069,7.069,0,0,1,33.169,26.981Zm-.884,8.4a2.21,2.21,0,1,0,2.21,2.21A2.211,2.211,0,0,0,32.285,35.379Zm0,1.768a.442.442,0,1,1-.442.442A.438.438,0,0,1,32.285,37.146Zm5.3-1.326a.884.884,0,1,1-.884.884A.886.886,0,0,1,37.588,35.82ZM9.745,32.285a2.21,2.21,0,1,0,2.21,2.21A2.211,2.211,0,0,0,9.745,32.285Zm36.682.884a.884.884,0,1,1-.884.884A.886.886,0,0,1,46.427,33.169Zm-11.049-4.42a3.094,3.094,0,1,0,3.094,3.094A3.1,3.1,0,0,0,35.379,28.749Zm-25.633,5.3a.442.442,0,1,1-.442.442A.438.438,0,0,1,9.745,34.053ZM29.633,31.4a.884.884,0,1,1-.884.884A.887.887,0,0,1,29.633,31.4Zm5.745-.884a1.326,1.326,0,1,1-1.326,1.326A1.324,1.324,0,0,1,35.379,30.517Zm-19.888,0a.884.884,0,1,1-.884.884A.887.887,0,0,1,15.491,30.517Zm33.146-7.955a2.21,2.21,0,1,0,2.21,2.21A2.211,2.211,0,0,0,48.637,22.562ZM7.094,19.468a3.094,3.094,0,1,0,3.094,3.094A3.1,3.1,0,0,0,7.094,19.468ZM48.637,24.33a.442.442,0,1,1-.442.442A.438.438,0,0,1,48.637,24.33ZM39.259,12.512a5.3,5.3,0,0,0-1.591,2.979h-.955a.884.884,0,1,0,0,1.768h.955a5.324,5.324,0,0,0,3.359,4.084L40.7,23.3a.883.883,0,0,0,1.741.292l.318-1.918h.133a5.256,5.256,0,0,0,3.094-1l1.4.866a.885.885,0,1,0,.937-1.5l-1.061-.654a5.149,5.149,0,0,0,.769-1.688h1.052a.884.884,0,0,0,0-1.768h-.9a5.33,5.33,0,0,0-2.484-4.066l.2-.407a.883.883,0,0,0-1.582-.787l-.265.522a5.533,5.533,0,0,0-1.158-.124,5.372,5.372,0,0,0-2.166.46l-1.22-1.839a.886.886,0,0,0-1.476.981l1.22,1.839ZM7.094,21.236a1.326,1.326,0,1,1-1.326,1.326A1.324,1.324,0,0,1,7.094,21.236ZM17.7,9.3a6.629,6.629,0,1,0,6.629,6.629A6.632,6.632,0,0,0,17.7,9.3Zm14.142,7.955a2.21,2.21,0,1,0,2.21,2.21A2.211,2.211,0,0,0,31.843,17.259ZM17.7,11.071a4.861,4.861,0,1,1-4.861,4.861A4.859,4.859,0,0,1,17.7,11.071Zm14.142,7.955a.442.442,0,1,1-.442.442A.438.438,0,0,1,31.843,19.026Zm11.049-6.187a3.536,3.536,0,1,1-3.536,3.536A3.535,3.535,0,0,1,42.892,12.839ZM16.64,14a2.236,2.236,0,0,0-1.149,1.909l-.928.619A.886.886,0,0,0,15.544,18l.663-.442a2.275,2.275,0,0,0,.619.407v.628a.884.884,0,0,0,1.768,0v-.628a2.226,2.226,0,0,0,.636-.424l1.4.283a.884.884,0,0,0,.354-1.732l-1.061-.221a2.046,2.046,0,0,0-.044-.407l.23-.23a.888.888,0,1,0-1.255-1.255l-.035.035a1.94,1.94,0,0,0-.389-.177l-.3-1.22a.883.883,0,0,0-1.715.424l.239.946Zm26.694.168a2.21,2.21,0,1,0,2.21,2.21,2.211,2.211,0,0,0-2.21-2.21Zm0,1.768a.442.442,0,1,1-.442.442A.438.438,0,0,1,43.334,15.933Zm-25.624-.442h-.018a.442.442,0,1,0,.018,0Zm17.227-3.978a.884.884,0,1,1-.884.884A.887.887,0,0,1,34.937,11.513ZM26.981,5.768A2.652,2.652,0,1,0,29.633,8.42,2.648,2.648,0,0,0,26.981,5.768ZM41.566,7.536a.884.884,0,1,1-.884.884A.887.887,0,0,1,41.566,7.536Zm-14.584,0a.884.884,0,1,1-.884.884A.887.887,0,0,1,26.981,7.536Z" fill-rule="evenodd"/>
    </g>
  </g>
</svg>
