<svg xmlns="http://www.w3.org/2000/svg" xmlns:xlink="http://www.w3.org/1999/xlink" width="108" height="108" viewBox="0 0 108 108">
  <defs>
    <filter id="Path_904820" x="0" y="0" width="108" height="108" filterUnits="userSpaceOnUse">
      <feOffset dy="3" input="SourceAlpha"/>
      <feGaussianBlur stdDeviation="3" result="blur"/>
      <feFlood flood-opacity="0.161"/>
      <feComposite operator="in" in2="blur"/>
      <feComposite in="SourceGraphic"/>
    </filter>
  </defs>
  <g id="Group_1144075" data-name="Group 1144075" transform="translate(-616.101 -1557.84)">
    <g id="Group_1143821" data-name="Group 1143821" transform="translate(1 -3442.16)">
      <g transform="matrix(1, 0, 0, 1, 615.1, 5000)" filter="url(#Path_904820)">
        <g id="Path_904820-2" data-name="Path 904820" transform="translate(9 6)" fill="#ebf0f7">
          <path d="M 45 88.5 C 39.12687683105469 88.5 33.43022537231445 87.35007476806641 28.06830024719238 85.08217620849609 C 22.88852500915527 82.89131164550781 18.23629951477051 79.75458526611328 14.2408504486084 75.75914764404297 C 10.24541282653809 71.76370239257812 7.108687400817871 67.11147308349609 4.917825222015381 61.93170166015625 C 2.649924993515015 56.56977462768555 1.5 50.87312316894531 1.5 45 C 1.5 39.12687683105469 2.649924993515015 33.43022537231445 4.917825222015381 28.06830024719238 C 7.108687400817871 22.88852500915527 10.24541282653809 18.23629951477051 14.2408504486084 14.2408504486084 C 18.23629951477051 10.24541282653809 22.88852500915527 7.108687400817871 28.06830024719238 4.917825222015381 C 33.43022537231445 2.649924993515015 39.12687683105469 1.5 45 1.5 C 50.87312316894531 1.5 56.56977462768555 2.649924993515015 61.93170166015625 4.917825222015381 C 67.11147308349609 7.108687400817871 71.76370239257812 10.24541282653809 75.75914764404297 14.2408504486084 C 79.75458526611328 18.23629951477051 82.89131164550781 22.88852500915527 85.08217620849609 28.06830024719238 C 87.35007476806641 33.43022537231445 88.5 39.12687683105469 88.5 45 C 88.5 50.87312316894531 87.35007476806641 56.56977462768555 85.08217620849609 61.93170166015625 C 82.89131164550781 67.11147308349609 79.75458526611328 71.76370239257812 75.75914764404297 75.75914764404297 C 71.76370239257812 79.75458526611328 67.11147308349609 82.89131164550781 61.93170166015625 85.08217620849609 C 56.56977462768555 87.35007476806641 50.87312316894531 88.5 45 88.5 Z" stroke="none"/>
          <path d="M 45 3 C 39.32871246337891 3 33.82865524291992 4.110054016113281 28.65262985229492 6.299339294433594 C 23.65165710449219 8.414573669433594 19.15968322753906 11.44334411621094 15.301513671875 15.301513671875 C 11.44334411621094 19.15968322753906 8.414573669433594 23.65165710449219 6.299339294433594 28.65262985229492 C 4.110054016113281 33.82865524291992 3 39.32871246337891 3 45 C 3 50.67128753662109 4.110054016113281 56.17134475708008 6.299339294433594 61.34737396240234 C 8.414573669433594 66.34834289550781 11.44334411621094 70.84031677246094 15.301513671875 74.698486328125 C 19.15968322753906 78.55665588378906 23.65165710449219 81.58542633056641 28.65262985229492 83.70066070556641 C 33.82865524291992 85.88994598388672 39.32871246337891 87 45 87 C 50.67128753662109 87 56.17134475708008 85.88994598388672 61.34737396240234 83.70066070556641 C 66.34834289550781 81.58542633056641 70.84031677246094 78.55665588378906 74.698486328125 74.698486328125 C 78.55665588378906 70.84031677246094 81.58542633056641 66.34834289550781 83.70066070556641 61.34737396240234 C 85.88994598388672 56.17134475708008 87 50.67128753662109 87 45 C 87 39.32871246337891 85.88994598388672 33.82865524291992 83.70066070556641 28.65262985229492 C 81.58542633056641 23.65165710449219 78.55665588378906 19.15968322753906 74.698486328125 15.301513671875 C 70.84031677246094 11.44334411621094 66.34834289550781 8.414573669433594 61.34737396240234 6.299339294433594 C 56.17134475708008 4.110054016113281 50.67128753662109 3 45 3 M 45 0 C 69.85281372070312 0 90 20.14718627929688 90 45 C 90 69.85281372070312 69.85281372070312 90 45 90 C 20.14718627929688 90 0 69.85281372070312 0 45 C 0 20.14718627929688 20.14718627929688 0 45 0 Z" stroke="none" fill="#586577"/>
        </g>
      </g>
    </g>
    <g id="consistency_12855609" transform="translate(628.597 1567.334)">
      <g id="Group_1143863" data-name="Group 1143863" transform="translate(16.875 16.877)">
        <g id="Group_1143861" data-name="Group 1143861" transform="translate(0)">
          <path id="Path_906009" data-name="Path 906009" d="M107.482,82.031a21,21,0,0,1,6.155,2.551l4-1.774,4.712,4.712-1.774,4a21,21,0,0,1,2.551,6.155l4.081,1.571v6.667l-4.081,1.571a21.011,21.011,0,0,1-2.551,6.152l1.774,4-4.712,4.715-4-1.777a21,21,0,0,1-6.155,2.554l-1.571,4.078H99.244l-1.571-4.081a21.014,21.014,0,0,1-6.153-2.551l-4,1.777L82.8,117.637l1.777-4a21.065,21.065,0,0,1-2.554-6.155l-4.078-1.571V99.247l4.078-1.571a21,21,0,0,1,2.554-6.155l-1.777-4,4.716-4.712,4,1.774a21.067,21.067,0,0,1,6.155-2.551l1.571-4.081h6.667Z" transform="translate(-77.95 -77.95)" fill="#ffe177" fill-rule="evenodd"/>
          <path id="Path_906010" data-name="Path 906010" d="M171.832,83.4l1.344-.6,4.712,4.712-1.774,4a21,21,0,0,1,2.551,6.155l4.081,1.571v6.667l-4.081,1.571a21.01,21.01,0,0,1-2.551,6.152l1.774,4-4.712,4.715-1.344-.6,4.119-4.119-1.777-4a21.008,21.008,0,0,0,2.551-6.152l4.081-1.571V99.247l-4.081-1.571a20.992,20.992,0,0,0-2.551-6.155l1.777-4Zm-29.369,0,.6-.6,4,1.774c-.282.157-.561.32-.835.492Zm20.558-1.373a21,21,0,0,1,6.155,2.551l-1.1.492a27.473,27.473,0,0,0-6.993-3.043l-1.571-4.081h1.94Zm-15.962,38.544-4,1.777-.6-.6,3.758-1.67Q146.631,120.339,147.059,120.575Zm22.117,0a21,21,0,0,1-6.155,2.554l-1.571,4.078h-1.94l1.571-4.078a27.537,27.537,0,0,0,7-3.043Z" transform="translate(-133.489 -77.95)" fill="#ffd064" fill-rule="evenodd"/>
        </g>
        <g id="Group_1143862" data-name="Group 1143862" transform="translate(8.757 8.758)">
          <path id="Path_906011" data-name="Path 906011" d="M156.772,172.649a15.871,15.871,0,1,0-15.872-15.87A15.9,15.9,0,0,0,156.772,172.649Z" transform="translate(-140.9 -140.907)" fill="#eceff1" fill-rule="evenodd"/>
          <path id="Path_906012" data-name="Path 906012" d="M143.723,156.779a15.869,15.869,0,0,0,14.46,15.808q-.7.062-1.412.062a15.928,15.928,0,0,1-2.272-.161c-.1-.013-.191-.028-.285-.043a15.873,15.873,0,0,1,2.557-31.538q.714,0,1.412.062A15.872,15.872,0,0,0,143.723,156.779Z" transform="translate(-140.9 -140.907)" fill="#d1d1d6" fill-rule="evenodd"/>
          <path id="Path_906013" data-name="Path 906013" d="M186.8,266a11.089,11.089,0,0,0-11.021,9.892,15.867,15.867,0,0,0,22.039,0A11.084,11.084,0,0,0,186.8,266Z" transform="translate(-170.924 -248.601)" fill="#8ac9fe" fill-rule="evenodd"/>
          <path id="Path_906014" data-name="Path 906014" d="M244.866,266.093c6.6.838,9.255,5.83,9.866,11.812a15.764,15.764,0,0,0,2.563-2.01A11.084,11.084,0,0,0,246.276,266,10.928,10.928,0,0,0,244.866,266.093Z" transform="translate(-230.404 -248.601)" fill="#60b7ff" fill-rule="evenodd"/>
          <path id="Path_906015" data-name="Path 906015" d="M220.323,190.627a5.6,5.6,0,1,0-5.6-5.6A5.615,5.615,0,0,0,220.323,190.627Z" transform="translate(-204.451 -174.064)" fill="#f6dccd" fill-rule="evenodd"/>
          <path id="Path_906016" data-name="Path 906016" d="M254.831,185.024a5.6,5.6,0,0,1-4.9,5.56,5.805,5.805,0,0,0,.7.043,5.6,5.6,0,1,0,0-11.206,5.833,5.833,0,0,0-.7.043A5.6,5.6,0,0,1,254.831,185.024Z" transform="translate(-234.766 -174.064)" fill="#f1cbbc" fill-rule="evenodd"/>
        </g>
      </g>
      <path id="Path_906017" data-name="Path 906017" d="M47.241,20.027a22.062,22.062,0,0,1,5.4,2.237L56.11,20.72a1.113,1.113,0,0,1,1.239.23l4.711,4.711a1.113,1.113,0,0,1,.23,1.238l-1.538,3.472a22.022,22.022,0,0,1,2.238,5.405l3.541,1.363a1.113,1.113,0,0,1,.713,1.039v6.663a1.113,1.113,0,0,1-.713,1.039l-3.541,1.363a22.249,22.249,0,0,1-2.238,5.4l1.539,3.474a1.113,1.113,0,0,1-.23,1.238l-4.711,4.711a1.113,1.113,0,0,1-1.238.231L52.64,60.754a22,22,0,0,1-5.4,2.237l-1.363,3.542a1.113,1.113,0,0,1-1.039.713H38.176a1.113,1.113,0,0,1-1.039-.713l-1.363-3.541a22.207,22.207,0,0,1-5.4-2.238L26.9,62.292a1.113,1.113,0,0,1-1.238-.231l-4.711-4.711a1.113,1.113,0,0,1-.23-1.239l1.543-3.471a22.2,22.2,0,0,1-2.241-5.4l-3.543-1.364a1.113,1.113,0,0,1-.713-1.039V38.177a1.113,1.113,0,0,1,.713-1.039l3.543-1.363a22.218,22.218,0,0,1,2.242-5.4L20.719,26.9a1.113,1.113,0,0,1,.23-1.239l4.711-4.711a1.113,1.113,0,0,1,1.239-.23l3.472,1.544a22.062,22.062,0,0,1,5.4-2.237l1.369-3.549a1.113,1.113,0,0,1,1.038-.712h6.663a1.113,1.113,0,0,1,1.039.714Zm-1.871,1.337-1.3-3.373H38.939l-1.3,3.374a1.113,1.113,0,0,1-.781.682,19.84,19.84,0,0,0-5.827,2.415,1.113,1.113,0,0,1-1.036.069l-3.3-1.468-3.63,3.63,1.468,3.3a1.113,1.113,0,0,1-.069,1.036,20.008,20.008,0,0,0-2.422,5.836,1.113,1.113,0,0,1-.682.779l-3.367,1.3v5.135l3.367,1.3a1.113,1.113,0,0,1,.682.778,19.964,19.964,0,0,0,2.421,5.829,1.113,1.113,0,0,1,.07,1.037l-1.468,3.3,3.631,3.63,3.3-1.462a1.113,1.113,0,0,1,1.032.069,19.983,19.983,0,0,0,5.835,2.416,1.113,1.113,0,0,1,.782.683l1.3,3.367h5.135l1.3-3.367a1.113,1.113,0,0,1,.781-.683,19.773,19.773,0,0,0,5.825-2.414,1.113,1.113,0,0,1,1.036-.071l3.3,1.462,3.631-3.631-1.462-3.3a1.113,1.113,0,0,1,.069-1.032,20.024,20.024,0,0,0,2.416-5.829,1.113,1.113,0,0,1,.683-.781l3.367-1.3V38.941l-3.367-1.3a1.113,1.113,0,0,1-.683-.782,19.81,19.81,0,0,0-2.414-5.833A1.113,1.113,0,0,1,58.484,30l1.462-3.3-3.63-3.63-3.3,1.468a1.113,1.113,0,0,1-1.036-.069,19.841,19.841,0,0,0-5.827-2.415,1.113,1.113,0,0,1-.781-.684ZM41.5,24.524A16.981,16.981,0,1,1,24.523,41.506,16.98,16.98,0,0,1,41.5,24.524Zm11.66,26.027a14.756,14.756,0,1,0-23.32,0,12.228,12.228,0,0,1,7.461-7.883,6.717,6.717,0,1,1,8.4,0,12.228,12.228,0,0,1,7.461,7.883Zm-21.5,1.956a14.758,14.758,0,0,0,19.671,0,9.966,9.966,0,0,0-19.671,0ZM41.5,41.925a4.491,4.491,0,1,0-4.491-4.491A4.5,4.5,0,0,0,41.5,41.925ZM26.646,70.186A32.451,32.451,0,0,0,59.834,68.1,1.113,1.113,0,1,1,61.1,69.93a34.69,34.69,0,0,1-35.545,2.2l.718,1.285A1.113,1.113,0,0,1,24.329,74.5l-2.76-4.939a1.113,1.113,0,0,1,.987-1.655l5.658.08a1.113,1.113,0,1,1-.031,2.225ZM70.109,56.508A32.449,32.449,0,0,0,68.1,23.176a1.113,1.113,0,0,1,1.831-1.265,34.691,34.691,0,0,1,2.263,35.418l1.15-.67a1.113,1.113,0,1,1,1.12,1.923L69.573,61.43a1.113,1.113,0,0,1-1.673-.957l-.023-5.658a1.113,1.113,0,1,1,2.226-.009ZM57.282,10.8l-.652-1.1A1.113,1.113,0,1,1,58.546,8.56l2.879,4.871a1.113,1.113,0,0,1-.947,1.679l-5.658.057a1.113,1.113,0,1,1-.023-2.226l1.754-.018a32.451,32.451,0,0,0-33.377,1.989,1.113,1.113,0,1,1-1.265-1.831A34.692,34.692,0,0,1,57.282,10.8ZM10.922,25.481l-1.366.743a1.113,1.113,0,0,1-1.063-1.955l4.97-2.7a1.113,1.113,0,0,1,1.644,1.006l-.144,5.656a1.113,1.113,0,1,1-2.225-.057l.036-1.428a32.453,32.453,0,0,0,2.136,33.093A1.113,1.113,0,1,1,13.079,61.1a34.69,34.69,0,0,1-2.157-35.62Z" transform="translate(0 0)" fill-rule="evenodd"/>
    </g>
  </g>
</svg>
