<svg xmlns="http://www.w3.org/2000/svg" xmlns:xlink="http://www.w3.org/1999/xlink" width="108" height="108" viewBox="0 0 108 108">
  <defs>
    <filter id="Ellipse_11513" x="0" y="0" width="108" height="108" filterUnits="userSpaceOnUse">
      <feOffset dy="3" input="SourceAlpha"/>
      <feGaussianBlur stdDeviation="3" result="blur"/>
      <feFlood flood-opacity="0.161"/>
      <feComposite operator="in" in2="blur"/>
      <feComposite in="SourceGraphic"/>
    </filter>
  </defs>
  <g id="Group_1145300" data-name="Group 1145300" transform="translate(1.194 6)">
    <g id="Group_1144418" data-name="Group 1144418" transform="translate(7.806)">
      <g transform="matrix(1, 0, 0, 1, -9, -6)" filter="url(#Ellipse_11513)">
        <g id="Ellipse_11513-2" data-name="Ellipse 11513" transform="translate(9 6)" fill="#ebf0f7" stroke="#586577" stroke-width="3">
          <circle cx="45" cy="45" r="45" stroke="none"/>
          <circle cx="45" cy="45" r="43.5" fill="none"/>
        </g>
      </g>
    </g>
    <g id="_39._Reproduction" data-name="39. Reproduction" transform="translate(0 10.148)">
      <circle id="Ellipse_11671" data-name="Ellipse 11671" cx="32.501" cy="32.501" r="32.501" transform="translate(20.312 1.354)" fill="#e0c3aa"/>
      <path id="Path_907793" data-name="Path 907793" d="M152.506,218.47A32.5,32.5,0,0,1,120.069,188a32.5,32.5,0,1,0,64.874,0A32.5,32.5,0,0,1,152.506,218.47Z" transform="translate(-99.692 -156.176)" fill="#d0a37f"/>
      <path id="Path_907794" data-name="Path 907794" d="M161.477,62.687a1.354,1.354,0,0,1,.494-1.85,31.15,31.15,0,1,0-46.614-29.578,1.355,1.355,0,0,1-2.7-.223A33.857,33.857,0,1,1,163.32,63.184,1.354,1.354,0,0,1,161.477,62.687Z" transform="translate(-93.584 0)"/>
      <path id="Path_907795" data-name="Path 907795" d="M113.476,217.367a1.354,1.354,0,1,1,2.686-.339,31.183,31.183,0,0,0,39.992,25.9,1.355,1.355,0,0,1,.789,2.592,33.891,33.891,0,0,1-43.467-28.153Z" transform="translate(-94.256 -179.28)"/>
      <circle id="Ellipse_11672" data-name="Ellipse 11672" cx="25.73" cy="25.73" r="25.73" transform="translate(27.084 8.125)" fill="#e38499"/>
      <path id="Path_907796" data-name="Path 907796" d="M185.726,211.7A25.73,25.73,0,0,1,160.075,188a25.731,25.731,0,1,0,51.3,0A25.73,25.73,0,0,1,185.726,211.7Z" transform="translate(-132.912 -156.172)" fill="#db4e6c"/>
      <path id="Path_907797" data-name="Path 907797" d="M179.084,94.169a27.084,27.084,0,1,1,27.084-27.084A27.116,27.116,0,0,1,179.084,94.169Zm0-51.46A24.376,24.376,0,1,0,203.46,67.084,24.4,24.4,0,0,0,179.084,42.708Z" transform="translate(-126.271 -33.229)"/>
      <path id="Path_907798" data-name="Path 907798" d="M122.272,344.752l-4.46,4.46a1.354,1.354,0,0,1-1.915,0l-3.5-3.5a1.354,1.354,0,0,1,0-1.915l4.46-4.46Z" transform="translate(-93.041 -281.897)" fill="#a8edfd"/>
      <path id="Path_907799" data-name="Path 907799" d="M108.3,343.505l-3.5-3.5a2.708,2.708,0,0,1,0-3.831l4.454-4.459a1.354,1.354,0,0,1,1.915,0l5.417,5.417a1.354,1.354,0,0,1,0,1.915l-4.454,4.459A2.708,2.708,0,0,1,108.3,343.505Zm1.916-8.918-3.5,3.5,3.5,3.5,3.5-3.5Z" transform="translate(-86.398 -275.234)"/>
      <path id="Path_907800" data-name="Path 907800" d="M146.494,259.537c4.232-4.23,8.76-15.616,4.528-19.848s-15.618.3-19.848,4.528a10.833,10.833,0,1,0,15.32,15.32Z" transform="translate(-106.334 -197.709)" fill="#a8edfd"/>
      <path id="Path_907801" data-name="Path 907801" d="M146.533,280a10.834,10.834,0,0,1-18.324-5.8,10.834,10.834,0,0,0,18.331,9.522c3.4-3.394,6.981-11.4,6.079-16.613A25.375,25.375,0,0,1,146.533,280Z" transform="translate(-106.373 -221.894)" fill="#8bd4de"/>
      <path id="Path_907802" data-name="Path 907802" d="M123.6,253.895a12.2,12.2,0,0,1,0-17.236c4.648-4.648,16.821-9.471,21.764-4.528,4.972,4.973.049,17.187-4.528,21.764A12.2,12.2,0,0,1,123.6,253.895Zm1.915-15.321a9.48,9.48,0,0,0,13.407,13.407,23.643,23.643,0,0,0,5.094-9.344c1.146-3.953.939-7.084-.567-8.589C140.005,230.606,129.466,234.623,125.515,238.574Z" transform="translate(-99.718 -191.108)"/>
      <path id="Path_907803" data-name="Path 907803" d="M1.358,405.629a1.354,1.354,0,0,1-.372-2.656l3.724-1.066A5.586,5.586,0,0,0,8.745,395.8a8.347,8.347,0,0,1,4.548-8.488l6.417-3.216a1.355,1.355,0,1,1,1.212,2.424l-6.417,3.215a5.632,5.632,0,0,0-3.066,5.737,8.3,8.3,0,0,1-5.981,9.039c-4.027,1.149-3.839,1.117-4.1,1.117Z" transform="translate(-0.005 -318.958)"/>
      <path id="Path_907804" data-name="Path 907804" d="M25.325,180.132a1.354,1.354,0,0,1-.508-2.612l2.1-.838a9.491,9.491,0,0,0,5.486-5.818,12.13,12.13,0,0,1,4.486-6.074l6.6-4.719a1.354,1.354,0,1,1,1.574,2.2l-6.6,4.719a9.436,9.436,0,0,0-3.485,4.73,12.188,12.188,0,0,1-7.049,7.475c-2.262.9-2.262.936-2.6.936Z" transform="translate(-19.909 -132.735)"/>
      <path id="Path_907805" data-name="Path 907805" d="M121.245,140.345c2.114-2.116,3.7-7.132,1.586-9.248s-7.132-.528-9.248,1.586a5.417,5.417,0,0,0,7.661,7.661Z" transform="translate(-93.039 -108.075)" fill="#a8edfd"/>
      <path id="Path_907806" data-name="Path 907806" d="M121.235,146.269a5.417,5.417,0,0,1-8.853-1.8,5.417,5.417,0,0,0,8.853,5.862c1.821-1.821,3.248-5.793,2.26-8.212A9.785,9.785,0,0,1,121.235,146.269Z" transform="translate(-93.029 -118.062)" fill="#8bd4de"/>
      <path id="Path_907807" data-name="Path 907807" d="M110.778,136.624a6.771,6.771,0,0,1-4.787-11.558,11.321,11.321,0,0,1,5.287-2.746c5.141-1.143,8.178,1.884,7.033,7.033a10.84,10.84,0,0,1-2.746,5.287A6.72,6.72,0,0,1,110.778,136.624Zm2.539-11.831a8.661,8.661,0,0,0-5.417,2.187,4.068,4.068,0,1,0,5.755,5.75,8.611,8.611,0,0,0,2.016-3.959c.339-1.518.169-2.769-.43-3.372A2.694,2.694,0,0,0,113.317,124.793Z" transform="translate(-86.403 -101.414)"/>
      <path id="Path_907808" data-name="Path 907808" d="M233.343,381.451a1.354,1.354,0,0,1-1.258-1.862l.846-2.1a12.188,12.188,0,0,1,7.469-7.044,9.436,9.436,0,0,0,4.726-3.491l4.719-6.6a1.354,1.354,0,1,1,2.2,1.574l-4.719,6.6a12.131,12.131,0,0,1-6.074,4.486,9.491,9.491,0,0,0-5.818,5.486l-.835,2.1a1.354,1.354,0,0,1-1.258.846Z" transform="translate(-192.717 -298.844)"/>
      <path id="Path_907809" data-name="Path 907809" d="M313.583,332.683c2.116-2.114,7.132-3.7,9.248-1.586s.528,7.132-1.586,9.248a5.417,5.417,0,0,1-7.661-7.662Z" transform="translate(-259.183 -274.22)" fill="#a8edfd"/>
      <path id="Path_907810" data-name="Path 907810" d="M321.238,345.759a5.417,5.417,0,0,1-8.818-1.715,5.417,5.417,0,0,0,8.818,5.947c1.838-1.838,3.279-5.862,2.233-8.281A9.758,9.758,0,0,1,321.238,345.759Z" transform="translate(-259.177 -283.866)" fill="#8bd4de"/>
      <path id="Path_907811" data-name="Path 907811" d="M310.778,336.624a6.771,6.771,0,0,1-4.787-11.558,10.9,10.9,0,0,1,5.287-2.746c5.141-1.143,8.178,1.884,7.033,7.034a11.32,11.32,0,0,1-2.746,5.286,6.722,6.722,0,0,1-4.787,1.984Zm2.539-11.831a8.66,8.66,0,0,0-5.417,2.187,4.008,4.008,0,0,0-1.185,2.878,4.063,4.063,0,0,0,6.94,2.878,8.611,8.611,0,0,0,2.016-3.959c.339-1.518.169-2.769-.43-3.372A2.672,2.672,0,0,0,313.317,324.793Z" transform="translate(-252.547 -267.559)"/>
      <circle id="Ellipse_11673" data-name="Ellipse 11673" cx="10.834" cy="10.834" r="10.834" transform="translate(47.397 17.605)" fill="#ead590"/>
      <path id="Path_907812" data-name="Path 907812" d="M290.832,164.8a10.834,10.834,0,0,1-10.641-8.8,10.834,10.834,0,1,0,21.281,0A10.834,10.834,0,0,1,290.832,164.8Z" transform="translate(-232.602 -129.593)" fill="#f1cb66"/>
      <path id="Path_907813" data-name="Path 907813" d="M284.188,120.376a12.188,12.188,0,1,1,12.188-12.188A12.188,12.188,0,0,1,284.188,120.376Zm0-21.668a9.48,9.48,0,1,0,9.48,9.48,9.48,9.48,0,0,0-9.48-9.48Z" transform="translate(-225.957 -79.749)"/>
      <circle id="Ellipse_11674" data-name="Ellipse 11674" cx="4.063" cy="4.063" r="4.063" transform="translate(55.522 23.022)" fill="#e9a648"/>
      <path id="Path_907814" data-name="Path 907814" d="M325.417,138.834a5.417,5.417,0,1,1,5.417-5.417A5.417,5.417,0,0,1,325.417,138.834Zm0-8.125a2.708,2.708,0,1,0,2.708,2.708A2.708,2.708,0,0,0,325.417,130.708Z" transform="translate(-265.832 -106.332)"/>
      <path id="Path_907815" data-name="Path 907815" d="M233.354,122.708a1.354,1.354,0,1,1,1.354-1.354A1.354,1.354,0,0,1,233.354,122.708Z" transform="translate(-192.728 -99.687)"/>
      <path id="Path_907816" data-name="Path 907816" d="M305.354,282.708a1.354,1.354,0,1,1,1.354-1.354A1.354,1.354,0,0,1,305.354,282.708Z" transform="translate(-252.54 -232.602)"/>
      <path id="Path_907817" data-name="Path 907817" d="M393.354,266.708a1.354,1.354,0,1,1,1.354-1.354A1.354,1.354,0,0,1,393.354,266.708Z" transform="translate(-325.644 -219.311)"/>
    </g>
  </g>
</svg>
