<svg xmlns="http://www.w3.org/2000/svg" xmlns:xlink="http://www.w3.org/1999/xlink" width="86" height="86" viewBox="0 0 86 86">
  <defs>
    <filter id="Ellipse_11513" x="0" y="0" width="86" height="86" filterUnits="userSpaceOnUse">
      <feOffset dy="3" input="SourceAlpha"/>
      <feGaussianBlur stdDeviation="3" result="blur"/>
      <feFlood flood-opacity="0.161"/>
      <feComposite operator="in" in2="blur"/>
      <feComposite in="SourceGraphic"/>
    </filter>
  </defs>
  <g id="Group_1144073" data-name="Group 1144073" transform="translate(-186 -1382.59)">
    <g id="Group_1143819" data-name="Group 1143819" transform="translate(-631 932.59)">
      <g id="Group_1143465" data-name="Group 1143465" transform="translate(630 -707)">
        <g transform="matrix(1, 0, 0, 1, 187, 1157)" filter="url(#Ellipse_11513)">
          <g id="Ellipse_11513-2" data-name="Ellipse 11513" transform="translate(9 6)" fill="#ede9fb" stroke="#301a7b" stroke-width="3">
            <circle cx="34" cy="34" r="34" stroke="none"/>
            <circle cx="34" cy="34" r="32.5" fill="none"/>
          </g>
        </g>
      </g>
    </g>
    <g id="Support_hand_grown_brain_think" transform="translate(202.082 1393.684)">
      <path id="Path_905961" data-name="Path 905961" d="M55.268,40.1,27.07,56.464a3.692,3.692,0,0,1-1.839.494H12.66L9,56.053V41.4l3.66-1.83h18.3A3.66,3.66,0,0,1,34,45.275l18.546-9.909a2.73,2.73,0,1,1,2.727,4.73Z" transform="translate(-0.595 -2.892)" fill="#ffb655"/>
      <g id="Group_1143847" data-name="Group 1143847" transform="translate(8.405 32.109)">
        <path id="Path_905962" data-name="Path 905962" d="M34.124,45.49a3.641,3.641,0,0,0-3.166-1.83H12.66L9,45.49V41.83L12.66,40h18.3a3.654,3.654,0,0,1,3.166,5.49Z" transform="translate(-9 -35.427)" fill="#ff9811"/>
        <path id="Path_905963" data-name="Path 905963" d="M58.242,39.566a2.719,2.719,0,0,0-3.376-.54L36.32,48.935a3.66,3.66,0,0,0,.192-3.76l18.354-9.808a2.727,2.727,0,0,1,3.376,4.2Z" transform="translate(-11.324 -35.001)" fill="#ff9811"/>
        <path id="Path_905964" data-name="Path 905964" d="M36.524,46.11c-.018-.037-.046-.073-.064-.11" transform="translate(-11.336 -35.937)" fill="#ff9811"/>
      </g>
      <path id="Path_905965" data-name="Path 905965" d="M51.4,23,45,27.007V23.046c.3-.027.6-.046.915-.046Z" transform="translate(-3.658 -1.871)" fill="#7ed63e"/>
      <path id="Path_905966" data-name="Path 905966" d="M45,27.007,51.4,23a9.129,9.129,0,0,1-2.9,6.679l-3.5-2.1Z" transform="translate(-3.658 -1.871)" fill="#5eac24"/>
      <path id="Path_905967" data-name="Path 905967" d="M44.66,27.947l3.5,2.1a9.077,9.077,0,0,1-3.916,2.168L41,29.777v-.11l3.66-2.287Z" transform="translate(-3.317 -2.244)" fill="#7ed63e"/>
      <path id="Path_905968" data-name="Path 905968" d="M44.66,23.05v3.962L41,29.3V24.23a9.077,9.077,0,0,1,3.66-1.18Z" transform="translate(-3.317 -1.876)" fill="#5eac24"/>
      <path id="Path_905969" data-name="Path 905969" d="M40.575,29.99l3.248,2.443a8.914,8.914,0,0,1-2.333.3H36l4.575-2.855Z" transform="translate(-2.892 -2.457)" fill="#5eac24"/>
      <path id="Path_905970" data-name="Path 905970" d="M39.082,14.52a3.551,3.551,0,0,1,.238,1.29,3.66,3.66,0,1,1-7.319,0V6.661a3.346,3.346,0,0,1,.119-.915,3.66,3.66,0,0,1,7.2.915,3.551,3.551,0,0,1-.238,1.29,3.642,3.642,0,0,1,0,6.569Z" transform="translate(-2.552 -0.171)" fill="#fee9ab"/>
      <path id="Path_905971" data-name="Path 905971" d="M39.251,14.519a3.551,3.551,0,0,1,.238,1.29A3.654,3.654,0,0,1,34,18.975a3.641,3.641,0,0,0,1.83-3.166,3.551,3.551,0,0,0-.238-1.29,3.642,3.642,0,0,0,0-6.569,3.551,3.551,0,0,0,.238-1.29A3.639,3.639,0,0,0,33.99,3.494a3.66,3.66,0,0,1,5.5,3.166,3.551,3.551,0,0,1-.238,1.29,3.642,3.642,0,0,1,0,6.569Z" transform="translate(-2.721 -0.17)" fill="#ffde55"/>
      <path id="Path_905972" data-name="Path 905972" d="M40.575,24.34v5.069L36,32.263a9.143,9.143,0,0,1,4.575-7.923Z" transform="translate(-2.892 -1.985)" fill="#7ed63e"/>
      <path id="Path_905973" data-name="Path 905973" d="M31.149,6.661V15.81a3.66,3.66,0,1,1-7.319,0,3.551,3.551,0,0,1,.238-1.29,3.642,3.642,0,0,1,0-6.569,3.551,3.551,0,0,1-.238-1.29,3.66,3.66,0,0,1,7.2-.915,3.346,3.346,0,0,1,.119.915Z" transform="translate(-1.701 -0.171)" fill="#fee9ab"/>
      <path id="Path_905974" data-name="Path 905974" d="M27.273,31.735h-5.49a8.914,8.914,0,0,1-2.333-.3L22.7,28.99v-.11Z" transform="translate(-1.484 -2.372)" fill="#5eac24"/>
      <path id="Path_905975" data-name="Path 905975" d="M27.575,31.263,23,28.409V23.34a9.143,9.143,0,0,1,4.575,7.923Z" transform="translate(-1.786 -1.9)" fill="#7ed63e"/>
      <path id="Path_905976" data-name="Path 905976" d="M22.312,28.667v.11L19.064,31.22a9.212,9.212,0,0,1-4.154-2.4l3.742-1.876V26.38Z" transform="translate(-1.098 -2.159)" fill="#7ed63e"/>
      <path id="Path_905977" data-name="Path 905977" d="M22.66,23.23V28.3L19,26.012V22.05a9.077,9.077,0,0,1,3.66,1.18Z" transform="translate(-1.446 -1.791)" fill="#5eac24"/>
      <path id="Path_905978" data-name="Path 905978" d="M18.4,26.007v.567L14.662,28.45A9.116,9.116,0,0,1,12,22Z" transform="translate(-0.851 -1.786)" fill="#5eac24"/>
      <path id="Path_905979" data-name="Path 905979" d="M18.4,22.046v3.962L12,22h5.49C17.8,22,18.1,22.018,18.4,22.046Z" transform="translate(-0.851 -1.786)" fill="#7ed63e"/>
      <rect id="Rectangle_405167" data-name="Rectangle 405167" width="5.49" height="20.129" rx="2" transform="translate(2.915 35.768)" fill="#2488ff"/>
      <path id="Path_905980" data-name="Path 905980" d="M8.617,40.83V57.3a1.835,1.835,0,0,1-1.83,1.83H4.957a1.536,1.536,0,0,1-.457-.064A1.83,1.83,0,0,0,5.872,57.3V40.83A1.83,1.83,0,0,0,4.5,39.064,1.536,1.536,0,0,1,4.957,39h1.83A1.835,1.835,0,0,1,8.617,40.83Z" transform="translate(-0.213 -3.232)" fill="#005ece"/>
      <path id="Path_905981" data-name="Path 905981" d="M56.457,33.1a3.651,3.651,0,0,0-4.941-1.345l-16.6,8.866c0-.064.018-.128.018-.192a4.575,4.575,0,0,0-4.575-4.575V31.992l2.855-.714H38.6A10.071,10.071,0,0,0,48.662,21.214a.915.915,0,0,0-.915-.915h-5.49A10.064,10.064,0,0,0,32.23,29.64l-1.866.467V19.356a4.505,4.505,0,0,0,2.745.942,4.575,4.575,0,0,0,4.575-4.575,3.95,3.95,0,0,0-.091-.869A4.54,4.54,0,0,0,37.6,7.444a4.567,4.567,0,0,0-8.152-3.6,4.566,4.566,0,0,0-8.234,2.727,3.951,3.951,0,0,0,.091.869,4.54,4.54,0,0,0-.009,7.411A4.579,4.579,0,0,0,25.788,20.3a4.505,4.505,0,0,0,2.745-.942V29.8l-1.857-.924a10.073,10.073,0,0,0-10.037-9.488h-5.49a.915.915,0,0,0-.915.915A10.071,10.071,0,0,0,20.3,30.363h5.27l2.964,1.482v4.007H12.064a.915.915,0,0,0-.412.1L9.265,37.143a2.745,2.745,0,0,0-2.69-2.2H4.745A2.753,2.753,0,0,0,2,37.682V54.151A2.753,2.753,0,0,0,4.745,56.9h1.83a2.735,2.735,0,0,0,2.717-2.489l2.553.631a.9.9,0,0,0,.22.027H24.636a4.642,4.642,0,0,0,2.3-.613l28.2-16.368A3.66,3.66,0,0,0,56.457,33.1ZM44.7,26.731,42.623,25.5l4.017-2.507a8.257,8.257,0,0,1-1.94,3.742Zm-2.443-4.6h2.3l-2.3,1.436ZM43.245,28A8.45,8.45,0,0,1,41.1,29.045L39.21,27.627l1.674-1.043ZM38.6,22.989a8.364,8.364,0,0,1,1.83-.65v2.37L38.6,25.852Zm0,6.459H36.3l1.253-.787Zm-1.83-5.215V27l-2.553,1.592a8.257,8.257,0,0,1,2.553-4.355Zm-6.4-17.658a2.392,2.392,0,0,1,.091-.686,2.745,2.745,0,0,1,5.4.686c0,.037-.009.064-.009.1a4.661,4.661,0,0,0-3.193.512l.915,1.592a2.677,2.677,0,0,1,2.571-.091,2.732,2.732,0,0,1-.018,4.932,2.7,2.7,0,0,1-2.553-.1l-.915,1.592a4.609,4.609,0,0,0,2.287.613,4.9,4.9,0,0,0,.906-.091c0,.027.009.055.009.091a2.745,2.745,0,0,1-5.49,0ZM16.639,21.214V22.65l-2.3-1.436Zm-4.383.86,3.934,2.452-2.159,1.089a8.26,8.26,0,0,1-1.775-3.541Zm5.535,6.057a7.894,7.894,0,0,1-2.333-1.18l2.507-1.263c.018-.009.027-.018.046-.027l1.674,1.052Zm.677-4.337v-2.37a8.364,8.364,0,0,1,1.83.65v2.864Zm1.83,4.739,1.052-.787,1.253.787Zm1.83-2.452V23.318a8.257,8.257,0,0,1,2.553,4.355ZM7.49,54.151a.915.915,0,0,1-.915.915H4.745a.915.915,0,0,1-.915-.915V37.682a.915.915,0,0,1,.915-.915h1.83a.915.915,0,0,1,.915.915Zm18.3-35.683a2.753,2.753,0,0,1-2.745-2.745c0-.037.009-.064.009-.091a4.9,4.9,0,0,0,.906.091,4.609,4.609,0,0,0,2.287-.613l-.915-1.592a2.677,2.677,0,0,1-2.571.091,2.732,2.732,0,0,1,.018-4.932,2.7,2.7,0,0,1,2.553.1l.915-1.592a4.666,4.666,0,0,0-3.193-.512c0-.037-.009-.064-.009-.1a2.745,2.745,0,0,1,5.407-.668,2.519,2.519,0,0,1,.082.668v9.149a2.753,2.753,0,0,1-2.745,2.745ZM54.215,36.5l-28.2,16.359a2.749,2.749,0,0,1-1.382.375H12.174l-2.855-.7V39.165l2.964-1.482H30.363a2.745,2.745,0,1,1,0,5.49h-18.3V45h18.3a4.549,4.549,0,0,0,3.614-1.8L52.4,33.355A1.816,1.816,0,1,1,54.216,36.5Z" transform="translate(0 -0.085)"/>
      <path id="Path_905982" data-name="Path 905982" d="M4,1H5.83V2.83H4Z" transform="translate(-0.17)"/>
      <path id="Path_905983" data-name="Path 905983" d="M4,5H5.83V6.83H4Z" transform="translate(-0.17 -0.34)"/>
      <path id="Path_905984" data-name="Path 905984" d="M2,3H3.83V4.83H2Z" transform="translate(0 -0.17)"/>
      <path id="Path_905985" data-name="Path 905985" d="M6,3H7.83V4.83H6Z" transform="translate(-0.34 -0.17)"/>
      <path id="Path_905986" data-name="Path 905986" d="M14,5h1.83V6.83H14Z" transform="translate(-1.021 -0.34)"/>
      <path id="Path_905987" data-name="Path 905987" d="M14,9h1.83v1.83H14Z" transform="translate(-1.021 -0.681)"/>
      <path id="Path_905988" data-name="Path 905988" d="M12,7h1.83V8.83H12Z" transform="translate(-0.851 -0.51)"/>
      <path id="Path_905989" data-name="Path 905989" d="M16,7h1.83V8.83H16Z" transform="translate(-1.191 -0.51)"/>
      <path id="Path_905990" data-name="Path 905990" d="M58,1h1.83V2.83H58Z" transform="translate(-4.764)"/>
      <path id="Path_905991" data-name="Path 905991" d="M58,5h1.83V6.83H58Z" transform="translate(-4.764 -0.34)"/>
      <path id="Path_905992" data-name="Path 905992" d="M60,3h1.83V4.83H60Z" transform="translate(-4.934 -0.17)"/>
      <path id="Path_905993" data-name="Path 905993" d="M56,3h1.83V4.83H56Z" transform="translate(-4.593 -0.17)"/>
      <path id="Path_905994" data-name="Path 905994" d="M48,5h1.83V6.83H48Z" transform="translate(-3.913 -0.34)"/>
      <path id="Path_905995" data-name="Path 905995" d="M48,9h1.83v1.83H48Z" transform="translate(-3.913 -0.681)"/>
      <path id="Path_905996" data-name="Path 905996" d="M50,7h1.83V8.83H50Z" transform="translate(-4.083 -0.51)"/>
      <path id="Path_905997" data-name="Path 905997" d="M46,7h1.83V8.83H46Z" transform="translate(-3.743 -0.51)"/>
    </g>
  </g>
</svg>
