<svg xmlns="http://www.w3.org/2000/svg" xmlns:xlink="http://www.w3.org/1999/xlink" width="86" height="86" viewBox="0 0 86 86">
  <defs>
    <filter id="Ellipse_11513" x="0" y="0" width="86" height="86" filterUnits="userSpaceOnUse">
      <feOffset dy="3" input="SourceAlpha"/>
      <feGaussianBlur stdDeviation="3" result="blur"/>
      <feFlood flood-opacity="0.161"/>
      <feComposite operator="in" in2="blur"/>
      <feComposite in="SourceGraphic"/>
    </filter>
  </defs>
  <g id="Group_1145303" data-name="Group 1145303" transform="translate(-503.101 -2460)">
    <g id="Group_1143526" data-name="Group 1143526" transform="translate(316 -2939)">
      <g id="Group_1143477" data-name="Group 1143477" transform="translate(0.101 4242)">
        <g transform="matrix(1, 0, 0, 1, 187, 1157)" filter="url(#Ellipse_11513)">
          <g id="Ellipse_11513-2" data-name="Ellipse 11513" transform="translate(9 6)" fill="#fdf3d2" stroke="#f8c624" stroke-width="3">
            <circle cx="34" cy="34" r="34" stroke="none"/>
            <circle cx="34" cy="34" r="32.5" fill="none"/>
          </g>
        </g>
      </g>
    </g>
    <g id="Pregnancy" transform="translate(522.125 2476.097)">
      <g id="Filled" transform="translate(-0.154 -0.224)">
        <path id="Path_907832" data-name="Path 907832" d="M24.126,0A24.126,24.126,0,1,1,0,24.126,24.126,24.126,0,0,1,24.126,0Z" fill="#e2e9f3"/>
        <path id="Path_907818" data-name="Path 907818" d="M102.823,126.241A25.662,25.662,0,0,1,78.2,159.033a25.443,25.443,0,0,1-14.817-4.71q.7.843,1.489,1.63a24.278,24.278,0,0,0,37.948-29.712Z" transform="translate(-57.912 -114.664)" fill="#4dd0e1"/>
        <path id="Path_907819" data-name="Path 907819" d="M132.917,266.72l-2.265-2.266a1.553,1.553,0,0,0-2.2,2.2l2.4,2.4a4.369,4.369,0,0,0,6.179,0l2.4-2.4a1.553,1.553,0,0,0-2.2-2.2l-2.266,2.266A1.456,1.456,0,0,1,132.917,266.72Z" transform="translate(-116.252 -239.048)" fill="#ffe7de"/>
        <path id="Path_907820" data-name="Path 907820" d="M99.647,113.7l-.756-.8a2.137,2.137,0,0,0-3.063-.043l-3.613-2.409a2.887,2.887,0,0,0-2.882-.2,5.269,5.269,0,0,0-2.048,1.832c-2.33,0-4.621-2.33-4.621-5.118a9.71,9.71,0,1,0-10.116-2.7,13.222,13.222,0,0,0,2.253,15.56,12.951,12.951,0,0,0,9.224,3.907c5.589,0,6.348-4.12,6.366-6.213a9.763,9.763,0,0,0-.06-1.016,1.942,1.942,0,0,1,3.043-1.794l1.644,1.148a1.942,1.942,0,0,0,2.415-.152Z" transform="translate(-63.887 -80.138)" fill="#ffe7de"/>
        <circle id="Ellipse_11676" data-name="Ellipse 11676" cx="1.456" cy="1.456" r="1.456" transform="translate(37.864 28.544)" fill="#e0f7fa"/>
        <circle id="Ellipse_11677" data-name="Ellipse 11677" cx="2.184" cy="2.184" r="2.184" transform="translate(29.078 39.175)" fill="#e0f7fa"/>
        <circle id="Ellipse_11678" data-name="Ellipse 11678" cx="1.553" cy="1.553" r="1.553" transform="translate(10.194 10.194)" fill="#fff"/>
        <circle id="Ellipse_11679" data-name="Ellipse 11679" cx="0.777" cy="0.777" r="0.777" transform="translate(13.301 13.301)" fill="#fff5f2"/>
        <g id="Group_1145301" data-name="Group 1145301" transform="translate(25.728 28.835)">
          <circle id="Ellipse_11680" data-name="Ellipse 11680" cx="0.777" cy="0.777" r="0.777" transform="translate(0 1.553)" fill="#fff"/>
          <circle id="Ellipse_11681" data-name="Ellipse 11681" cx="0.777" cy="0.777" r="0.777" transform="translate(3.883 10.874)" fill="#fff"/>
          <circle id="Ellipse_11682" data-name="Ellipse 11682" cx="0.777" cy="0.777" r="0.777" transform="translate(12.427)" fill="#fff"/>
        </g>
        <path id="Path_907821" data-name="Path 907821" d="M121.777,372.653a13.35,13.35,0,0,1-17.06,2.477,13.167,13.167,0,0,0,1.427,1.707,12.951,12.951,0,0,0,9.224,3.907c5.59,0,6.348-4.12,6.366-6.213a9.782,9.782,0,0,0-.06-1.016A1.953,1.953,0,0,1,121.777,372.653Z" transform="translate(-95.23 -337.153)" fill="#f9d8cd"/>
      </g>
      <g id="Outline" transform="translate(-0.923 -1)">
        <path id="Path_907822" data-name="Path 907822" d="M133.5,261.282a3.592,3.592,0,0,1-5.08,0l-1.948-1.948a.777.777,0,0,0-1.1,1.1l1.948,1.948a5.146,5.146,0,0,0,7.277,0l2.4-2.4a2.33,2.33,0,1,0-3.3-3.3l-2.266,2.265a.68.68,0,0,1-.961,0l-2.265-2.265a2.33,2.33,0,0,0-3.3,0,.777.777,0,0,0,1.1,1.1.777.777,0,0,1,1.1,0l2.266,2.266a2.233,2.233,0,0,0,3.158,0l2.266-2.266a.777.777,0,1,1,1.1,1.1Z" transform="translate(-112.491 -231.049)"/>
        <path id="Path_907823" data-name="Path 907823" d="M93.2,106.512a.777.777,0,0,0-.212-.564l-.756-.8a2.917,2.917,0,0,0-3.665-.468l-3.145-2.1a3.672,3.672,0,0,0-3.66-.249,5.9,5.9,0,0,0-1.422.995l-.043.041c-.06.057-.119.117-.182.183a6.537,6.537,0,0,0-.7.877.777.777,0,1,0,1.292.863,4.976,4.976,0,0,1,.529-.664c.045-.047.091-.093.137-.137l.014-.013.008-.008.01-.01a4.34,4.34,0,0,1,1.049-.735,2.114,2.114,0,0,1,2.107.151l3.614,2.409a.777.777,0,0,0,.98-.1,1.36,1.36,0,0,1,1.949.027l.21.222-1.624,1.47a1.161,1.161,0,0,1-1.45.092L86.6,106.853a2.72,2.72,0,0,0-4.261,2.51,8.734,8.734,0,0,1,.056.93c-.022,2.483-1.01,5.443-5.589,5.443a12.161,12.161,0,0,1-8.673-3.677,12.443,12.443,0,0,1-2.122-14.643.777.777,0,0,0-.11-.893,8.931,8.931,0,1,1,14.353-1.606.777.777,0,1,0,1.348.771A10.485,10.485,0,1,0,64.4,97.159a14,14,0,0,0,2.633,15.994A13.7,13.7,0,0,0,76.8,117.29c2.707,0,4.7-.894,5.911-2.657a7.805,7.805,0,0,0,1.231-4.324,10.094,10.094,0,0,0-.064-1.1,1.166,1.166,0,0,1,1.826-1.08l1.644,1.149a2.707,2.707,0,0,0,3.382-.214l2.213-2a.777.777,0,0,0,.255-.546Z" transform="translate(-55.897 -72.145)"/>
        <path id="Path_907824" data-name="Path 907824" d="M411.378,434.7a.776.776,0,1,0,.585.266A.777.777,0,0,0,411.378,434.7Z" transform="translate(-370.647 -392.399)"/>
        <path id="Path_907825" data-name="Path 907825" d="M439.452,97.869a24.817,24.817,0,0,0-4.12-7.244.777.777,0,1,0-1.2.983,23.4,23.4,0,0,1,5.261,14.767v.04a23.3,23.3,0,0,1-5.891,15.434.777.777,0,1,0,1.162,1.031,24.967,24.967,0,0,0,4.6-7.512,24.679,24.679,0,0,0,1.685-8.952v-.041a24.829,24.829,0,0,0-1.491-8.506Z" transform="translate(-391.145 -81.472)"/>
        <path id="Path_907826" data-name="Path 907826" d="M287.573,117.184h4.854a3.592,3.592,0,1,0,0-7.184h-.333a.777.777,0,1,0,0,1.553h.333a2.039,2.039,0,0,1,0,4.078h-4.854a2.913,2.913,0,1,0,0,5.825h8.835a.68.68,0,1,1,0,1.359H283.689A3.689,3.689,0,0,0,280,126.5a.777.777,0,1,0,1.553,0,2.144,2.144,0,0,1,2.136-2.136h12.718a2.233,2.233,0,1,0,0-4.466h-8.835a1.359,1.359,0,0,1,0-2.718Z" transform="translate(-252.726 -99.223)"/>
        <circle id="Ellipse_11683" data-name="Ellipse 11683" cx="0.777" cy="0.777" r="0.777" transform="translate(35.485 10.777)"/>
        <path id="Path_907827" data-name="Path 907827" d="M37.343,273.37a.774.774,0,0,0-.431.131,23.189,23.189,0,0,1-12.939,3.933h-.212A23.534,23.534,0,0,1,.631,254.689a.777.777,0,0,0-.8-.757.777.777,0,0,0-.757.8v0A24.777,24.777,0,0,0,3.5,268.24a25.044,25.044,0,0,0,10.786,8.782,24.633,24.633,0,0,0,4.567,1.434,24.962,24.962,0,0,0,4.894.53h.225v0a24.73,24.73,0,0,0,13.8-4.2.777.777,0,0,0-.433-1.422Z" transform="translate(0.923 -229.182)"/>
        <path id="Path_907828" data-name="Path 907828" d="M.986,22.2a.731.731,0,0,0,.08,0,.774.774,0,0,0,.772-.7A23.268,23.268,0,0,1,25.063.553h0A23.1,23.1,0,0,1,39.618,5.641a.689.689,0,0,1-.435,1.222H29.775a2.233,2.233,0,1,0,0,4.466h3.55a.777.777,0,1,0,0-1.553h-3.55a.68.68,0,1,1,0-1.359h9.409a2.243,2.243,0,0,0,1.4-3.99A24.8,24.8,0,0,0,25.068-1h0A24.9,24.9,0,0,0,.292,21.347a.777.777,0,0,0,.694.851Z" transform="translate(-0.171 1)"/>
        <path id="Path_907829" data-name="Path 907829" d="M391.233,293a2.233,2.233,0,1,0,2.233,2.233A2.233,2.233,0,0,0,391.233,293Zm0,2.913a.68.68,0,1,1,.68-.68.68.68,0,0,1-.68.68Z" transform="translate(-351.144 -264.456)"/>
        <path id="Path_907830" data-name="Path 907830" d="M301.461,402.5a2.961,2.961,0,1,0,2.961,2.961A2.961,2.961,0,0,0,301.461,402.5Zm0,4.369a1.408,1.408,0,1,1,1.408-1.408A1.408,1.408,0,0,1,301.461,406.869Z" transform="translate(-269.43 -363.325)"/>
        <circle id="Ellipse_11684" data-name="Ellipse 11684" cx="0.777" cy="0.777" r="0.777" transform="translate(23.39 4.757)"/>
        <circle id="Ellipse_11685" data-name="Ellipse 11685" cx="0.777" cy="0.777" r="0.777" transform="translate(19.022 3.981)"/>
        <circle id="Ellipse_11686" data-name="Ellipse 11686" cx="0.777" cy="0.777" r="0.777" transform="translate(28.827 14.078)"/>
        <circle id="Ellipse_11687" data-name="Ellipse 11687" cx="0.777" cy="0.777" r="0.777" transform="translate(3.973 24.175)"/>
        <circle id="Ellipse_11688" data-name="Ellipse 11688" cx="0.777" cy="0.777" r="0.777" transform="translate(32.711 28.058)"/>
        <circle id="Ellipse_11689" data-name="Ellipse 11689" cx="0.777" cy="0.777" r="0.777" transform="translate(43.585 28.058)"/>
        <circle id="Ellipse_11690" data-name="Ellipse 11690" cx="0.777" cy="0.777" r="0.777" transform="translate(38.924 37.379)"/>
        <path id="Path_907831" data-name="Path 907831" d="M210.33,185.553a.777.777,0,1,0,0-1.553h-1.553a.777.777,0,1,0,0,1.553Z" transform="translate(-187.716 -166.039)"/>
      </g>
    </g>
  </g>
</svg>
