<svg xmlns="http://www.w3.org/2000/svg" xmlns:xlink="http://www.w3.org/1999/xlink" width="108" height="108" viewBox="0 0 108 108">
  <defs>
    <filter id="Ellipse_11513" x="0" y="0" width="108" height="108" filterUnits="userSpaceOnUse">
      <feOffset dy="3" input="SourceAlpha"/>
      <feGaussianBlur stdDeviation="3" result="blur"/>
      <feFlood flood-opacity="0.161"/>
      <feComposite operator="in" in2="blur"/>
      <feComposite in="SourceGraphic"/>
    </filter>
  </defs>
  <g id="Group_1145292" data-name="Group 1145292" transform="translate(-202.907 -328)">
    <g id="Group_1144392" data-name="Group 1144392" transform="translate(16.009 -828.899)">
      <g transform="matrix(1, 0, 0, 1, 186.9, 1156.9)" filter="url(#Ellipse_11513)">
        <g id="Ellipse_11513-2" data-name="Ellipse 11513" transform="translate(9 6)" fill="#ebf0f7" stroke="#586577" stroke-width="3">
          <circle cx="45" cy="45" r="45" stroke="none"/>
          <circle cx="45" cy="45" r="43.5" fill="none"/>
        </g>
      </g>
    </g>
    <g id="chromosome_2759170" transform="translate(221.749 345.669)">
      <g id="Group_1145291" data-name="Group 1145291" transform="translate(2.102 2.102)">
        <g id="Group_1145273" data-name="Group 1145273" transform="translate(0)">
          <path id="Path_907743" data-name="Path 907743" d="M19.828,10.815h-2.4a4.406,4.406,0,0,0-4.407,4.407v1.1H12.28a3.675,3.675,0,0,0-2.2,6.611l2.942,2.2v7.713L8.49,29.679A15.215,15.215,0,0,1,17.217,2h7.922a5.509,5.509,0,0,1,2.49,10.424,5.568,5.568,0,0,1-2.49.6h-2.2a3.3,3.3,0,0,1-2.336-.97Z" transform="translate(-2 -2)" fill="#b27946"/>
        </g>
        <g id="Group_1145274" data-name="Group 1145274" transform="translate(33.056 0)">
          <path id="Path_907744" data-name="Path 907744" d="M39.272,13.14l-.683,2.083H35.9a3.9,3.9,0,0,1-2.755-6.655L34.2,7.509v-1.1A4.406,4.406,0,0,1,38.611,2h8.815A15.429,15.429,0,0,1,62.852,17.426V48.543H62.83a13.93,13.93,0,0,0-6.523-10.964l-1.234-.771a2.229,2.229,0,0,1-1.036-1.873v-6.49l.011-.11a5.453,5.453,0,0,1-2.413-1.146,4.107,4.107,0,0,1-.4-.353,5.533,5.533,0,0,1-1.609-3.9V19.63a4.406,4.406,0,0,0-4.407-4.407h-2.2a4.406,4.406,0,0,1-3.746-2.083Z" transform="translate(-32 -2)" fill="#656d78"/>
        </g>
        <g id="Group_1145275" data-name="Group 1145275" transform="translate(2.226 8.815)">
          <path id="Path_907745" data-name="Path 907745" d="M26.035,43.056v2.2a15.085,15.085,0,0,0-4.407.661v.011a14.486,14.486,0,0,0-4.407,2.193A14.885,14.885,0,0,0,12.9,52.94l-1.256,2.237L10,52.268a9.431,9.431,0,0,0-3.449-3.515c-.121-.066-.231-.132-.353-.187L4.02,47.728a13.93,13.93,0,0,1,6.523-10.964l1.234-.771a2.229,2.229,0,0,0,1.036-1.873v-9.8l-2.942-2.2a3.675,3.675,0,0,1,2.2-6.611h.738v-1.1A4.406,4.406,0,0,1,17.22,10h2.4l.771,1.234a3.3,3.3,0,0,0,2.336.97h2.2a5.568,5.568,0,0,0,2.49-.6c.705,1.245,3.019,5.664,3.019,9.41l-2.2,1.1v4.407a5.511,5.511,0,0,1-5.509,5.509h-1.1V34.12a2.229,2.229,0,0,0,1.036,1.873l1.234.771A14.038,14.038,0,0,1,27.1,39.519a3.3,3.3,0,0,0-1.069,2.435Z" transform="translate(-4.02 -10)" fill="#f0d0b4"/>
        </g>
        <g id="Group_1145276" data-name="Group 1145276" transform="translate(40.802 25.189)">
          <path id="Path_907746" data-name="Path 907746" d="M62.114,46.214l-2.182.837c-.121.055-.231.121-.353.187a9.431,9.431,0,0,0-3.449,3.515l-1.642,2.909-1.256-2.237a14.885,14.885,0,0,0-4.319-4.815,14.486,14.486,0,0,0-4.407-2.193v-.011a15.085,15.085,0,0,0-4.407-.661V40.44a3.3,3.3,0,0,0-.97-2.336l-.1-.1a13.808,13.808,0,0,1,3.206-2.755l1.234-.771a2.229,2.229,0,0,0,1.036-1.873V29.973l2.2-.364a2.236,2.236,0,0,0,1.609-1.19l.6-1.2,2.005-2.358a5.453,5.453,0,0,0,2.413,1.146l-.011.11v6.49a2.229,2.229,0,0,0,1.036,1.873l1.234.771a13.93,13.93,0,0,1,6.523,10.964Z" transform="translate(-39.03 -24.86)" fill="#f0d0b4"/>
        </g>
        <g id="Group_1145277" data-name="Group 1145277" transform="translate(37.464 11.14)">
          <path id="Path_907747" data-name="Path 907747" d="M38.865,12.11a4.406,4.406,0,0,0,3.746,2.083h2.2A4.406,4.406,0,0,1,49.222,18.6v3.306a5.533,5.533,0,0,0,1.609,3.9,4.108,4.108,0,0,0,.4.353l-2.005,2.358-.6,1.2a2.236,2.236,0,0,1-1.609,1.19l-2.2.364-3.052.507a2.626,2.626,0,0,1-.507.044A3.052,3.052,0,0,1,38.2,28.77V21.906L36,20.8l2.182-6.611Z" transform="translate(-36 -12.11)" fill="#f0d0b4"/>
        </g>
        <g id="Group_1145278" data-name="Group 1145278" transform="translate(35.26 37.464)">
          <path id="Path_907748" data-name="Path 907748" d="M40.611,39.306v1.1H34v-1.1a3.307,3.307,0,0,1,5.542-2.435l.1.1A3.3,3.3,0,0,1,40.611,39.306Z" transform="translate(-34 -36)" fill="#ffc729"/>
        </g>
        <g id="Group_1145279" data-name="Group 1145279" transform="translate(24.241 37.464)">
          <path id="Path_907749" data-name="Path 907749" d="M30.611,39.306v1.1H24v-1.1a3.306,3.306,0,0,1,6.611,0Z" transform="translate(-24 -36)" fill="#ffc729"/>
        </g>
        <g id="Group_1145280" data-name="Group 1145280" transform="translate(24.241 41.871)">
          <path id="Path_907750" data-name="Path 907750" d="M41.63,40v4.407a8.775,8.775,0,0,1-1.939,5.509,8.775,8.775,0,0,1,1.939,5.509v5.509a2.923,2.923,0,0,1-.176,1.036,3.17,3.17,0,0,1-.793,1.3,3.3,3.3,0,0,1-5.642-2.336V55.426a2.22,2.22,0,0,0-2.2-2.2,2.21,2.21,0,0,0-2.2,2.2v5.509a3.3,3.3,0,0,1-6.435,1.036A2.923,2.923,0,0,1,24,60.936V55.426a8.775,8.775,0,0,1,1.939-5.509A8.775,8.775,0,0,1,24,44.407V40h6.611v4.407a2.21,2.21,0,0,0,2.2,2.2,2.22,2.22,0,0,0,2.2-2.2V40Z" transform="translate(-24 -40)" fill="#fcd770"/>
        </g>
        <g id="Group_1145281" data-name="Group 1145281" transform="translate(0 46.279)">
          <path id="Path_907751" data-name="Path 907751" d="M4.226,44.264l2.182.837V58.324A9.334,9.334,0,0,1,2,59.426V44A9.323,9.323,0,0,1,4.226,44.264Z" transform="translate(-2 -44)" fill="#fc6e51"/>
        </g>
        <g id="Group_1145282" data-name="Group 1145282" transform="translate(9.851 46.94)">
          <path id="Path_907752" data-name="Path 907752" d="M16.515,44.6V58.7A14.885,14.885,0,0,1,12.2,53.889L10.94,51.652,12.2,49.415A14.885,14.885,0,0,1,16.515,44.6Z" transform="translate(-10.94 -44.6)" fill="#fc6e51"/>
        </g>
        <g id="Group_1145283" data-name="Group 1145283" transform="translate(19.834 44.075)">
          <path id="Path_907753" data-name="Path 907753" d="M24.407,60.732a2.923,2.923,0,0,0,.176,1.036l-.176.066A15.085,15.085,0,0,1,20,61.173V42.661A15.085,15.085,0,0,1,24.407,42v2.2a8.775,8.775,0,0,0,1.939,5.509,8.775,8.775,0,0,0-1.939,5.509Z" transform="translate(-20 -42)" fill="#fc6e51"/>
        </g>
        <g id="Group_1145284" data-name="Group 1145284" transform="translate(46.279 44.747)">
          <path id="Path_907754" data-name="Path 907754" d="M48.407,44.8v14.1A14.486,14.486,0,0,1,44,61.1V42.61A14.486,14.486,0,0,1,48.407,44.8Z" transform="translate(-44 -42.61)" fill="#fc6e51"/>
        </g>
        <g id="Group_1145285" data-name="Group 1145285" transform="translate(56.262 47.381)">
          <path id="Path_907755" data-name="Path 907755" d="M58.5,45V58.222a9.447,9.447,0,0,1-3.8-3.7L53.06,51.611,54.7,48.7a9.431,9.431,0,0,1,3.449-3.515c.121-.066.231-.132.353-.187Z" transform="translate(-53.06 -45)" fill="#fc6e51"/>
        </g>
        <g id="Group_1145286" data-name="Group 1145286" transform="translate(4.407 47.381)">
          <path id="Path_907756" data-name="Path 907756" d="M11.443,51.611,9.8,54.52a9.447,9.447,0,0,1-3.8,3.7V45c.121.055.231.121.353.187A9.431,9.431,0,0,1,9.8,48.7Z" transform="translate(-6 -45)" fill="#ff826e"/>
        </g>
        <g id="Group_1145287" data-name="Group 1145287" transform="translate(15.426 44.747)">
          <path id="Path_907757" data-name="Path 907757" d="M20.407,42.61V61.1A14.486,14.486,0,0,1,16,58.907V44.8a14.486,14.486,0,0,1,4.407-2.193Z" transform="translate(-16 -42.61)" fill="#ff826e"/>
        </g>
        <g id="Group_1145288" data-name="Group 1145288" transform="translate(39.932 44.075)">
          <path id="Path_907758" data-name="Path 907758" d="M44.587,42.672v18.5a15.084,15.084,0,0,1-4.407.661L40,61.768a2.923,2.923,0,0,0,.176-1.036V55.222a8.775,8.775,0,0,0-1.939-5.509A8.775,8.775,0,0,0,40.179,44.2V42a15.085,15.085,0,0,1,4.407.661Z" transform="translate(-38.24 -42)" fill="#ff826e"/>
        </g>
        <g id="Group_1145289" data-name="Group 1145289" transform="translate(50.686 46.94)">
          <path id="Path_907759" data-name="Path 907759" d="M52.319,49.415l1.256,2.237-1.256,2.237A14.885,14.885,0,0,1,48,58.7V44.6a14.885,14.885,0,0,1,4.319,4.815Z" transform="translate(-48 -44.6)" fill="#ff826e"/>
        </g>
        <g id="Group_1145290" data-name="Group 1145290" transform="translate(61.705 46.279)">
          <path id="Path_907760" data-name="Path 907760" d="M60.2,44.264a9.141,9.141,0,0,1,2.2-.264V59.426A9.334,9.334,0,0,1,58,58.324V45.1l2.182-.837Z" transform="translate(-58 -44)" fill="#ff826e"/>
        </g>
      </g>
      <path id="Path_907761" data-name="Path 907761" d="M68.214,47.279a10.453,10.453,0,0,0-1.1.074V17.528A16.547,16.547,0,0,0,50.584,1H41.769A5.516,5.516,0,0,0,36.26,6.509v.645l-.74.74a5,5,0,0,0,3.534,8.532h1.166l-2,6.069,2.446,1.223V29.9a4.159,4.159,0,0,0,4.155,4.155A4.2,4.2,0,0,0,45.506,34l1.773-.3v1.334a1.1,1.1,0,0,1-.519.934l-1.239.775A14.962,14.962,0,0,0,42.733,39a4.352,4.352,0,0,0-2.066-.538,4.412,4.412,0,0,0-4.407,4.407v5.509a1.078,1.078,0,0,1-.337.785,1.055,1.055,0,0,1-.765.317,1.1,1.1,0,0,1-1.1-1.1V42.871A4.372,4.372,0,0,0,27.584,39a14.987,14.987,0,0,0-2.789-2.254l-1.24-.775a1.1,1.1,0,0,1-.518-.934v-.987h0a6.612,6.612,0,0,0,6.61-6.611V23.718l2.2-1.1v-.681c0-3.336-1.679-7.1-2.665-9.032A6.6,6.6,0,0,0,25.241,1H17.319A16.318,16.318,0,0,0,7.961,30.687l4.058,2.842v1.511a1.1,1.1,0,0,1-.519.934l-1.239.775A15.027,15.027,0,0,0,3.378,47.366,10.227,10.227,0,0,0,2.1,47.279H1v17.63H2.1a10.53,10.53,0,0,0,9.17-5.364l.678-1.2.3.527a16.187,16.187,0,0,0,13.6,8.228,4.4,4.4,0,0,0,8.211-2.186V59.4a1.1,1.1,0,0,1,1.1-1.1,1.076,1.076,0,0,1,.786.337,1.063,1.063,0,0,1,.316.765v5.509A4.383,4.383,0,0,0,44.473,67.1a16.187,16.187,0,0,0,13.6-8.228l.3-.527.677,1.2a10.535,10.535,0,0,0,9.171,5.363h1.1V47.279ZM39.053,14.222a2.794,2.794,0,0,1-1.976-4.769l1.386-1.385V6.509A3.31,3.31,0,0,1,41.769,3.2h8.815A14.341,14.341,0,0,1,64.909,17.528V41.673a15,15,0,0,0-4.854-4.926l-1.24-.775a1.1,1.1,0,0,1-.518-.934V29.649a4.407,4.407,0,0,0,0-8.815v2.2a2.2,2.2,0,1,1,0,4.407,4.412,4.412,0,0,1-4.407-4.407V19.732a5.516,5.516,0,0,0-5.509-5.509h-2.2a3.306,3.306,0,0,1,0-6.611h1.1v-2.2h-1.1a5.516,5.516,0,0,0-5.509,5.509,5.449,5.449,0,0,0,.574,2.4l-.3.9Zm1.614,26.445a2.208,2.208,0,0,1,2.2,2.2H38.464A2.206,2.206,0,0,1,40.667,40.667Zm-9.462.647a2.185,2.185,0,0,1,.647,1.557H27.445a2.2,2.2,0,0,1,3.761-1.557ZM9.224,28.882A14.115,14.115,0,0,1,17.319,3.2h7.922a4.407,4.407,0,1,1,0,8.815h-2.2a2.214,2.214,0,0,1-2.2-2.22,2.188,2.188,0,0,1,2.188-2.187h.015l-.012-2.2h0A4.392,4.392,0,0,0,18.63,9.8c0,.006,0,.011,0,.017h-1.1a5.516,5.516,0,0,0-5.509,5.509v.014a4.775,4.775,0,0,0-2.5,8.58l2.5,1.873v5.045ZM3.2,49.555a8.3,8.3,0,0,1,2.2.627V62a8.257,8.257,0,0,1-2.2.627Zm6.147,8.91a8.277,8.277,0,0,1-1.74,2.144V51.578a8.3,8.3,0,0,1,1.741,2.144l1.333,2.371Zm2.6-4.619-.677-1.2a10.512,10.512,0,0,0-5.742-4.763,12.822,12.822,0,0,1,5.9-9.262l1.237-.775a3.282,3.282,0,0,0,1.555-2.8V24.69l-3.378-2.534a2.571,2.571,0,0,1,1.542-4.628h1.837v-2.2a3.31,3.31,0,0,1,3.306-3.306h1.719a4.391,4.391,0,0,0,3.79,2.2h2.2a6.578,6.578,0,0,0,1.987-.306,21.174,21.174,0,0,1,2.394,7.351l-2.177,1.09v5.083a4.407,4.407,0,0,1-4.41,4.407h0l-4.4.006,0,2.2,2.2,0v.985a3.284,3.284,0,0,0,1.554,2.8l1.239.775a12.789,12.789,0,0,1,2.311,1.9,4.377,4.377,0,0,0-.7,2.356v2.242A16.2,16.2,0,0,0,12.247,53.32Zm8.883-5.429V63.77a14.034,14.034,0,0,1-2.2-1.192V49.609a14.034,14.034,0,0,1,2.2-1.192Zm-6.667,9.37-.952-1.694.952-1.694a13.91,13.91,0,0,1,2.26-2.987v9.363a13.98,13.98,0,0,1-2.26-2.988ZM25.241,59.4V64.86a14.009,14.009,0,0,1-2.2-.357V47.684a13.882,13.882,0,0,1,2.2-.357v1.053a9.945,9.945,0,0,0,1.676,5.509A9.945,9.945,0,0,0,25.241,59.4Zm15.933-4.82a7.62,7.62,0,0,1,1.7,4.82v5.509a2.2,2.2,0,1,1-4.407,0V59.4a3.32,3.32,0,0,0-3.306-3.306A3.31,3.31,0,0,0,31.852,59.4v5.509a2.2,2.2,0,1,1-4.407,0V59.4a7.62,7.62,0,0,1,1.7-4.82l.553-.69-.553-.69a7.62,7.62,0,0,1-1.7-4.82V45.075h4.407v3.306a3.31,3.31,0,0,0,3.306,3.306,3.324,3.324,0,0,0,3.306-3.306V45.075h4.407v3.306a7.62,7.62,0,0,1-1.7,4.82l-.553.69Zm2.225-.69a9.945,9.945,0,0,0,1.676-5.509V47.327a14.008,14.008,0,0,1,2.2.357V64.5a13.883,13.883,0,0,1-2.2.357V59.4A9.945,9.945,0,0,0,43.4,53.89Zm8.287-4.281v12.97a14.034,14.034,0,0,1-2.2,1.192V48.417A14.034,14.034,0,0,1,51.686,49.609Zm4.464,8.178a13.91,13.91,0,0,1-2.26,2.987V51.412A13.973,13.973,0,0,1,56.15,54.4l.952,1.695Zm2.217-3.941-.3-.527a16.193,16.193,0,0,0-12.994-8.206V42.871a4.36,4.36,0,0,0-.694-2.358,12.8,12.8,0,0,1,2.308-1.9l1.237-.775a3.281,3.281,0,0,0,1.556-2.8v-1.7l1.278-.213a3.316,3.316,0,0,0,2.412-1.782l.6-1.2L51.8,29.156l-.6,1.2a1.107,1.107,0,0,1-.8.594l-5.253.875A1.97,1.97,0,0,1,42.871,29.9V22.355l-1.961-.981L42.9,15.321a5.449,5.449,0,0,0,3.274,1.105h2.2a3.31,3.31,0,0,1,3.306,3.306v3.306a6.615,6.615,0,0,0,4.407,6.226v5.776a3.284,3.284,0,0,0,1.554,2.8l1.239.775a12.819,12.819,0,0,1,5.9,9.262,10.509,10.509,0,0,0-5.741,4.763Zm2.6,4.619-1.333-2.371,1.334-2.371a8.258,8.258,0,0,1,1.74-2.144v9.031a8.285,8.285,0,0,1-1.741-2.144Zm6.148,4.167a8.3,8.3,0,0,1-2.2-.627V50.182a8.257,8.257,0,0,1,2.2-.627Z" transform="translate(0)"/>
    </g>
  </g>
</svg>
