<svg xmlns="http://www.w3.org/2000/svg" xmlns:xlink="http://www.w3.org/1999/xlink" width="108" height="108" viewBox="0 0 108 108">
  <defs>
    <filter id="Ellipse_11517" x="0" y="0" width="108" height="108" filterUnits="userSpaceOnUse">
      <feOffset dy="3" input="SourceAlpha"/>
      <feGaussianBlur stdDeviation="3" result="blur"/>
      <feFlood flood-opacity="0.161"/>
      <feComposite operator="in" in2="blur"/>
      <feComposite in="SourceGraphic"/>
    </filter>
  </defs>
  <g id="Group_1145322" data-name="Group 1145322" transform="translate(9 6)">
    <g transform="matrix(1, 0, 0, 1, -9, -6)" filter="url(#Ellipse_11517)">
      <g id="Ellipse_11517-2" data-name="Ellipse 11517" transform="translate(9 6)" fill="#f5f7fb" stroke="#a1bada" stroke-width="2">
        <circle cx="45" cy="45" r="45" stroke="none"/>
        <circle cx="45" cy="45" r="44" fill="none"/>
      </g>
    </g>
    <g id="profesor" transform="translate(4.961 2.44)">
      <path id="Path_978622" data-name="Path 978622" d="M51.112,14.556v5.878a3.654,3.654,0,0,0-2.465-.949c-16.021,0-16.021-6.162-16.021-6.162,0,6.162-6.162,6.162-6.162,6.162A3.654,3.654,0,0,0,24,20.435V14.556a13.556,13.556,0,0,1,27.112,0Z" transform="translate(4.88 0.232)" fill="#555a66"/>
      <path id="Path_978623" data-name="Path 978623" d="M37.556,1A13.549,13.549,0,0,0,24,14.556v4.93a13.556,13.556,0,1,1,27.112,0v-4.93A13.549,13.549,0,0,0,37.556,1Z" transform="translate(4.88 0.232)" fill="#414952"/>
      <path id="Path_978624" data-name="Path 978624" d="M37.7,59.7H38.93v4.93H36.465A2.472,2.472,0,0,1,34,62.162V56a3.7,3.7,0,0,0,3.7,3.7Z" transform="translate(7.204 13.014)" fill="#cfa388"/>
      <path id="Path_978625" data-name="Path 978625" d="M37.7,59.7A3.7,3.7,0,0,1,34,56v2.465a3.7,3.7,0,0,0,3.7,3.7H38.93V59.7Z" transform="translate(7.204 13.014)" fill="#b2876d"/>
      <path id="Path_978626" data-name="Path 978626" d="M38.93,47v7.394H37.7a3.7,3.7,0,0,0-3.7,3.7V49.465A2.472,2.472,0,0,1,36.465,47Z" transform="translate(7.204 10.922)" fill="#cfa388"/>
      <path id="Path_978627" data-name="Path 978627" d="M50.324,59v4.93H38V59H50.324Z" transform="translate(8.133 13.711)" fill="#966857"/>
      <path id="Path_978628" data-name="Path 978628" d="M50.324,59v2.465H38V59H50.324Z" transform="translate(8.133 13.711)" fill="#8d5c4d"/>
      <path id="Path_978629" data-name="Path 978629" d="M50.324,47v7.394H38V47Z" transform="translate(8.133 10.922)" fill="#966857"/>
      <path id="Path_978630" data-name="Path 978630" d="M36.627,36.7l-3.7,3.7L28,35.465V34.232L32.93,33Z" transform="translate(5.81 7.669)" fill="#bec3d2"/>
      <path id="Path_978631" data-name="Path 978631" d="M43.627,34.319v1.146l-4.93,4.93L35,36.7,38.7,33Z" transform="translate(7.436 7.669)" fill="#bec3d2"/>
      <path id="Path_978632" data-name="Path 978632" d="M39.394,39.7,36.93,42.162H34.465L32,39.7,35.7,36Z" transform="translate(6.739 8.366)" fill="#4ab8f7"/>
      <path id="Path_978633" data-name="Path 978633" d="M37.162,41l1.7,7.394h-1.7A2.472,2.472,0,0,0,34.7,50.859v8.627L31,57.021,34.7,41Z" transform="translate(6.507 9.528)" fill="#19cffc"/>
      <path id="Path_978634" data-name="Path 978634" d="M13.859,51a46.169,46.169,0,0,1-1.232,9.859S4,60.859,4,51a4.93,4.93,0,0,0,9.859,0Z" transform="translate(0.232 11.852)" fill="#bec3d2"/>
      <path id="Path_978635" data-name="Path 978635" d="M53,51h7.9c.074.481.148.974.209,1.479a7.349,7.349,0,0,1-2.021,6.113C58.447,53.465,53,53.465,53,53.465Z" transform="translate(11.619 11.852)" fill="#bec3d2"/>
      <path id="Path_978636" data-name="Path 978636" d="M48,59h6.162v4.93H48Z" transform="translate(10.457 13.711)" fill="#f2f6fc"/>
      <path id="Path_978637" data-name="Path 978637" d="M41.81,69.739H22.091V51.253L11,64.81a46.169,46.169,0,0,0,1.232-9.859L14.7,40.162,17.162,37.7,31.951,34v1.232l4.93,4.93,2.465,2.465-3.7,16.021,3.7,2.465v6.162A2.472,2.472,0,0,0,41.81,69.739Z" transform="translate(1.859 7.901)" fill="#dce1eb"/>
      <path id="Path_978638" data-name="Path 978638" d="M56.951,54.934V57.4H50.789V50H37.7L36,42.61l2.465-2.465,4.93-4.93V34.07l13.556,3.611s5.829,4.165,7.9,17.253Z" transform="translate(7.669 7.917)" fill="#dce1eb"/>
      <path id="Path_978639" data-name="Path 978639" d="M15.7,26v8.627H12V26Z" transform="translate(2.091 6.042)" fill="#faa68e"/>
      <path id="Path_978640" data-name="Path 978640" d="M6,30h7.394v3.7H6Z" transform="translate(0.697 6.972)" fill="#ffcdbe"/>
      <path id="Path_978641" data-name="Path 978641" d="M15.859,36.7a3.621,3.621,0,0,0-3.7,3.7h-3.7L6,37.93V33h6.162a3.621,3.621,0,0,0,3.7,3.7Z" transform="translate(0.697 7.669)" fill="#faa68e"/>
      <path id="Path_978642" data-name="Path 978642" d="M17.162,33v4.93L14.7,40.394H11a3.621,3.621,0,0,1,3.7-3.7A3.621,3.621,0,0,1,11,33Z" transform="translate(1.859 7.669)" fill="#ffbeaa"/>
      <path id="Path_978643" data-name="Path 978643" d="M16.324,39,13.859,53.789a4.93,4.93,0,0,1-9.859,0L8.93,39Z" transform="translate(0.232 9.063)" fill="#ffcdbe"/>
      <path id="Path_978644" data-name="Path 978644" d="M11.394,57.486a4.93,4.93,0,0,1-4.93-4.93L10.984,39H8.93L4,53.789a4.915,4.915,0,0,0,8.267,3.61,4.974,4.974,0,0,1-.873.087Z" transform="translate(0.232 9.063)" fill="#ffbeaa"/>
      <path id="Path_978645" data-name="Path 978645" d="M57.415,53s5.447,0,6.088,5.127a7.307,7.307,0,0,1-5.312,2.268H37.7A3.7,3.7,0,1,1,37.7,53Z" transform="translate(7.204 12.316)" fill="#ffcdbe"/>
      <path id="Path_978646" data-name="Path 978646" d="M58.19,57.465H37.7A3.652,3.652,0,0,1,34.225,55a3.686,3.686,0,0,0,3.47,4.93H58.19A7.307,7.307,0,0,0,63.5,57.662a6.019,6.019,0,0,0-.569-1.932,7.3,7.3,0,0,1-4.742,1.735Z" transform="translate(7.206 12.781)" fill="#ffbeaa"/>
      <g id="Group_1145315" data-name="Group 1145315" transform="translate(27.648 19.718)">
        <path id="Path_978647" data-name="Path 978647" d="M39.394,30.48v3.106l-3.7,3.7-3.7-3.7V30.48a10.985,10.985,0,0,0,7.394,0Z" transform="translate(-20.908 -12.635)" fill="#faa68e"/>
        <path id="Path_978648" data-name="Path 978648" d="M24.232,16.949A3.654,3.654,0,0,1,26.7,16v7.394A3.7,3.7,0,0,1,23,19.7,3.623,3.623,0,0,1,24.232,16.949Z" transform="translate(-23 -16)" fill="#faa68e"/>
        <path id="Path_978649" data-name="Path 978649" d="M44,16a3.7,3.7,0,0,1,0,7.394Z" transform="translate(-18.12 -16)" fill="#faa68e"/>
      </g>
      <path id="Path_978650" data-name="Path 978650" d="M48.183,17.162v7.394a11.091,11.091,0,0,1-22.183,0V17.162s6.162,0,6.162-6.162C32.162,11,32.162,17.162,48.183,17.162Z" transform="translate(5.345 2.556)" fill="#ffcdbe"/>
      <path id="Path_978651" data-name="Path 978651" d="M32.162,11c0,6.162-6.162,6.162-6.162,6.162v2.465s6.162,0,6.162-6.162c0,0,0,6.162,16.021,6.162V17.162C32.162,17.162,32.162,11,32.162,11Z" transform="translate(5.345 2.556)" fill="#ffbeaa"/>
      <path id="Path_978652" data-name="Path 978652" d="M37.324,37.112A12.337,12.337,0,0,1,25,24.789V17.394a1.232,1.232,0,0,1,1.232-1.232,4.745,4.745,0,0,0,4.93-4.93,1.232,1.232,0,1,1,2.465,0c0,.01.507,4.93,14.789,4.93a1.232,1.232,0,0,1,1.232,1.232v7.394A12.337,12.337,0,0,1,37.324,37.112ZM27.465,18.522v6.267a9.859,9.859,0,0,0,19.718,0V18.614c-8.36-.17-12.361-2.075-14.275-3.917A7.174,7.174,0,0,1,27.465,18.522Z" transform="translate(5.112 2.324)"/>
      <path id="Path_978653" data-name="Path 978653" d="M44,24.859V22.394a2.465,2.465,0,1,0,0-4.93V15a4.93,4.93,0,0,1,0,9.859Z" transform="translate(9.528 3.486)"/>
      <path id="Path_978654" data-name="Path 978654" d="M26.93,24.859a4.93,4.93,0,0,1,0-9.859v2.465a2.465,2.465,0,0,0,0,4.93Z" transform="translate(4.415 3.486)"/>
      <path id="Path_978655" data-name="Path 978655" d="M52.577,20.951H50.112V14.789a12.324,12.324,0,1,0-24.648,0v6.162H23V14.789a14.789,14.789,0,1,1,29.577,0Z" transform="translate(4.648 0)"/>
      <path id="Path_978659" data-name="Path 978659" d="M35.93,38.627a1.232,1.232,0,0,1-.871-.361l-3.7-3.7A1.232,1.232,0,0,1,31,33.7V30h2.465v3.187l2.465,2.465,2.465-2.465V30h2.465v3.7a1.232,1.232,0,0,1-.361.871l-3.7,3.7A1.232,1.232,0,0,1,35.93,38.627Z" transform="translate(6.507 6.972)"/>
      <path id="Path_978660" data-name="Path 978660" d="M58.428,66.5H37.93a4.93,4.93,0,0,1,0-9.859H56.415V49.245H58.88v8.627A1.232,1.232,0,0,1,57.648,59.1H37.93a2.465,2.465,0,1,0,0,4.93h20.5a6.146,6.146,0,0,0,4.62-2.1,6.209,6.209,0,0,0,1.49-4.9c-1.591-12.212-6.521-16.961-7.46-17.762L38.839,34.415l.636-2.381,18.486,4.93a1.232,1.232,0,0,1,.4.187c.274.2,6.713,4.948,8.618,19.571A8.644,8.644,0,0,1,58.428,66.5Z" transform="translate(6.972 7.444)"/>
      <path id="Path_978661" data-name="Path 978661" d="M51.486,68.183H36.7a3.7,3.7,0,0,1-3.7-3.7V49.7A3.7,3.7,0,0,1,36.7,46H51.486a1.232,1.232,0,0,1,1.232,1.232v7.394H50.253V48.465H36.7A1.232,1.232,0,0,0,35.465,49.7V64.486A1.232,1.232,0,0,0,36.7,65.718H50.253v-3.7h2.465v4.93A1.232,1.232,0,0,1,51.486,68.183Z" transform="translate(6.972 10.69)"/>
      <path id="Path_978662" data-name="Path 978662" d="M37,47h2.465v7.394H37Z" transform="translate(7.901 10.922)"/>
      <path id="Path_978663" data-name="Path 978663" d="M37,59h2.465v4.93H37Z" transform="translate(7.901 13.711)"/>
      <path id="Path_978664" data-name="Path 978664" d="M54.162,65.162H48V62.7h4.93V59h2.465v4.93A1.232,1.232,0,0,1,54.162,65.162Z" transform="translate(10.457 13.711)"/>
      <path id="Path_978665" data-name="Path 978665" d="M9.162,60.183A6.169,6.169,0,0,1,3,54.021a1.232,1.232,0,0,1,.063-.389l4.93-14.789A1.232,1.232,0,0,1,9.162,38h7.394a1.232,1.232,0,0,1,1.215,1.436L15.324,54.128a6.168,6.168,0,0,1-6.162,6.055Zm-3.7-5.976a3.7,3.7,0,1,0,7.394-.186,1.133,1.133,0,0,1,.017-.2L15.1,40.465H10.048Z" transform="translate(0 8.831)"/>
      <path id="Path_978666" data-name="Path 978666" d="M15.8,41.5l-1.743-1.743,2.1-2.1V36.93a1.232,1.232,0,0,1-1.232,1.232,2.319,2.319,0,0,0-2.465,2.465H10a4.672,4.672,0,0,1,1.565-3.691A5.208,5.208,0,0,1,10,33.232,1.232,1.232,0,0,1,11.233,32H17.4a1.232,1.232,0,0,1,1.232,1.232v4.93a1.232,1.232,0,0,1-.361.871Zm-3.06-7.033A2.2,2.2,0,0,0,14.93,35.7a1.232,1.232,0,0,1,1.232,1.232V34.465Z" transform="translate(1.626 7.436)"/>
      <path id="Path_978667" data-name="Path 978667" d="M17.162,34.859H14.7V27.465H13.465v7.394H11V26.232A1.232,1.232,0,0,1,12.232,25h3.7a1.232,1.232,0,0,1,1.232,1.232Z" transform="translate(1.859 5.81)"/>
      <path id="Path_978668" data-name="Path 978668" d="M12.394,35.162H6.232A1.232,1.232,0,0,1,5,33.93v-3.7A1.232,1.232,0,0,1,6.232,29h7.394v2.465H7.465V32.7h4.93Z" transform="translate(0.465 6.739)"/>
      <path id="Path_978669" data-name="Path 978669" d="M7.826,41.266,5.361,38.8A1.232,1.232,0,0,1,5,37.93V33H7.465v4.419l2.1,2.1Z" transform="translate(0.465 7.669)"/>
      <path id="Path_978670" data-name="Path 978670" d="M57.865,58.512c-.487-3.9-4.424-4.047-4.865-4.047V52a7.17,7.17,0,0,1,7.311,6.206Z" transform="translate(11.619 12.083)"/>
      <path id="Path_978671" data-name="Path 978671" d="M53,50h8.627v2.465H53Z" transform="translate(11.619 11.619)"/>
      <path id="Path_978672" data-name="Path 978672" d="M0,0H20.324V2.465H0Z" transform="translate(18.736 44.393) rotate(-14.064)"/>
      <path id="Path_978673" data-name="Path 978673" d="M43.669,67.95H23.951a1.232,1.232,0,0,1-1.232-1.232V51.683L13.813,62.567a1.232,1.232,0,0,1-.954.454C12.76,63.021,3,62.9,3,51.929H5.465c0,7.186,5.111,8.386,6.843,8.587L23,47.453a1.232,1.232,0,0,1,2.186.779V65.486H43.669Z" transform="translate(0 10.922)"/>
      <path id="Path_978674" data-name="Path 978674" d="M12.421,61.159l-2.391-.6a45.334,45.334,0,0,0,1.2-9.56H13.69a47.023,47.023,0,0,1-1.269,10.159Z" transform="translate(1.634 11.852)"/>
      <path id="Path_978675" data-name="Path 978675" d="M40.556,41.394a1.232,1.232,0,0,1-.871-.361l-2.826-2.826-2.826,2.826a1.232,1.232,0,0,1-1.743,0l-4.93-4.93A1.232,1.232,0,0,1,27,35.232V34h2.465v.722l3.7,3.7,2.826-2.826a1.232,1.232,0,0,1,1.743,0l2.826,2.826,3.7-3.7V34h2.465v1.232a1.232,1.232,0,0,1-.361.871l-4.93,4.93A1.232,1.232,0,0,1,40.556,41.394Z" transform="translate(5.577 7.901)"/>
      <path id="Path_978676" data-name="Path 978676" d="M37.094,42.861H34.629a1.232,1.232,0,0,1-.871-.361l-2.465-2.465,1.743-1.743,2.1,2.1h1.444l2.1-2.1,1.743,1.743L37.965,42.5a1.232,1.232,0,0,1-.871.361Z" transform="translate(6.575 8.899)"/>
      <path id="Path_978677" data-name="Path 978677" d="M34.246,60.563l-3.7-2.465a1.232,1.232,0,0,1-.518-1.3l3.7-16.021,2.4.555L32.625,56.52l2.989,1.993Z" transform="translate(6.274 9.475)"/>
      <path id="Path_978678" data-name="Path 978678" d="M0,0H2.465V7.588H0Z" transform="translate(42.481 50.833) rotate(-12.939)"/>
      <path id="Path_978679" data-name="Path 978679" d="M13,17h2.465v7.394H13Z" transform="translate(2.324 3.951)"/>
      <path id="Path_978680" data-name="Path 978680" d="M0,0H6.972V2.465H0Z" transform="translate(18.146 27.473) rotate(-45)"/>
      <path id="Path_978681" data-name="Path 978681" d="M0,0H2.465V6.972H0Z" transform="translate(8.288 24.286) rotate(-45)"/>
    </g>
  </g>
</svg>
