<svg xmlns="http://www.w3.org/2000/svg" xmlns:xlink="http://www.w3.org/1999/xlink" width="108" height="108" viewBox="0 0 108 108">
  <defs>
    <filter id="Path_904797" x="0" y="0" width="108" height="108" filterUnits="userSpaceOnUse">
      <feOffset dy="3" input="SourceAlpha"/>
      <feGaussianBlur stdDeviation="3" result="blur"/>
      <feFlood flood-opacity="0.161"/>
      <feComposite operator="in" in2="blur"/>
      <feComposite in="SourceGraphic"/>
    </filter>
  </defs>
  <g id="Group_1144080" data-name="Group 1144080" transform="translate(-616.766 -1653)">
    <g id="Group_1143825" data-name="Group 1143825" transform="translate(-0.234 70)">
      <g transform="matrix(1, 0, 0, 1, 617, 1583)" filter="url(#Path_904797)">
        <g id="Path_904797-2" data-name="Path 904797" transform="translate(9 6)" fill="#ebf0f7">
          <path d="M 45 88.5 C 39.12687683105469 88.5 33.43022537231445 87.35007476806641 28.06830024719238 85.08217620849609 C 22.88852500915527 82.89131164550781 18.23629951477051 79.75458526611328 14.2408504486084 75.75914764404297 C 10.24541282653809 71.76370239257812 7.108687400817871 67.11147308349609 4.917825222015381 61.93170166015625 C 2.649924993515015 56.56977462768555 1.5 50.87312316894531 1.5 45 C 1.5 39.12687683105469 2.649924993515015 33.43022537231445 4.917825222015381 28.06830024719238 C 7.108687400817871 22.88852500915527 10.24541282653809 18.23629951477051 14.2408504486084 14.2408504486084 C 18.23629951477051 10.24541282653809 22.88852500915527 7.108687400817871 28.06830024719238 4.917825222015381 C 33.43022537231445 2.649924993515015 39.12687683105469 1.5 45 1.5 C 50.87312316894531 1.5 56.56977462768555 2.649924993515015 61.93170166015625 4.917825222015381 C 67.11147308349609 7.108687400817871 71.76370239257812 10.24541282653809 75.75914764404297 14.2408504486084 C 79.75458526611328 18.23629951477051 82.89131164550781 22.88852500915527 85.08217620849609 28.06830024719238 C 87.35007476806641 33.43022537231445 88.5 39.12687683105469 88.5 45 C 88.5 50.87312316894531 87.35007476806641 56.56977462768555 85.08217620849609 61.93170166015625 C 82.89131164550781 67.11147308349609 79.75458526611328 71.76370239257812 75.75914764404297 75.75914764404297 C 71.76370239257812 79.75458526611328 67.11147308349609 82.89131164550781 61.93170166015625 85.08217620849609 C 56.56977462768555 87.35007476806641 50.87312316894531 88.5 45 88.5 Z" stroke="none"/>
          <path d="M 45 3 C 39.32871246337891 3 33.82865524291992 4.110054016113281 28.65262985229492 6.299339294433594 C 23.65165710449219 8.414573669433594 19.15968322753906 11.44334411621094 15.301513671875 15.301513671875 C 11.44334411621094 19.15968322753906 8.414573669433594 23.65165710449219 6.299339294433594 28.65262985229492 C 4.110054016113281 33.82865524291992 3 39.32871246337891 3 45 C 3 50.67128753662109 4.110054016113281 56.17134475708008 6.299339294433594 61.34737396240234 C 8.414573669433594 66.34834289550781 11.44334411621094 70.84031677246094 15.301513671875 74.698486328125 C 19.15968322753906 78.55665588378906 23.65165710449219 81.58542633056641 28.65262985229492 83.70066070556641 C 33.82865524291992 85.88994598388672 39.32871246337891 87 45 87 C 50.67128753662109 87 56.17134475708008 85.88994598388672 61.34737396240234 83.70066070556641 C 66.34834289550781 81.58542633056641 70.84031677246094 78.55665588378906 74.698486328125 74.698486328125 C 78.55665588378906 70.84031677246094 81.58542633056641 66.34834289550781 83.70066070556641 61.34737396240234 C 85.88994598388672 56.17134475708008 87 50.67128753662109 87 45 C 87 39.32871246337891 85.88994598388672 33.82865524291992 83.70066070556641 28.65262985229492 C 81.58542633056641 23.65165710449219 78.55665588378906 19.15968322753906 74.698486328125 15.301513671875 C 70.84031677246094 11.44334411621094 66.34834289550781 8.414573669433594 61.34737396240234 6.299339294433594 C 56.17134475708008 4.110054016113281 50.67128753662109 3 45 3 M 45 0 C 69.85281372070312 0 90 20.14718627929688 90 45 C 90 69.85281372070312 69.85281372070312 90 45 90 C 20.14718627929688 90 0 69.85281372070312 0 45 C 0 20.14718627929688 20.14718627929688 0 45 0 Z" stroke="none" fill="#586577"/>
        </g>
      </g>
    </g>
    <g id="molecular_17311237" transform="translate(589.518 1665.128)">
      <g id="Group_1143881" data-name="Group 1143881" transform="translate(54.174 0.569)">
        <path id="Path_906021" data-name="Path 906021" d="M314.763,2.544l-4.1,7.095a1.054,1.054,0,0,1-1.825-1.054l4.1-7.095a1.054,1.054,0,1,1,1.825,1.054ZM299.733,6.51a1.054,1.054,0,0,0-1.054-1.054h-8.187a1.054,1.054,0,0,0,0,2.108h8.187a1.054,1.054,0,0,0,1.054-1.054Zm.761,9.651a1.054,1.054,0,0,0-1.44.386l-4.283,7.419a1.054,1.054,0,1,0,1.825,1.054l4.283-7.419A1.054,1.054,0,0,0,300.495,16.161Z" transform="translate(-254.83 -0.964)" fill="#636585"/>
        <g id="Group_1143865" data-name="Group 1143865" transform="translate(0 1.054)">
          <path id="Path_906022" data-name="Path 906022" d="M75.208,23.183a18.333,18.333,0,0,1-10.124-15.2H59a23.714,23.714,0,0,0,16.208,21.08,18.3,18.3,0,0,1,0,32.787A23.72,23.72,0,0,0,59,82.932h6.084a18.328,18.328,0,0,1,10.124-15.2,24.57,24.57,0,0,0,5.883-2.939,23.229,23.229,0,0,0,0-38.67,24.405,24.405,0,0,0-5.883-2.94Z" transform="translate(-59 -7.982)" fill="#08a9f1" fill-rule="evenodd"/>
        </g>
        <g id="Group_1143866" data-name="Group 1143866" transform="translate(7.957 14.344)">
          <path id="Path_906023" data-name="Path 906023" d="M120.23,98.381a18.471,18.471,0,0,1-3.068-1.911,27.2,27.2,0,0,0-4.343,2.415c-.286.192-.563.392-.84.6a24.45,24.45,0,0,0,8.251,4.778,17.921,17.921,0,0,1,3.161,1.988,27.657,27.657,0,0,0,5.213-2.982,23.949,23.949,0,0,0-2.492-1.945A24.41,24.41,0,0,0,120.23,98.381Zm3.161,36.682a17.9,17.9,0,0,1-3.161,1.984,24.459,24.459,0,0,0-8.251,4.782c.277.2.555.4.84.6a27.877,27.877,0,0,0,4.343,2.415,17.905,17.905,0,0,1,3.068-1.911,24.329,24.329,0,0,0,8.375-4.889A27.412,27.412,0,0,0,123.391,135.063Z" transform="translate(-111.979 -96.47)" fill="#0098de" fill-rule="evenodd"/>
        </g>
        <g id="Group_1143867" data-name="Group 1143867" transform="translate(0.107 1.054)">
          <path id="Path_906024" data-name="Path 906024" d="M75.944,23.183a18.346,18.346,0,0,0,10.128-15.2h6.079a23.714,23.714,0,0,1-16.208,21.08,18.3,18.3,0,0,0,0,32.787A23.714,23.714,0,0,1,92.152,82.932H86.072a18.341,18.341,0,0,0-10.128-15.2,24.651,24.651,0,0,1-5.883-2.939,23.235,23.235,0,0,1,0-38.67,24.482,24.482,0,0,1,5.883-2.94Z" transform="translate(-59.711 -7.982)" fill="#ff526e" fill-rule="evenodd"/>
        </g>
        <g id="Group_1143868" data-name="Group 1143868" transform="translate(40.854 1.054)">
          <path id="Path_906025" data-name="Path 906025" d="M338.811,7.982l2.594,4.492-2.594,4.5h-5.192l-2.594-4.5,2.594-4.492Z" transform="translate(-331.025 -7.982)" fill="#ff526e" fill-rule="evenodd"/>
        </g>
        <g id="Group_1143869" data-name="Group 1143869" transform="translate(40.854 10.043)">
          <path id="Path_906026" data-name="Path 906026" d="M338.811,67.836l2.594,4.5-2.594,4.492h-5.192l-2.594-4.492,2.594-4.5Z" transform="translate(-331.025 -67.836)" fill="#ffc839" fill-rule="evenodd"/>
        </g>
        <g id="Group_1143870" data-name="Group 1143870" transform="translate(48.64 5.547)">
          <path id="Path_906027" data-name="Path 906027" d="M390.654,37.895l2.594,4.5-2.594,4.5h-5.192l-2.594-4.5,2.594-4.5Z" transform="translate(-382.868 -37.895)" fill="#08a9f1" fill-rule="evenodd"/>
        </g>
        <g id="Group_1143871" data-name="Group 1143871" transform="translate(43.623 50.07)">
          <path id="Path_906028" data-name="Path 906028" d="M354.785,334.35l7.641,11.762a3.171,3.171,0,1,1-5.324,3.447L349.461,337.8Z" transform="translate(-349.461 -334.35)" fill="#ff526e" fill-rule="evenodd"/>
        </g>
        <g id="Group_1143872" data-name="Group 1143872" transform="translate(21.778 22.656)">
          <path id="Path_906029" data-name="Path 906029" d="M223.335,152.173a15.985,15.985,0,1,0,12.291,18.972A15.984,15.984,0,0,0,223.335,152.173Z" transform="translate(-204.007 -151.816)" fill="#9ce8ff" fill-rule="evenodd"/>
        </g>
        <g id="Group_1143873" data-name="Group 1143873" transform="translate(35.833 35.428)">
          <path id="Path_906030" data-name="Path 906030" d="M301.088,236.857a3.5,3.5,0,1,1-3.5,3.5A3.5,3.5,0,0,1,301.088,236.857Z" transform="translate(-297.59 -236.857)" fill="#ffc839" fill-rule="evenodd"/>
        </g>
        <g id="Group_1143874" data-name="Group 1143874" transform="translate(27.821 29.579)">
          <path id="Path_906031" data-name="Path 906031" d="M247.024,203.466a2.777,2.777,0,1,0-2.782-2.777A2.783,2.783,0,0,0,247.024,203.466Z" transform="translate(-244.242 -197.911)" fill="#ef5350" fill-rule="evenodd"/>
        </g>
        <g id="Group_1143875" data-name="Group 1143875" transform="translate(42.283 43.197)">
          <path id="Path_906032" data-name="Path 906032" d="M343.324,294.146a2.779,2.779,0,1,0-2.782-2.777A2.786,2.786,0,0,0,343.324,294.146Z" transform="translate(-340.542 -288.587)" fill="#ef5350" fill-rule="evenodd"/>
        </g>
        <g id="Group_1143876" data-name="Group 1143876" transform="translate(27.693 41.512)">
          <path id="Path_906033" data-name="Path 906033" d="M246.167,282.925a2.779,2.779,0,1,0-2.777-2.782A2.784,2.784,0,0,0,246.167,282.925Z" transform="translate(-243.39 -277.366)" fill="#8399fe" fill-rule="evenodd"/>
        </g>
        <g id="Group_1143877" data-name="Group 1143877" transform="translate(40.705 28.529)">
          <path id="Path_906034" data-name="Path 906034" d="M332.808,196.482a2.779,2.779,0,1,0-2.777-2.777A2.78,2.78,0,0,0,332.808,196.482Z" transform="translate(-330.031 -190.923)" fill="#08a9f1" fill-rule="evenodd"/>
        </g>
        <g id="Group_1143878" data-name="Group 1143878" transform="translate(42.65 2.607)">
          <path id="Path_906035" data-name="Path 906035" d="M348.075,18.322l1.7,2.94-1.7,2.939h-3.392l-1.7-2.939,1.7-2.94Z" transform="translate(-342.985 -18.322)" fill="#d82f3c" fill-rule="evenodd"/>
        </g>
        <g id="Group_1143879" data-name="Group 1143879" transform="translate(42.65 11.596)">
          <path id="Path_906036" data-name="Path 906036" d="M348.075,78.176l1.7,2.944-1.7,2.939h-3.392l-1.7-2.939,1.7-2.944Z" transform="translate(-342.985 -78.176)" fill="#ffb74d" fill-rule="evenodd"/>
        </g>
        <g id="Group_1143880" data-name="Group 1143880" transform="translate(50.436 7.104)">
          <path id="Path_906037" data-name="Path 906037" d="M399.917,48.263l1.7,2.94-1.7,2.939h-3.392l-1.7-2.939,1.7-2.94Z" transform="translate(-394.827 -48.263)" fill="#0098de" fill-rule="evenodd"/>
        </g>
      </g>
      <path id="Path_906038" data-name="Path 906038" d="M71.108,60.114a1.032,1.032,0,0,0-.124-.051,23.5,23.5,0,0,1-5.607-2.8,1.037,1.037,0,0,0-.1-.068,22.082,22.082,0,0,1,.095-36.71,23.338,23.338,0,0,1,5.607-2.8,1.026,1.026,0,0,0,.125-.052A19.314,19.314,0,0,0,81.778,1.62a1.049,1.049,0,0,0-2.094-.141,17.267,17.267,0,0,1-.415,2.769H61.888a17.266,17.266,0,0,1-.415-2.769,1.049,1.049,0,1,0-2.094.141,19.354,19.354,0,0,0,8.765,14.928,25.568,25.568,0,0,0-3.4,1.843,22.12,22.12,0,0,1-9.32-16.9,1.049,1.049,0,1,0-2.1.108,23.764,23.764,0,0,0,3.232,10.842,25.02,25.02,0,0,0,6.382,7.219,24.146,24.146,0,0,0,0,38.413,25.017,25.017,0,0,0-6.38,7.218,23.771,23.771,0,0,0-3.232,10.845,1.049,1.049,0,0,0,.994,1.1h.055a1.05,1.05,0,0,0,1.047-1,22.123,22.123,0,0,1,9.318-16.9A25.553,25.553,0,0,0,68.146,61.2a19.353,19.353,0,0,0-8.767,14.929,1.049,1.049,0,0,0,.976,1.118l.072,0a1.05,1.05,0,0,0,1.046-.979,17.266,17.266,0,0,1,.415-2.769H79.27a17.263,17.263,0,0,1,.415,2.769,1.05,1.05,0,0,0,1.046.979l.072,0a1.049,1.049,0,0,0,.977-1.118,19.314,19.314,0,0,0-10.671-16.01ZM63.858,9.138a17.332,17.332,0,0,1-1.336-2.791H78.635A17.327,17.327,0,0,1,77.3,9.138Zm1.463,2.1H75.836a16.967,16.967,0,0,1-5.258,4.305A16.966,16.966,0,0,1,65.321,11.237ZM70.578,62.2a16.969,16.969,0,0,1,5.254,4.3H65.324A16.968,16.968,0,0,1,70.578,62.2Zm-8.056,9.2a17.318,17.318,0,0,1,1.338-2.8H77.3a17.32,17.32,0,0,1,1.338,2.8Zm25.312,4.743a1.049,1.049,0,0,1-.994,1.1h-.055a1.05,1.05,0,0,1-1.047-1,22.2,22.2,0,0,0-9.755-17.221,1.045,1.045,0,0,1-.269-.185,23.578,23.578,0,0,0-5.409-2.653,1.036,1.036,0,0,1-.125-.052,19.233,19.233,0,0,1-8.718-25.769,1.043,1.043,0,0,1,.091-.178A19.219,19.219,0,0,1,70.181,21.6a1.063,1.063,0,0,1,.125-.052,23.586,23.586,0,0,0,5.4-2.647,1.039,1.039,0,0,1,.279-.192A22.192,22.192,0,0,0,85.738,1.5a1.049,1.049,0,0,1,2.1.108,23.992,23.992,0,0,1-5.1,13.6,25.054,25.054,0,0,1-4.509,4.467,25.229,25.229,0,0,1,2.962,2.7A1.049,1.049,0,1,1,79.654,23.8a23.17,23.17,0,0,0-3.24-2.873,25.328,25.328,0,0,1-3.422,1.822,18.907,18.907,0,0,1,4.132,3.666,1.049,1.049,0,1,1-1.606,1.351,16.792,16.792,0,0,0-4.939-4.011A17.074,17.074,0,0,0,64.236,29.7H74.12a1.049,1.049,0,1,1,0,2.1H63.106a17.286,17.286,0,0,0-1.114,3.314H72.518a1.049,1.049,0,1,1,0,2.1H61.652c-.054.548-.083,1.1-.083,1.657s.029,1.106.083,1.653H72.488a1.049,1.049,0,1,1,0,2.1h-10.5A17.272,17.272,0,0,0,63.1,45.938H74.027a1.049,1.049,0,0,1,0,2.1H64.236a17.078,17.078,0,0,0,6.344,5.944,16.791,16.791,0,0,0,4.859-3.911,1.049,1.049,0,1,1,1.6,1.363,18.875,18.875,0,0,1-4.041,3.554,25.346,25.346,0,0,1,3.421,1.822,23.009,23.009,0,0,0,3.109-2.739,1.049,1.049,0,1,1,1.523,1.444,25.185,25.185,0,0,1-2.821,2.556,25.046,25.046,0,0,1,4.509,4.468,24,24,0,0,1,5.1,13.6ZM102.813,20.5a1.05,1.05,0,0,0,.909-.525L106,16.03h4.565a1.049,1.049,0,0,0,.909-.525l2.583-4.478a1.049,1.049,0,0,0,0-1.049l-2.281-3.954,2.281-3.95a1.05,1.05,0,0,0-1.818-1.05l-2.28,3.949H106l-2.28-3.949A1.05,1.05,0,0,0,102.813.5H97.642a1.05,1.05,0,0,0-.909.525l-2.28,3.949H89.888a1.05,1.05,0,0,0,0,2.1h4.565L96.43,10.5,94.15,14.456a1.049,1.049,0,0,0,0,1.049l2.28,3.949-1.618,2.8a16.972,16.972,0,1,0,2.574,32.808l7.159,11.021a4.2,4.2,0,0,0,7.643-1.41,4.165,4.165,0,0,0-.58-3.167l-7.159-11.02a16.961,16.961,0,0,0-7.5-27.729l1.3-2.255h4.565ZM106,7.073h3.959l1.978,3.429-1.978,3.429H106L104.025,10.5ZM96.27,6.024,98.248,2.6h3.959l1.978,3.425-.575,1-1.4,2.431H98.249Zm13.579,56.628a2.109,2.109,0,0,1-3.543,2.289L99.364,54.254a17.111,17.111,0,0,0,3.54-2.294ZM104.464,30.9a14.858,14.858,0,1,1-12.514-6.789,15,15,0,0,1,3.139.334h0a14.769,14.769,0,0,1,9.374,6.455ZM96.27,14.98l1.978-3.429h3.959l1.4,2.431.575,1L102.207,18.4H98.248Zm-2.414,16.7a3.8,3.8,0,0,0,1.181,2.755l-.263.468a4.518,4.518,0,0,0-4.16.9l-2.232-1.649a3.829,3.829,0,1,0-1.3,1.651L89.368,37.5a4.524,4.524,0,0,0-.231,2.839L86.9,41.481a3.811,3.811,0,1,0,1.344,1.67l1.851-.946a4.525,4.525,0,0,0,5.434,1.136l.61.742a3.812,3.812,0,1,0,1.636-1.315l-.625-.76a4.524,4.524,0,0,0-.543-6.079l.287-.512a3.818,3.818,0,1,0-3.037-3.735Zm-9.012,2.758a1.717,1.717,0,1,1,1.721-1.716,1.718,1.718,0,0,1-1.721,1.716Zm-.127,11.889a1.719,1.719,0,1,1,1.716-1.721A1.723,1.723,0,0,1,84.717,46.329ZM99.253,44.57a1.719,1.719,0,1,1-1.721,1.721A1.72,1.72,0,0,1,99.253,44.57ZM97.676,29.962a1.719,1.719,0,1,1-1.721,1.721,1.721,1.721,0,0,1,1.721-1.721Zm-1.7,9.305a2.435,2.435,0,1,1-2.435-2.435A2.437,2.437,0,0,1,95.977,39.267Z" transform="translate(0 0)"/>
    </g>
  </g>
</svg>
