<svg xmlns="http://www.w3.org/2000/svg" xmlns:xlink="http://www.w3.org/1999/xlink" width="108" height="108" viewBox="0 0 108 108">
  <defs>
    <filter id="Path_906473" x="0" y="0" width="108" height="108" filterUnits="userSpaceOnUse">
      <feOffset dy="3" input="SourceAlpha"/>
      <feGaussianBlur stdDeviation="3" result="blur"/>
      <feFlood flood-opacity="0.161"/>
      <feComposite operator="in" in2="blur"/>
      <feComposite in="SourceGraphic"/>
    </filter>
  </defs>
  <g id="Group_1144070" data-name="Group 1144070" transform="translate(-606 -357)">
    <g id="Group_1143813" data-name="Group 1143813" transform="translate(409 -110)">
      <g transform="matrix(1, 0, 0, 1, 197, 467)" filter="url(#Path_906473)">
        <g id="Path_906473-2" data-name="Path 906473" transform="translate(9 6)" fill="#ede9fb">
          <path d="M 45 88.5 C 39.12687683105469 88.5 33.43022537231445 87.35007476806641 28.06830024719238 85.08217620849609 C 22.88852500915527 82.89131164550781 18.23629951477051 79.75458526611328 14.2408504486084 75.75914764404297 C 10.24541282653809 71.76370239257812 7.108687400817871 67.11147308349609 4.917825222015381 61.93170166015625 C 2.649924993515015 56.56977462768555 1.5 50.87312316894531 1.5 45 C 1.5 39.12687683105469 2.649924993515015 33.43022537231445 4.917825222015381 28.06830024719238 C 7.108687400817871 22.88852500915527 10.24541282653809 18.23629951477051 14.2408504486084 14.2408504486084 C 18.23629951477051 10.24541282653809 22.88852500915527 7.108687400817871 28.06830024719238 4.917825222015381 C 33.43022537231445 2.649924993515015 39.12687683105469 1.5 45 1.5 C 50.87312316894531 1.5 56.56977462768555 2.649924993515015 61.93170166015625 4.917825222015381 C 67.11147308349609 7.108687400817871 71.76370239257812 10.24541282653809 75.75914764404297 14.2408504486084 C 79.75458526611328 18.23629951477051 82.89131164550781 22.88852500915527 85.08217620849609 28.06830024719238 C 87.35007476806641 33.43022537231445 88.5 39.12687683105469 88.5 45 C 88.5 50.87312316894531 87.35007476806641 56.56977462768555 85.08217620849609 61.93170166015625 C 82.89131164550781 67.11147308349609 79.75458526611328 71.76370239257812 75.75914764404297 75.75914764404297 C 71.76370239257812 79.75458526611328 67.11147308349609 82.89131164550781 61.93170166015625 85.08217620849609 C 56.56977462768555 87.35007476806641 50.87312316894531 88.5 45 88.5 Z" stroke="none"/>
          <path d="M 45 3 C 39.32871246337891 3 33.82865524291992 4.110054016113281 28.65262985229492 6.299339294433594 C 23.65165710449219 8.414573669433594 19.15968322753906 11.44334411621094 15.301513671875 15.301513671875 C 11.44334411621094 19.15968322753906 8.414573669433594 23.65165710449219 6.299339294433594 28.65262985229492 C 4.110054016113281 33.82865524291992 3 39.32871246337891 3 45 C 3 50.67128753662109 4.110054016113281 56.17134475708008 6.299339294433594 61.34737396240234 C 8.414573669433594 66.34834289550781 11.44334411621094 70.84031677246094 15.301513671875 74.698486328125 C 19.15968322753906 78.55665588378906 23.65165710449219 81.58542633056641 28.65262985229492 83.70066070556641 C 33.82865524291992 85.88994598388672 39.32871246337891 87 45 87 C 50.67128753662109 87 56.17134475708008 85.88994598388672 61.34737396240234 83.70066070556641 C 66.34834289550781 81.58542633056641 70.84031677246094 78.55665588378906 74.698486328125 74.698486328125 C 78.55665588378906 70.84031677246094 81.58542633056641 66.34834289550781 83.70066070556641 61.34737396240234 C 85.88994598388672 56.17134475708008 87 50.67128753662109 87 45 C 87 39.32871246337891 85.88994598388672 33.82865524291992 83.70066070556641 28.65262985229492 C 81.58542633056641 23.65165710449219 78.55665588378906 19.15968322753906 74.698486328125 15.301513671875 C 70.84031677246094 11.44334411621094 66.34834289550781 8.414573669433594 61.34737396240234 6.299339294433594 C 56.17134475708008 4.110054016113281 50.67128753662109 3 45 3 M 45 0 C 69.85281372070312 0 90 20.14718627929688 90 45 C 90 69.85281372070312 69.85281372070312 90 45 90 C 20.14718627929688 90 0 69.85281372070312 0 45 C 0 20.14718627929688 20.14718627929688 0 45 0 Z" stroke="none" fill="#6e008a"/>
        </g>
      </g>
    </g>
    <g id="_16-Genetics" data-name="16-Genetics" transform="translate(621 369)">
      <circle id="Ellipse_11608" data-name="Ellipse 11608" cx="19.5" cy="19.5" r="19.5" transform="translate(19.507 1)" fill="#f2f6fc"/>
      <circle id="Ellipse_11609" data-name="Ellipse 11609" cx="14.5" cy="14.5" r="14.5" transform="translate(24.507 6)" fill="#cddb79"/>
      <path id="Path_905875" data-name="Path 905875" d="M27,16H39.258v2.452H27Z" transform="translate(5.871 3.387)" fill="#fcc571"/>
      <path id="Path_905876" data-name="Path 905876" d="M28,12h9.806v2.452H28Z" transform="translate(6.097 2.484)" fill="#fcc571"/>
      <path id="Path_905877" data-name="Path 905877" d="M28,20h9.806v2.452H28Z" transform="translate(6.097 4.29)" fill="#fcc571"/>
      <path id="Path_905878" data-name="Path 905878" d="M28,4h9.806V6.452H28Z" transform="translate(6.097 0.677)" fill="#fcc571"/>
      <path id="Path_905879" data-name="Path 905879" d="M28,28h9.806v2.452H28Z" transform="translate(6.097 6.097)" fill="#fcc571"/>
      <path id="Path_905880" data-name="Path 905880" d="M40.71,40.068H38.258a7.342,7.342,0,0,0-.04-.826c-.331-3.783-2.905-5.842-5.631-8.023C29.5,28.749,26,25.948,26,20.455s3.5-8.294,6.586-10.764c2.73-2.181,5.3-4.24,5.628-7.991l2.442.213c-.418,4.793-3.669,7.394-6.537,9.684-3.04,2.442-5.667,4.543-5.667,8.858s2.627,6.416,5.667,8.849c2.868,2.295,6.119,4.9,6.537,9.684a9.276,9.276,0,0,1,.054,1.08Z" transform="translate(5.645 0.158)" fill="#4d7efb"/>
      <path id="Path_905881" data-name="Path 905881" d="M28.486,39.21l-2.442-.216c.429-4.821,3.677-7.4,6.538-9.678,3.047-2.453,5.666-4.558,5.666-8.861S35.63,14.046,32.6,11.609c-2.881-2.29-6.129-4.87-6.556-9.691L28.486,1.7c.336,3.772,2.9,5.813,5.622,7.975,3.1,2.5,6.592,5.3,6.592,10.78s-3.487,8.282-6.564,10.755C31.384,33.394,28.822,35.435,28.486,39.21Z" transform="translate(5.655 0.158)" fill="#5da4f8"/>
      <path id="Path_905882" data-name="Path 905882" d="M43.452,64.355H41V57H58.161v7.355H43.452Z" transform="translate(9.032 12.645)" fill="#5da4f8"/>
      <path id="Path_905883" data-name="Path 905883" d="M43.452,63.677H41V60H58.161v3.677H43.452Z" transform="translate(9.032 13.323)" fill="#4d7efb"/>
      <path id="Path_905884" data-name="Path 905884" d="M48.523,32.114l-2.292,4.008A18.576,18.576,0,0,1,44,32.677L46.452,29Z" transform="translate(9.71 6.323)" fill="#d47f6c"/>
      <path id="Path_905885" data-name="Path 905885" d="M48.452,31.9l-.38.662L46,29.452,47.226,27l7.355,2.452,1.226,8.581a9.439,9.439,0,0,1-5.884,2.439l.981-2.439C52.129,31.9,48.452,31.9,48.452,31.9Z" transform="translate(10.161 5.871)" fill="#e09380"/>
      <path id="Path_905886" data-name="Path 905886" d="M55.132,39.387l-1.226-8.581L49,25.9A5.311,5.311,0,0,1,51.455,21L56.6,26.148l2.206,5.884Z" transform="translate(10.836 4.516)" fill="#faa68e"/>
      <path id="Path_905887" data-name="Path 905887" d="M51.5,42.278a9.439,9.439,0,0,0,5.884-2.439l3.677-7.355L58.858,26.6l-1.471-3.923A3.6,3.6,0,0,1,61.065,19l7.355,12.258L64.742,47.194,56.161,59.452v6.129H42.677v-4.9S39,59.452,39,53.323,45.129,42.29,45.129,42.29l2.231-3.91,2.292-4.008.38-.662s3.677,0,2.452,6.129Z" transform="translate(8.581 4.064)" fill="#ffcdbe"/>
      <path id="Path_905888" data-name="Path 905888" d="M51.411,41.754l-.211.525a9.439,9.439,0,0,0,5.884-2.439l3.677-7.355L58.555,26.6l-1.471-3.923a4.023,4.023,0,0,1,1.565-3.111L58.31,19a3.6,3.6,0,0,0-3.677,3.677L56.1,26.6l2.206,5.884-3.677,7.355A8.142,8.142,0,0,1,51.411,41.754Z" transform="translate(11.335 4.064)" fill="#ffbeaa"/>
      <path id="Path_905889" data-name="Path 905889" d="M41.452,50.613c0-6.129,6.129-11.032,6.129-11.032l2.231-3.91,2.1-3.677A2.642,2.642,0,0,0,50.032,31l-.38.662L47.36,35.67l-2.231,3.91S39,44.484,39,50.613s3.677,7.355,3.677,7.355v4.9h2.452v-4.9S41.452,56.742,41.452,50.613Z" transform="translate(8.581 6.774)" fill="#ffbeaa"/>
      <path id="Path_905890" data-name="Path 905890" d="M23.71,64.355h2.452V57H9v7.355H23.71Z" transform="translate(1.806 12.645)" fill="#5da4f8"/>
      <path id="Path_905891" data-name="Path 905891" d="M23.71,63.677h2.452V60H9v3.677H23.71Z" transform="translate(1.806 13.323)" fill="#4d7efb"/>
      <path id="Path_905892" data-name="Path 905892" d="M16.31,32.114,18.6,36.122a18.576,18.576,0,0,0,2.231-3.445L18.382,29Z" transform="translate(3.457 6.323)" fill="#d47f6c"/>
      <path id="Path_905893" data-name="Path 905893" d="M17.355,31.9l.38.662,2.072-3.114L18.581,27l-7.355,2.452L10,38.032a9.439,9.439,0,0,0,5.884,2.439L14.9,38.032C13.677,31.9,17.355,31.9,17.355,31.9Z" transform="translate(2.032 5.871)" fill="#e09380"/>
      <path id="Path_905894" data-name="Path 905894" d="M10.677,39.387,11.9,30.806l4.9-4.9A5.311,5.311,0,0,0,14.355,21L9.206,26.148,7,32.032Z" transform="translate(1.355 4.516)" fill="#faa68e"/>
      <path id="Path_905895" data-name="Path 905895" d="M17.916,42.278a9.439,9.439,0,0,1-5.884-2.439L8.355,32.484,10.561,26.6l1.471-3.923A3.6,3.6,0,0,0,8.355,19L1,31.258,4.677,47.194l8.581,12.258v6.129H26.742v-4.9s3.677-1.226,3.677-7.355S24.29,42.29,24.29,42.29l-2.231-3.91-2.292-4.008-.38-.662s-3.677,0-2.452,6.129Z" transform="translate(0 4.064)" fill="#ffcdbe"/>
      <path id="Path_905896" data-name="Path 905896" d="M14.35,41.754l.211.525a9.439,9.439,0,0,1-5.884-2.439L5,32.484,7.206,26.6l1.471-3.923a4.023,4.023,0,0,0-1.565-3.111L7.452,19a3.6,3.6,0,0,1,3.677,3.677L9.658,26.6,7.452,32.484l3.677,7.355A8.142,8.142,0,0,0,14.35,41.754Z" transform="translate(0.903 4.064)" fill="#ffbeaa"/>
      <path id="Path_905897" data-name="Path 905897" d="M24.927,50.613c0-6.129-6.129-11.032-6.129-11.032l-2.231-3.91-2.1-3.677A2.642,2.642,0,0,1,16.347,31l.38.662,2.292,4.008,2.231,3.91s6.129,4.9,6.129,11.032S23.7,57.968,23.7,57.968v4.9H21.25v-4.9S24.927,56.742,24.927,50.613Z" transform="translate(3.04 6.774)" fill="#ffbeaa"/>
      <g id="Group_1143829" data-name="Group 1143829" transform="translate(1 1)">
        <path id="Path_905898" data-name="Path 905898" d="M23.853,62.871v-4.9s3.677-1.226,3.677-7.355S21.4,39.581,21.4,39.581L16.5,31s-3.677,0-2.452,6.129L16.5,43.258" transform="translate(1.889 5.774)" fill="none" stroke="#000" stroke-linejoin="round" stroke-width="2"/>
        <path id="Path_905899" data-name="Path 905899" d="M18.161,42.29a9.572,9.572,0,0,1-6.129-2.452L8.355,32.484l3.677-9.806A3.6,3.6,0,0,0,8.355,19L1,31.258,4.677,47.194l8.581,12.258v6.129" transform="translate(-1 3.064)" fill="none" stroke="#000" stroke-linejoin="round" stroke-width="2"/>
        <path id="Path_905900" data-name="Path 905900" d="M9,57H26.161v7.355H9Z" transform="translate(0.806 11.645)" fill="none" stroke="#000" stroke-linejoin="round" stroke-width="2"/>
        <path id="Path_905901" data-name="Path 905901" d="M8.8,26.148,13.948,21A5.311,5.311,0,0,1,16.4,25.9l-4.9,4.9-1.226,8.581" transform="translate(0.761 3.516)" fill="none" stroke="#000" stroke-linejoin="round" stroke-width="2"/>
        <path id="Path_905902" data-name="Path 905902" d="M17.509,32.565l2.072-3.114L18.355,27,11,29.452" transform="translate(1.258 4.871)" fill="none" stroke="#000" stroke-linejoin="round" stroke-width="2"/>
        <path id="Path_905903" data-name="Path 905903" d="M18,29l2.452,3.677a18.576,18.576,0,0,1-2.231,3.445" transform="translate(2.839 5.323)" fill="none" stroke="#000" stroke-linejoin="round" stroke-width="2"/>
        <path id="Path_905904" data-name="Path 905904" d="M42.677,62.871v-4.9S39,56.742,39,50.613s6.129-11.032,6.129-11.032L50.032,31s3.677,0,2.452,6.129l-2.452,6.129" transform="translate(7.581 5.774)" fill="none" stroke="#000" stroke-linejoin="round" stroke-width="2"/>
        <path id="Path_905905" data-name="Path 905905" d="M49,42.29a9.572,9.572,0,0,0,6.129-2.452l3.677-7.355-3.677-9.806A3.6,3.6,0,0,1,58.806,19l7.355,12.258L62.484,47.194,53.9,59.452v6.129" transform="translate(9.839 3.064)" fill="none" stroke="#000" stroke-linejoin="round" stroke-width="2"/>
        <path id="Path_905906" data-name="Path 905906" d="M0,0H17.161V7.355H0Z" transform="translate(66.194 76) rotate(180)" fill="none" stroke="#000" stroke-linejoin="round" stroke-width="2"/>
        <path id="Path_905907" data-name="Path 905907" d="M55.132,39.387l-1.226-8.581L49,25.9A5.311,5.311,0,0,1,51.455,21L56.6,26.148" transform="translate(9.836 3.516)" fill="none" stroke="#000" stroke-linejoin="round" stroke-width="2"/>
        <path id="Path_905908" data-name="Path 905908" d="M54.581,29.452,47.226,27,46,29.452l2.072,3.114" transform="translate(9.161 4.871)" fill="none" stroke="#000" stroke-linejoin="round" stroke-width="2"/>
        <path id="Path_905909" data-name="Path 905909" d="M46.231,36.122A18.576,18.576,0,0,1,44,32.677L46.452,29" transform="translate(8.71 5.323)" fill="none" stroke="#000" stroke-linejoin="round" stroke-width="2"/>
        <path id="Path_905910" data-name="Path 905910" d="M39.258,40.047a8.4,8.4,0,0,0-.049-.968C38.437,30.229,27,29.91,27,20.435S38.437,10.64,39.209,1.79" transform="translate(4.871 -0.822)" fill="none" stroke="#000" stroke-linejoin="round" stroke-width="2"/>
        <path id="Path_905911" data-name="Path 905911" d="M27.04,1.79c.38,4.266,3.212,6.546,6.08,8.826,3.065,2.464,6.129,4.915,6.129,9.819s-3.065,7.355-6.129,9.819c-2.868,2.28-5.7,4.56-6.08,8.826" transform="translate(4.88 -0.822)" fill="none" stroke="#000" stroke-linejoin="round" stroke-width="2"/>
        <circle id="Ellipse_11610" data-name="Ellipse 11610" cx="19.5" cy="19.5" r="19.5" transform="translate(18.507)" fill="none" stroke="#000" stroke-linejoin="round" stroke-width="2"/>
        <path id="Path_905912" data-name="Path 905912" d="M27,17H39.258" transform="translate(4.871 2.613)" fill="none" stroke="#000" stroke-linejoin="round" stroke-width="2"/>
        <path id="Path_905913" data-name="Path 905913" d="M28,13h9.806" transform="translate(5.097 1.71)" fill="none" stroke="#000" stroke-linejoin="round" stroke-width="2"/>
        <path id="Path_905914" data-name="Path 905914" d="M28,21h9.806" transform="translate(5.097 3.516)" fill="none" stroke="#000" stroke-linejoin="round" stroke-width="2"/>
        <path id="Path_905915" data-name="Path 905915" d="M28,5h9.806" transform="translate(5.097 -0.097)" fill="none" stroke="#000" stroke-linejoin="round" stroke-width="2"/>
        <path id="Path_905916" data-name="Path 905916" d="M28,29h9.806" transform="translate(5.097 5.323)" fill="none" stroke="#000" stroke-linejoin="round" stroke-width="2"/>
      </g>
    </g>
  </g>
</svg>
