<svg xmlns="http://www.w3.org/2000/svg" xmlns:xlink="http://www.w3.org/1999/xlink" width="86" height="86" viewBox="0 0 86 86">
  <defs>
    <filter id="Ellipse_11513" x="0" y="0" width="86" height="86" filterUnits="userSpaceOnUse">
      <feOffset dy="3" input="SourceAlpha"/>
      <feGaussianBlur stdDeviation="3" result="blur"/>
      <feFlood flood-opacity="0.161"/>
      <feComposite operator="in" in2="blur"/>
      <feComposite in="SourceGraphic"/>
    </filter>
  </defs>
  <g id="Group_1144074" data-name="Group 1144074" transform="translate(-817 -1382.59)">
    <g id="Group_1143818" data-name="Group 1143818" transform="translate(0 932.59)">
      <g id="Group_1143465" data-name="Group 1143465" transform="translate(630 -707)">
        <g transform="matrix(1, 0, 0, 1, 187, 1157)" filter="url(#Ellipse_11513)">
          <g id="Ellipse_11513-2" data-name="Ellipse 11513" transform="translate(9 6)" fill="#ede9fb" stroke="#301a7b" stroke-width="3">
            <circle cx="34" cy="34" r="34" stroke="none"/>
            <circle cx="34" cy="34" r="32.5" fill="none"/>
          </g>
        </g>
      </g>
    </g>
    <g id="mindset_14596632" transform="translate(771.806 1383.31)">
      <g id="Group_1143859" data-name="Group 1143859" transform="translate(64.018 1.599)">
        <g id="Group_1143849" data-name="Group 1143849" transform="translate(11.94 0)">
          <path id="Path_905998" data-name="Path 905998" d="M175.07,8.91c2.014,4.6.875,14.447-3.389,17.2-4.908,3.176-10.653-1.827-9.04-7.1,1.544-5.044,10.062-7.11,12.429-10.1Z" transform="translate(-162.364 -8.91)" fill="#6fd7a3" fill-rule="evenodd"/>
        </g>
        <g id="Group_1143850" data-name="Group 1143850" transform="translate(14.96 0)">
          <path id="Path_905999" data-name="Path 905999" d="M195.157,8.91c2.014,4.6.875,14.447-3.389,17.2a5.723,5.723,0,0,1-6.3.1,5.751,5.751,0,0,0,4.547-.834c3.757-2.43,5.088-10.37,3.97-15.366a6.509,6.509,0,0,0,1.169-1.1Z" transform="translate(-185.471 -8.91)" fill="#3ec3a4" fill-rule="evenodd"/>
        </g>
        <g id="Group_1143851" data-name="Group 1143851" transform="translate(2.521 13.168)">
          <path id="Path_906000" data-name="Path 906000" d="M90.325,109.67c-.327,2.853,1.956,8.043,4.749,8.834a3.505,3.505,0,0,0,3.742-5.408C97.126,110.6,92.123,110.909,90.325,109.67Z" transform="translate(-90.294 -109.67)" fill="#3ec3a4" fill-rule="evenodd"/>
        </g>
        <g id="Group_1143852" data-name="Group 1143852" transform="translate(0 31.989)">
          <path id="Path_906001" data-name="Path 906001" d="M86.125,279.493a13.092,13.092,0,0,1,2.97,6.794h21.887c-3.007-6.492-4.54-12.892-2.1-19.038,1.632-4.106,4.551-8.841,5.18-13.554H75.229a5.7,5.7,0,0,0,.441,4.077c-3.364,5.146-7.83,8.08-1.4,11.22-1.882,1.937-1.79,2.878.081,4.158-.952,1.669-.978,2.753,1.459,3.176C72.406,285.566,83.86,281.007,86.125,279.493Z" transform="translate(-71 -253.694)" fill="#ffbfa8" fill-rule="evenodd"/>
        </g>
        <g id="Group_1143853" data-name="Group 1143853" transform="translate(4.229 22.034)">
          <path id="Path_906002" data-name="Path 906002" d="M136.244,184.179c-.162,0-.32.007-.482.018a7.028,7.028,0,0,0-10.2-3.717,7.617,7.617,0,0,0-6.282-2.963c-6.374,0-4.761,4.551-8.11,4.551-1.867,0-6.786,2.265-7.812,5.4H142.2A7.033,7.033,0,0,0,136.244,184.179Z" transform="translate(-103.361 -177.518)" fill="#d48356" fill-rule="evenodd"/>
        </g>
        <g id="Group_1143854" data-name="Group 1143854" transform="translate(33.639 31.989)">
          <path id="Path_906003" data-name="Path 906003" d="M331.568,286.285h3.18c-3.007-6.492-4.54-12.892-2.1-19.038,1.632-4.106,4.551-8.841,5.18-13.554h-2.959c-.636,4.772-3.588,9.565-5.242,13.723C327.208,273.511,328.645,279.852,331.568,286.285Z" transform="translate(-328.403 -253.693)" fill="#fcac8f" fill-rule="evenodd"/>
        </g>
        <g id="Group_1143855" data-name="Group 1143855" transform="translate(24.584 15.94)">
          <path id="Path_906004" data-name="Path 906004" d="M275.837,135.255a8.678,8.678,0,0,1,1.165.9l3.194-1,1.992,3.448-2.459,2.272a8.711,8.711,0,0,1,.191,1.459l2.963,1.555-1.029,3.845-3.345-.132a8.676,8.676,0,0,1-.9,1.165l1,3.2-3.448,1.989-2.272-2.459a9.116,9.116,0,0,1-1.456.195l-1.559,2.959-3.845-1.029.132-3.342a8.99,8.99,0,0,1-1.165-.9l-3.2.993-1.989-3.444,2.459-2.272a9.23,9.23,0,0,1-.195-1.459l-2.959-1.559,1.029-3.841,3.342.132a8.777,8.777,0,0,1,.9-1.169l-.993-3.195,3.448-1.989,2.268,2.456a8.8,8.8,0,0,1,1.459-.191l1.559-2.963,3.841,1.029Z" transform="translate(-259.115 -130.881)" fill="#55d1f5" fill-rule="evenodd"/>
        </g>
        <g id="Group_1143856" data-name="Group 1143856" transform="translate(31.498 15.94)">
          <path id="Path_906005" data-name="Path 906005" d="M321.834,135.255a8.675,8.675,0,0,1,1.165.9l3.194-1,1.992,3.448-2.459,2.272a8.708,8.708,0,0,1,.191,1.459l2.963,1.555-1.029,3.845-3.345-.132a8.975,8.975,0,0,1-.893,1.165l.993,3.2-3.448,1.989-2.272-2.459a9.121,9.121,0,0,1-1.456.195l-1.559,2.959-3.845-1.029.037-.9a9.982,9.982,0,0,0,3.823-18.814c.224-.029.449-.048.676-.059l1.559-2.963,3.841,1.029Z" transform="translate(-312.026 -130.88)" fill="#41c4e8" fill-rule="evenodd"/>
        </g>
        <g id="Group_1143857" data-name="Group 1143857" transform="translate(30.618 21.976)">
          <path id="Path_906006" data-name="Path 906006" d="M312.656,177.275a5.848,5.848,0,1,1-7.165,4.136A5.844,5.844,0,0,1,312.656,177.275Z" transform="translate(-305.292 -177.073)" fill="#e2f0fa" fill-rule="evenodd"/>
        </g>
        <g id="Group_1143858" data-name="Group 1143858" transform="translate(35.803 21.976)">
          <path id="Path_906007" data-name="Path 906007" d="M347.145,177.27a5.847,5.847,0,0,1-2.169,11.458,5.851,5.851,0,0,0-.011-11.624A5.885,5.885,0,0,1,347.145,177.27Z" transform="translate(-344.965 -177.068)" fill="#d4e7f7" fill-rule="evenodd"/>
        </g>
      </g>
      <path id="Path_906008" data-name="Path 906008" d="M102.83,47.558c.426-1.065.948-2.2,1.4-3.163a.913.913,0,0,0-1.653-.777c-.465.991-1,2.153-1.445,3.264a18.921,18.921,0,0,0-1.054,9.908,34.118,34.118,0,0,0,2.6,8.663H82.822A14.043,14.043,0,0,0,80.494,59.8a21.531,21.531,0,0,0,7.222-5.9.913.913,0,1,0-1.481-1.069c-1.958,2.713-4.818,4.4-7.58,5.894-.023.012-.044.026-.066.04l-.007,0c-1.786,1.194-7.331,3.244-9.05,1.89-.916-.721-.481-2.574.045-4a.913.913,0,0,0-.7-1.215c-.912-.158-1.246-.392-1.3-.506-.022-.048-.105-.336.467-1.335a.913.913,0,0,0-.278-1.208c-.843-.575-1.041-.912-1.06-1.094-.023-.225.152-.7,1.115-1.693a.913.913,0,0,0-.254-1.457c-1.629-.8-2.549-1.6-2.734-2.38-.274-1.162.959-2.777,2.386-4.648.666-.873,1.422-1.863,2.122-2.935a.913.913,0,0,0,.024-.961,4.317,4.317,0,0,1-.456-2.729H85.538a.913.913,0,1,0,0-1.826h-15.9a10.488,10.488,0,0,1,6.353-3.608,3.752,3.752,0,0,0,3.33-2.156c.822-1.245,1.6-2.421,4.822-2.421a7.959,7.959,0,0,1,2.033.247.913.913,0,1,0,.467-1.766,9.785,9.785,0,0,0-2.5-.308c-3.68,0-5.087,1.435-5.986,2.71a32.555,32.555,0,0,1,1.181-5.307,6.6,6.6,0,0,0,2.656.562,6.9,6.9,0,0,0,3.758-1.142c2.168-1.4,3.8-4.527,4.478-8.573.613-3.661.334-7.441-.73-9.864a.913.913,0,0,0-1.553-.2c-.81,1.026-2.613,2.025-4.521,3.082-3.317,1.838-7.076,3.922-8.131,7.376a7.191,7.191,0,0,0,2.437,7.779,34.442,34.442,0,0,0-1.22,4.956,15.517,15.517,0,0,0-.717-1.46,4.49,4.49,0,0,0-.05-4.987c-1.25-1.844-3.739-2.367-5.935-2.827a9.428,9.428,0,0,1-2.847-.861.913.913,0,0,0-1.425.648,11.1,11.1,0,0,0,1.3,5.733c.647,1.29,2.045,3.543,4.137,4.134a4.535,4.535,0,0,0,1.233.174,4.136,4.136,0,0,0,2.235-.65,15.516,15.516,0,0,1,1.222,3.311c-2.432.211-7.26,2.674-8.387,6l0,.013c0,.013-.01.025-.014.038a.9.9,0,0,0-.027.1l0,.007a7,7,0,0,0,.287,4.215c-.576.846-1.173,1.628-1.753,2.389-1.709,2.24-3.185,4.174-2.712,6.176a5.072,5.072,0,0,0,2.664,3.039,3.236,3.236,0,0,0-.832,2.254,2.948,2.948,0,0,0,1.2,1.934,2.728,2.728,0,0,0-.162,2.3,2.605,2.605,0,0,0,1.619,1.28c-.692,2.393-.4,4.106.858,5.1,2.551,2.01,8.193-.175,10.486-1.392a13.25,13.25,0,0,1,2.294,5.84.913.913,0,0,0,.9.736h22.016a.913.913,0,0,0,.829-1.3c-3.5-7.566-4.147-13.249-2.092-18.424ZM77.043,11.839c.84-2.749,4.256-4.642,7.27-6.313a29.087,29.087,0,0,0,3.96-2.46c1.27,4.762-.1,12.673-3.512,14.882a4.841,4.841,0,0,1-4.823.381,21.926,21.926,0,0,1,4.837-7.856A.913.913,0,1,0,83.5,9.167a23.234,23.234,0,0,0-5.1,8.069,5.362,5.362,0,0,1-1.358-5.4ZM71.475,22.661c-1.914-.541-3.758-3.993-4.094-6.6.628.193,1.331.34,2.055.492,1.857.39,3.962.832,4.8,2.065A2.606,2.606,0,0,1,74.6,20.8a9.661,9.661,0,0,0-2.4-2.154.913.913,0,1,0-.966,1.55,8.153,8.153,0,0,1,2.26,2.18A2.415,2.415,0,0,1,71.475,22.661Zm41.458,7.062-2.53-1.332c-.02-.193-.045-.382-.075-.569l2.1-1.94a.913.913,0,0,0,.171-1.127l-2-3.464a.912.912,0,0,0-1.061-.415l-2.734.848q-.222-.181-.452-.348l.113-2.857a.913.913,0,0,0-.676-.918l-3.867-1.039a.913.913,0,0,0-1.045.458l-1.329,2.533q-.286.029-.566.074l-1.943-2.1a.913.913,0,0,0-1.127-.171l-3.464,2a.913.913,0,0,0-.415,1.061l.848,2.732q-.179.22-.348.453l-2.86-.113a.917.917,0,0,0-.918.676L87.72,28.032a.913.913,0,0,0,.458,1.045l2.531,1.328q.029.282.075.567l-2.1,1.942a.913.913,0,0,0-.171,1.127l2,3.464a.913.913,0,0,0,1.062.415l2.731-.849q.226.184.454.349l-.113,2.859a.913.913,0,0,0,.676.918l3.863,1.035a.913.913,0,0,0,1.045-.457l1.332-2.532q.282-.029.568-.075l1.942,2.1a.913.913,0,0,0,1.127.171l3.464-2a.913.913,0,0,0,.415-1.062l-.849-2.732q.181-.223.348-.453l2.857.113a.916.916,0,0,0,.918-.676l1.035-3.863a.913.913,0,0,0-.456-1.044Zm-2.154,3.73-2.631-.1a.914.914,0,0,0-.8.417,8.469,8.469,0,0,1-.814,1.061.913.913,0,0,0-.193.881l.782,2.516-2.2,1.271-1.789-1.934a.913.913,0,0,0-.862-.273,7.954,7.954,0,0,1-1.316.173.913.913,0,0,0-.768.487l-1.228,2.334L96.5,39.624l.1-2.635a.913.913,0,0,0-.42-.805,8.119,8.119,0,0,1-1.057-.812.913.913,0,0,0-.881-.193l-2.516.782-1.271-2.2,1.934-1.789a.913.913,0,0,0,.273-.863,7.968,7.968,0,0,1-.173-1.316.913.913,0,0,0-.488-.768L89.673,27.8l.658-2.456,2.635.1a.907.907,0,0,0,.8-.417,7.873,7.873,0,0,1,.808-1.05.913.913,0,0,0,.2-.888l-.782-2.52,2.2-1.271,1.789,1.934a.914.914,0,0,0,.863.273,8.349,8.349,0,0,1,1.323-.173.913.913,0,0,0,.761-.488l1.224-2.333,2.457.66-.1,2.632a.913.913,0,0,0,.417.8,8.162,8.162,0,0,1,1.054.811.911.911,0,0,0,.884.2l2.52-.782,1.27,2.2-1.937,1.789a.914.914,0,0,0-.272.87,7.836,7.836,0,0,1,.175,1.316.913.913,0,0,0,.486.761L111.437,31Zm-8.465-10.618A6.794,6.794,0,1,0,106.44,26a6.753,6.753,0,0,0-4.126-3.166Zm3.041,7.847a4.969,4.969,0,0,1-9.1,1.2,4.97,4.97,0,0,1,4.3-7.452,5.011,5.011,0,0,1,1.294.171,4.967,4.967,0,0,1,3.513,6.083Zm-1.428-2.789-3.46,4.174a.913.913,0,0,1-.633.328l-.07,0a.913.913,0,0,1-.606-.23L97.283,30.5A.913.913,0,1,1,98.5,29.138l1.168,1.037,2.858-3.447a.913.913,0,0,1,1.406,1.166Z" transform="translate(0)"/>
    </g>
  </g>
</svg>
