<svg xmlns="http://www.w3.org/2000/svg" xmlns:xlink="http://www.w3.org/1999/xlink" width="86" height="86" viewBox="0 0 86 86">
  <defs>
    <filter id="Ellipse_11513" x="0" y="0" width="86" height="86" filterUnits="userSpaceOnUse">
      <feOffset dy="3" input="SourceAlpha"/>
      <feGaussianBlur stdDeviation="3" result="blur"/>
      <feFlood flood-opacity="0.161"/>
      <feComposite operator="in" in2="blur"/>
      <feComposite in="SourceGraphic"/>
    </filter>
  </defs>
  <g id="Group_1144072" data-name="Group 1144072" transform="translate(-817 -1247.59)">
    <g id="Group_1143817" data-name="Group 1143817" transform="translate(0 797.59)">
      <g id="Group_1143465" data-name="Group 1143465" transform="translate(630 -707)">
        <g transform="matrix(1, 0, 0, 1, 187, 1157)" filter="url(#Ellipse_11513)">
          <g id="Ellipse_11513-2" data-name="Ellipse 11513" transform="translate(9 6)" fill="#ede9fb" stroke="#301a7b" stroke-width="3">
            <circle cx="34" cy="34" r="34" stroke="none"/>
            <circle cx="34" cy="34" r="32.5" fill="none"/>
          </g>
        </g>
      </g>
    </g>
    <g id="covid-19_8062417" transform="translate(838 1260.674)">
      <g id="Group_1143844" data-name="Group 1143844" transform="translate(3.841 0.841)">
        <path id="Path_905944" data-name="Path 905944" d="M7.365,1H30.916a3.366,3.366,0,0,1,3.365,3.365V49.786H4V4.365A3.366,3.366,0,0,1,7.365,1Z" transform="translate(-4 -1)" fill="#64c8ff"/>
        <path id="Path_905945" data-name="Path 905945" d="M6.523,5.206A1.682,1.682,0,0,1,8.206,3.523H34.281c.493,0-.724-.729-.3-.538A3.359,3.359,0,0,0,30.916,1H7.365A3.365,3.365,0,0,0,4,4.365V49.786H6.523Z" transform="translate(-4 -1)" fill="#4cb7f0"/>
        <path id="Path_905946" data-name="Path 905946" d="M4,57H34.281v1.682a3.366,3.366,0,0,1-3.365,3.365H7.365A3.366,3.366,0,0,1,4,58.682Z" transform="translate(-4 -9.897)" fill="#56627d"/>
        <g id="Group_1143842" data-name="Group 1143842" transform="translate(6.729 10.935)">
          <ellipse id="Ellipse_11611" data-name="Ellipse 11611" cx="8" cy="8.5" rx="8" ry="8.5" transform="translate(0.43 0.224)" fill="#c3f77e"/>
          <path id="Path_905947" data-name="Path 905947" d="M22.411,16a8.4,8.4,0,0,0-6.722,13.451A8.4,8.4,0,0,0,27.451,17.689,8.362,8.362,0,0,0,22.411,16Z" transform="translate(-12.318 -14.318)" fill="#a2ed50"/>
          <circle id="Ellipse_11612" data-name="Ellipse 11612" cx="1.5" cy="1.5" r="1.5" transform="translate(4.43 5.224)" fill="#c3f77e"/>
        </g>
        <g id="Group_1143843" data-name="Group 1143843" transform="translate(27.757 15.14)">
          <path id="Path_905948" data-name="Path 905948" d="M53.823,19H37l5.888,3.365V34.982A2.523,2.523,0,0,0,45.411,37.5h8.411a2.523,2.523,0,0,0,2.523-2.523V21.523A2.523,2.523,0,0,0,53.823,19Z" transform="translate(-37 -19)" fill="#eefdff"/>
          <path id="Path_905949" data-name="Path 905949" d="M56.784,21.118A2.509,2.509,0,0,0,56.061,21H40.5l4.626,2.644V36.982a2.509,2.509,0,0,0,.118.723,2.509,2.509,0,0,0,.723.118h8.411A2.523,2.523,0,0,0,56.9,35.3V21.841A2.509,2.509,0,0,0,56.784,21.118Z" transform="translate(-37.556 -19.318)" fill="#d4f6f9"/>
        </g>
      </g>
      <g id="Group_1143845" data-name="Group 1143845" transform="translate(3)">
        <path id="Path_905950" data-name="Path 905950" d="M30.028,41H9.841a.841.841,0,0,0,0,1.682H30.028a.841.841,0,0,0,0-1.682Z" transform="translate(-3.953 -6.514)"/>
        <path id="Path_905951" data-name="Path 905951" d="M30.028,46H9.841a.841.841,0,0,0,0,1.682H30.028a.841.841,0,0,0,0-1.682Z" transform="translate(-3.953 -7.308)"/>
        <path id="Path_905952" data-name="Path 905952" d="M30.028,51H9.841a.841.841,0,0,0,0,1.682H30.028a.841.841,0,0,0,0-1.682Z" transform="translate(-3.953 -8.102)"/>
        <path id="Path_905953" data-name="Path 905953" d="M28.008,17.743l2.227-1.286A.841.841,0,1,0,29.394,15l-2.227,1.286a9.318,9.318,0,0,0-2.22-2.22l1.286-2.228A.841.841,0,1,0,24.777,11L23.49,13.225a9.166,9.166,0,0,0-3.032-.818V9.84a.841.841,0,1,0-1.682,0v2.566a9.166,9.166,0,0,0-3.032.818L14.457,11A.841.841,0,1,0,13,11.839l1.286,2.228a9.318,9.318,0,0,0-2.22,2.22L9.84,15A.841.841,0,1,0,9,16.457l2.227,1.286a9.166,9.166,0,0,0-.818,3.032H7.841a.841.841,0,0,0,0,1.682h2.566a9.166,9.166,0,0,0,.818,3.032L9,26.776a.841.841,0,1,0,.841,1.457l2.227-1.286a9.318,9.318,0,0,0,2.22,2.22L13,31.4a.841.841,0,0,0,1.457.841l1.286-2.227a9.166,9.166,0,0,0,3.032.818v2.566a.841.841,0,0,0,1.682,0V30.827a9.166,9.166,0,0,0,3.032-.818l1.286,2.227a.841.841,0,1,0,1.457-.841l-1.286-2.228a9.318,9.318,0,0,0,2.22-2.22l2.227,1.286a.841.841,0,1,0,.841-1.457L28.008,25.49a9.166,9.166,0,0,0,.818-3.032h2.566a.841.841,0,1,0,0-1.682H28.827a9.166,9.166,0,0,0-.818-3.032ZM19.617,29.187a7.57,7.57,0,1,1,7.57-7.57A7.579,7.579,0,0,1,19.617,29.187Z" transform="translate(-3.635 -1.43)"/>
        <circle id="Ellipse_11613" data-name="Ellipse 11613" cx="1" cy="1" r="1" transform="translate(19 17)"/>
        <circle id="Ellipse_11614" data-name="Ellipse 11614" cx="1" cy="1" r="1" transform="translate(14 24)"/>
        <path id="Path_905954" data-name="Path 905954" d="M18.523,19a2.523,2.523,0,1,0,2.523,2.523A2.526,2.526,0,0,0,18.523,19Zm0,3.365a.841.841,0,1,1,.841-.841A.842.842,0,0,1,18.523,22.365Z" transform="translate(-5.065 -3.018)"/>
        <path id="Path_905955" data-name="Path 905955" d="M25.929,25.246l-1.682,1.682a.841.841,0,0,0,1.189,1.189l1.682-1.682a.841.841,0,0,0-1.189-1.189Z" transform="translate(-6.336 -3.972)"/>
        <path id="Path_905956" data-name="Path 905956" d="M48.421,15.14H34.963V4.206A4.21,4.21,0,0,0,30.757,0H7.206A4.21,4.21,0,0,0,3,4.206V49.627a4.21,4.21,0,0,0,4.206,4.206H30.757a4.21,4.21,0,0,0,4.206-4.206V18.873l1.682.961V31.963a3.365,3.365,0,0,0,3.365,3.365h8.411a3.365,3.365,0,0,0,3.365-3.365V18.5A3.365,3.365,0,0,0,48.421,15.14ZM33.281,49.627a2.526,2.526,0,0,1-2.523,2.523H7.206a2.526,2.526,0,0,1-2.523-2.523v-.841h28.6Zm0-34.486H31.6a.841.841,0,0,0-.417,1.571l2.1,1.2V47.1H4.682V4.206A2.526,2.526,0,0,1,7.206,1.682H30.757a2.526,2.526,0,0,1,2.523,2.523ZM50.1,31.963a1.682,1.682,0,0,1-1.682,1.682H40.01a1.682,1.682,0,0,1-1.682-1.682V19.346a.84.84,0,0,0-.424-.73l-3.138-1.793H48.42A1.682,1.682,0,0,1,50.1,18.5V31.963Z" transform="translate(-3)"/>
        <path id="Path_905957" data-name="Path 905957" d="M54.57,24H47.841a.841.841,0,0,0,0,1.682H54.57a.841.841,0,1,0,0-1.682Z" transform="translate(-9.99 -3.813)"/>
        <path id="Path_905958" data-name="Path 905958" d="M54.57,29H47.841a.841.841,0,0,0,0,1.682H54.57a.841.841,0,1,0,0-1.682Z" transform="translate(-9.99 -4.607)"/>
        <path id="Path_905959" data-name="Path 905959" d="M54.57,34H47.841a.841.841,0,0,0,0,1.682H54.57a.841.841,0,0,0,0-1.682Z" transform="translate(-9.99 -5.401)"/>
        <path id="Path_905960" data-name="Path 905960" d="M18.841,6.682h5.047a.841.841,0,1,0,0-1.682H18.841a.841.841,0,0,0,0,1.682Z" transform="translate(-5.383 -0.794)"/>
      </g>
    </g>
  </g>
</svg>
